<svg width="72" height="72" viewBox="0 0 72 72" fill="none" xmlns="http://www.w3.org/2000/svg">
<g clip-path="url(#clip0_1_1382)">
<mask id="mask0_1_1382" style="mask-type:luminance" maskUnits="userSpaceOnUse" x="6" y="7" width="59" height="59">
<path d="M64.3595 7.44098H6.54565V65.2754H64.3595V7.44098Z" fill="white"/>
</mask>
<g mask="url(#mask0_1_1382)">
<path d="M64.2054 34.9606C64.1973 34.8558 64.1831 34.7514 64.1629 34.6482C63.9048 33.3387 63.2993 32.1226 62.4098 31.1275C61.9556 30.6456 61.6256 30.0604 61.4483 29.4224C61.2709 28.7844 61.2515 28.1128 61.3917 27.4657C61.7909 25.547 61.4651 23.5486 60.4774 21.856C59.4897 20.1634 57.9099 18.8967 56.0432 18.3005C55.4409 18.1024 54.8944 17.7638 54.4489 17.3127C54.0035 16.8615 53.6719 16.3108 53.4816 15.706C52.8612 13.8743 51.5999 12.3283 49.93 11.3528C48.2602 10.3774 46.2941 10.038 44.3938 10.3972C43.7387 10.5439 43.0577 10.5297 42.4094 10.3556C41.761 10.1815 41.1645 9.85277 40.671 9.39763C39.5429 8.40051 38.1479 7.75493 36.6577 7.54033C36.5784 7.52507 36.5009 7.50213 36.4261 7.47182C36.3967 7.46292 36.3672 7.45127 36.3377 7.44031H34.5483C34.5188 7.45127 34.4893 7.46086 34.4585 7.47182C34.3838 7.50237 34.3062 7.52532 34.227 7.54033C32.7547 7.74799 31.3755 8.38223 30.2596 9.36474C29.7565 9.83819 29.1441 10.1798 28.477 10.3591C27.8098 10.5384 27.1087 10.5498 26.436 10.3924C24.5428 10.0386 22.5855 10.3816 20.9254 11.3583C19.2654 12.335 18.0148 13.8792 17.4044 15.706C17.2147 16.3111 16.8833 16.8621 16.4378 17.3134C15.9923 17.7646 15.4455 18.103 14.8428 18.3005C12.9566 18.9023 11.3634 20.1874 10.3759 21.9034C9.38834 23.6195 9.07783 25.6427 9.50526 27.576C9.64093 28.1874 9.62443 28.8228 9.4572 29.4264C9.28996 30.03 8.97712 30.5833 8.54613 31.0378C8.10644 31.523 7.7309 32.0627 7.42874 32.6436C6.69517 34.0846 6.40834 35.7117 6.60497 37.3167C6.80159 38.9216 7.47271 40.4314 8.53243 41.6526C8.96369 42.1177 9.27677 42.6796 9.44525 43.2911C9.61373 43.9025 9.63267 44.5455 9.50047 45.1658C9.08442 47.0999 9.40366 49.1195 10.3959 50.831C11.3882 52.5425 12.9823 53.823 14.8675 54.4228C15.4611 54.6186 15.9997 54.9526 16.4389 55.3972C16.8782 55.8418 17.2056 56.3844 17.3941 56.9803C18.002 58.8303 19.2654 60.3942 20.9464 61.3772C22.6274 62.3602 24.6099 62.6946 26.5203 62.3172C26.825 62.2597 27.1344 62.2301 27.4445 62.2288C28.4614 62.2299 29.4414 62.61 30.1931 63.2948C31.6397 64.5678 33.4996 65.2719 35.4265 65.2759C37.3535 65.2799 39.2163 64.5837 40.6682 63.3167C41.1641 62.8651 41.7608 62.5387 42.4086 62.3648C43.0564 62.1909 43.7364 62.1746 44.3917 62.3172C46.2931 62.6929 48.2662 62.3609 49.9399 61.3836C51.6135 60.4063 52.8724 58.851 53.4795 57.0104C53.6701 56.4056 54.0017 55.8546 54.4471 55.4032C54.8925 54.9517 55.4389 54.6126 56.0411 54.4139C57.9084 53.8189 59.4888 52.5528 60.477 50.8604C61.4653 49.168 61.7911 47.1694 61.3917 45.2508C61.2516 44.6038 61.2708 43.9324 61.4478 43.2945C61.6248 42.6566 61.9542 42.0712 62.4077 41.5889C63.2854 40.6086 63.8871 39.4128 64.1513 38.1237C64.1737 38.0121 64.1897 37.8994 64.1992 37.786C64.2093 37.5602 64.2635 37.3386 64.3589 37.1337V35.5834C64.2613 35.39 64.2092 35.1772 64.2054 34.9606ZM59.7303 39.7124C59.0151 40.5448 58.5032 41.532 58.235 42.5961C57.9667 43.6602 57.9495 44.7721 58.1848 45.8441C58.4332 46.9783 58.2515 48.1645 57.6751 49.1724C57.0986 50.1804 56.1684 50.9384 55.0648 51.2995C53.958 51.6571 52.9528 52.2743 52.1332 53.0996C51.3135 53.925 50.7033 54.9345 50.3534 56.0438C49.9827 57.1229 49.2313 58.0298 48.2399 58.5947C47.2485 59.1595 46.0852 59.3436 44.9679 59.1123C43.8602 58.8604 42.7082 58.8782 41.6088 59.1643C40.5095 59.4505 39.4949 59.9965 38.6506 60.7565C37.7795 61.5689 36.6327 62.0206 35.4416 62.0206C34.2505 62.0206 33.1038 61.5689 32.2326 60.7565C31.3883 59.9965 30.3738 59.4505 29.2744 59.1643C28.1751 58.8782 27.0231 58.8604 25.9154 59.1123C24.7977 59.344 23.634 59.1601 22.6422 58.5953C21.6504 58.0304 20.8986 57.1232 20.5278 56.0438C20.1785 54.9339 19.5686 53.9238 18.7489 53.098C17.9292 52.2723 16.9236 51.6548 15.8164 51.2974C14.7132 50.9358 13.7836 50.1776 13.2076 49.1697C12.6316 48.1618 12.4501 46.976 12.6985 45.842C12.9413 44.742 12.9183 43.5999 12.6313 42.5105C12.3444 41.4212 11.8019 40.4159 11.0488 39.5782C10.2295 38.7111 9.77174 37.5643 9.76868 36.3714C9.76563 35.1785 10.2175 34.0294 11.0323 33.1581C11.7933 32.3146 12.3412 31.3011 12.6303 30.2024C12.9193 29.1037 12.941 27.9517 12.6937 26.8429C12.4537 25.7266 12.6314 24.5611 13.1933 23.5671C13.7552 22.5731 14.6622 21.8198 15.7424 21.4498C16.8765 21.0862 17.9064 20.4547 18.7447 19.6087C19.5831 18.7627 20.2053 17.7272 20.5586 16.5898C20.9369 15.5317 21.685 14.646 22.6649 14.0959C23.6447 13.5459 24.7904 13.3685 25.8907 13.5966C26.9975 13.853 28.1497 13.8395 29.2501 13.5572C30.3505 13.2748 31.3669 12.7319 32.2135 11.9743C33.0858 11.1469 34.2424 10.6857 35.4447 10.6857C36.6471 10.6857 37.8036 11.1469 38.676 11.9743C39.5147 12.7262 40.5211 13.2667 41.6112 13.5507C42.7013 13.8347 43.8435 13.8539 44.9425 13.6069C46.0583 13.3698 47.2222 13.5473 48.2165 14.1063C49.2108 14.6653 49.9673 15.5674 50.3445 16.6439C50.7001 17.7715 51.3221 18.7969 52.1578 19.6333C52.9935 20.4698 54.0184 21.0926 55.1457 21.4492C56.087 21.7707 56.8999 22.3864 57.4646 23.2052C58.0294 24.024 58.3159 25.0027 58.282 25.9968C58.2908 26.3021 58.2599 26.6072 58.1903 26.9046C58.1704 27.0128 58.1498 27.1231 58.1313 27.2334C57.9506 28.2487 57.9989 29.2916 58.2726 30.2859C58.5462 31.2802 59.0384 32.2008 59.7132 32.9807C61.5671 35.1949 61.5712 37.5229 59.7297 39.7111" fill="#9057CD"/>
<path d="M33.4206 30.6061C33.4214 29.8095 33.2293 29.0245 32.8606 28.3184C32.4919 27.6122 31.9577 27.0058 31.3036 26.551C30.5507 25.9598 29.6445 25.596 28.6918 25.5023C27.739 25.4086 26.7794 25.5889 25.9256 26.0222C25.0439 26.398 24.2912 27.0232 23.7601 27.821C23.2289 28.6189 22.9424 29.5545 22.9359 30.513C22.8879 31.8455 22.9009 33.2033 22.9119 34.5153C22.9153 35.1031 22.9208 35.693 22.9208 36.2808V36.3493H22.9064V37.9113C22.9064 39.1774 22.9064 40.4446 22.9064 41.7129C22.8608 42.5924 23.0384 43.4692 23.4227 44.2616C23.807 45.054 24.3855 45.7363 25.1044 46.2451C25.8232 46.7538 26.6591 47.0725 27.5342 47.1714C28.4093 47.2703 29.2952 47.1462 30.1095 46.8107C32.2265 46.0407 33.3692 44.369 33.4172 41.9746C33.496 38.0127 33.461 34.0275 33.4206 30.602M30.1753 41.9027C30.175 42.2662 30.0801 42.6233 29.9 42.939C29.7198 43.2547 29.4605 43.518 29.1476 43.7031C28.8562 43.8681 28.5268 43.9543 28.1919 43.9532C27.8231 43.9512 27.461 43.8538 27.141 43.6702C26.8161 43.4863 26.5511 43.2129 26.3773 42.8824C26.2036 42.552 26.1286 42.1786 26.1613 41.8068C26.1613 40.5078 26.1613 39.2075 26.1613 37.9058V36.3239C26.1613 35.7562 26.1602 35.1878 26.1579 34.6187C26.1579 33.3801 26.1524 32.0996 26.1668 30.8411C26.1564 30.5484 26.2078 30.2568 26.3177 29.9852C26.4276 29.7137 26.5935 29.4684 26.8046 29.2654C27.0205 29.0794 27.2733 28.9411 27.5464 28.8597C27.8195 28.7782 28.1067 28.7554 28.3892 28.7927C28.6484 28.8123 28.9011 28.8836 29.1323 29.0024C29.3634 29.1213 29.5685 29.2852 29.7353 29.4846C29.9021 29.6839 30.0272 29.9147 30.1034 30.1632C30.1796 30.4117 30.2052 30.673 30.1787 30.9316C30.1863 32.6737 30.1842 34.4153 30.1821 36.1575V38.223C30.1821 38.5944 30.1833 38.9654 30.1856 39.3363C30.191 40.1762 30.1965 41.0449 30.1746 41.8993" fill="#421C67"/>
<path d="M46.904 28.0096C46.1874 29.8176 45.4523 31.6516 44.7398 33.4267L43.7587 35.8725L42.8681 38.1031C41.8427 40.6608 40.8199 43.2204 39.7996 45.7817C39.7148 46.12 39.5284 46.4243 39.2656 46.6535C39.0028 46.8828 38.676 47.0261 38.3293 47.0642C38.0567 47.0971 37.7802 47.0581 37.5272 46.9511C37.2742 46.8442 37.0536 46.673 36.8872 46.4545C36.7137 46.2121 36.6052 45.9293 36.5721 45.633C36.539 45.3368 36.5824 45.037 36.6981 44.7623C37.1777 43.5366 37.6758 42.2959 38.1608 41.095C38.3718 40.5695 38.5815 40.0461 38.7932 39.5192L40.0948 36.2671C41.3536 33.1211 42.6128 29.9765 43.8725 26.8333C43.9685 26.4892 44.1755 26.1864 44.4613 25.9721C44.7471 25.7578 45.0957 25.6439 45.453 25.6481C45.7119 25.6419 45.9684 25.7001 46.1993 25.8176C46.4302 25.935 46.6283 26.1079 46.7759 26.3209C46.9347 26.57 47.0295 26.8545 47.052 27.1491C47.0745 27.4437 47.0239 27.7393 46.9047 28.0096" fill="#421C67"/>
<path d="M39.796 28.5111C39.796 28.7167 39.7994 28.9222 39.7905 29.1277C39.7766 29.5477 39.6025 29.9464 39.3038 30.242C39.0052 30.5376 38.6047 30.7076 38.1847 30.7172H38.1662C37.7575 30.7132 37.3651 30.5563 37.0664 30.2773C36.7677 29.9983 36.5844 29.6174 36.5528 29.2099C36.507 28.518 36.5082 27.8238 36.5562 27.1321C36.577 26.7217 36.7592 26.3362 37.0631 26.0598C37.3671 25.7833 37.768 25.6383 38.1785 25.6564C38.199 25.6564 38.2189 25.6564 38.2374 25.6564C38.6484 25.661 39.0412 25.8266 39.3315 26.1176C39.6217 26.4087 39.7863 26.8019 39.7898 27.2129C39.7988 27.4369 39.7974 27.6664 39.7953 27.8891C39.7953 28.0014 39.7919 28.1131 39.7919 28.2255C39.7919 28.3193 39.7919 28.4146 39.7953 28.5084" fill="#421C67"/>
<path d="M47.0472 44.4849V44.5534C47.0472 44.6712 47.0472 44.7883 47.0527 44.9082C47.0638 45.1635 47.0601 45.4193 47.0418 45.6742C47.0071 46.0458 46.837 46.3917 46.5639 46.6461C46.2908 46.9005 45.9337 47.0457 45.5606 47.054C45.1794 47.1054 44.7931 47.0081 44.4817 46.7823C44.1704 46.5566 43.9579 46.2196 43.8883 45.8413C43.7387 44.9956 43.7362 44.1305 43.8807 43.2839C43.9513 42.924 44.144 42.5996 44.4263 42.3656C44.7086 42.1315 45.063 42.0021 45.4297 41.9993C45.4612 41.9993 45.4921 41.9993 45.5236 42.0027C45.9154 42.0219 46.2867 42.1832 46.5681 42.4565C46.8494 42.7298 47.0215 43.0963 47.052 43.4874C47.0705 43.7278 47.0651 43.9758 47.061 44.217C47.061 44.3054 47.0575 44.3951 47.0555 44.4835L47.0472 44.4849Z" fill="#421C67"/>
</g>
</g>
<defs>
<clipPath id="clip0_1_1382">
<rect width="71.25" height="71.25" fill="white" transform="translate(0.379883 0.590027)"/>
</clipPath>
</defs>
</svg>
