<svg width="102" height="103" viewBox="0 0 102 103" fill="none" xmlns="http://www.w3.org/2000/svg">
<path d="M15.5398 51.2132V48.6006C15.5982 48.5169 15.6452 48.4258 15.6797 48.3296C15.904 47.0269 16.5128 45.8211 17.4279 44.8672C25.9217 36.3572 34.42 27.8508 42.9229 19.3479C43.355 18.9295 43.9199 18.6756 44.5196 18.6302C45.9599 18.4359 47.4032 18.2689 48.8435 18.0688C50.3665 17.8561 51.8864 17.6094 53.4084 17.3889C54.7798 17.1947 56.1521 17.0198 57.5235 16.8188C58.9784 16.6071 60.4324 16.383 61.8853 16.1467C62.6157 16.0311 63.3441 15.8777 64.0745 15.7397H65.4498C65.6733 15.8657 65.8849 16.0117 66.0821 16.1758C67.5758 17.6677 69.0579 19.1721 70.5439 20.6727V20.8378L64.7592 26.471C64.4416 26.133 64.091 25.7134 63.6909 25.3443C63.3312 24.8952 62.81 24.6048 62.2388 24.5354C61.6676 24.4661 61.092 24.6233 60.6353 24.9733C60.5878 25.0112 60.5382 25.0461 60.4897 25.084C60.1333 25.4731 59.9299 25.9781 59.9173 26.5056C59.9046 27.0331 60.0834 27.5473 60.4207 27.9531C62.4092 29.9817 64.4164 31.9905 66.4424 33.9796C66.8147 34.2876 67.2822 34.4572 67.7654 34.4595C68.2486 34.4618 68.7177 34.2967 69.0929 33.9922C69.4117 33.7482 69.6429 33.4075 69.752 33.0211C69.8611 32.6347 69.8421 32.2234 69.698 31.8487C69.1634 30.9977 68.5736 30.1827 67.9323 29.409C69.7553 27.5889 71.6774 25.6726 73.6198 23.7321C75.1408 25.2453 76.7064 26.7808 78.242 28.3484C78.4257 28.5722 78.5196 28.8565 78.5052 29.1457C78.4547 30.0412 78.3527 30.9338 78.242 31.8254C78.0225 33.6008 77.8078 35.3772 77.5533 37.1468C77.2552 39.2214 76.8978 41.2891 76.6015 43.3627C76.3053 45.4363 76.0635 47.5303 75.7672 49.6107C75.6749 50.3665 75.3287 51.0685 74.7853 51.6017C66.4411 59.9091 58.1137 68.2345 49.8031 76.5781C48.5086 77.8955 46.7784 78.6959 44.9363 78.8294C43.8957 78.9364 42.8445 78.8063 41.8614 78.4489C40.8784 78.0914 39.9891 77.5159 39.2603 76.7655C32.0797 69.625 24.9174 62.466 17.7736 55.2886C17.3899 54.9395 17.0623 54.5332 16.8024 54.0842C16.3304 53.1538 15.9594 52.1738 15.5456 51.2113L15.5398 51.2132ZM51.3076 31.4136C50.0663 31.4136 49.6448 31.7244 49.2291 32.9676C46.0195 42.5906 42.8044 52.2104 39.5838 61.8269C39.4172 62.3474 39.4558 62.9119 39.6916 63.4049C39.9273 63.8979 40.3425 64.2823 40.8522 64.4794C41.1067 64.5726 41.3775 64.6131 41.6481 64.5984C41.9187 64.5837 42.1835 64.5141 42.4263 64.3938C42.6692 64.2735 42.885 64.105 43.0607 63.8987C43.2364 63.6923 43.3683 63.4524 43.4483 63.1935C44.406 60.3953 45.3393 57.5885 46.2737 54.7835C48.5612 47.9201 50.8456 41.0567 53.1267 34.1933C53.6463 32.6257 52.8451 31.4116 51.3115 31.4116L51.3076 31.4136ZM40.8386 48.0014C40.8871 47.1247 40.731 46.2487 40.3826 45.4428C40.0341 44.6369 39.503 43.9231 38.8311 43.3579C38.1698 42.7651 37.3867 42.3243 36.5368 42.0666C35.6869 41.8089 34.7909 41.7404 33.9117 41.8661C32.4068 42.0228 31.0161 42.7404 30.0162 43.8759C29.0163 45.0115 28.4805 46.4819 28.5155 47.9946C28.5132 48.8308 28.6823 49.6586 29.0124 50.4269C29.3425 51.1952 29.8265 51.8877 30.4347 52.4617C31.0428 53.0356 31.7622 53.4788 32.5483 53.7639C33.3344 54.049 34.1707 54.1699 35.0053 54.1192C37.8666 54.0221 41.0678 51.3725 40.8376 48.0004L40.8386 48.0014ZM57.9149 54.1036C58.7578 54.1262 59.5963 53.9752 60.3784 53.66C61.1604 53.3448 61.8693 52.8721 62.4609 52.2714C63.0526 51.6706 63.5144 50.9546 63.8177 50.1679C64.121 49.3811 64.2592 48.5404 64.2238 47.698C64.1885 46.8555 63.9802 46.0294 63.6121 45.2708C63.2439 44.5122 62.7237 43.8375 62.0838 43.2885C61.4438 42.7394 60.6978 42.3279 59.8921 42.0793C59.0864 41.8308 58.2382 41.7506 57.4002 41.8437C55.8342 41.9932 54.3852 42.7376 53.3517 43.9237C52.3183 45.1097 51.7791 46.647 51.8454 48.2187C51.9116 49.7904 52.5782 51.2768 53.7078 52.3717C54.8373 53.4666 56.3438 54.0865 57.9169 54.1036H57.9149Z" fill="#885AC6"/>
<path d="M60.6354 24.9763C60.5879 25.0142 60.5383 25.0492 60.4897 25.087C60.5373 25.0492 60.5869 25.0152 60.6354 24.9763Z" fill="white"/>
<path d="M41.7439 82.8407C43.5299 83.1864 45.3705 83.1291 47.1315 82.6731C48.8926 82.217 50.5296 81.3738 51.9234 80.2048C52.3391 79.8561 52.7538 79.5016 53.1375 79.1199C61.4532 70.8145 69.7635 62.5027 78.0682 54.1843C79.0401 53.1854 79.6379 51.8819 79.7611 50.4936C79.9262 49.0562 80.1971 47.6304 80.406 46.1969C80.5662 45.0906 80.6973 43.9805 80.8527 42.8743C81.0615 41.4174 81.2888 39.9606 81.5015 38.5037C81.5724 38.0181 81.6161 37.5266 81.6763 37.0391C81.6967 36.874 81.7307 36.7098 81.789 36.3738C82.7806 37.7034 83.6713 38.899 84.5599 40.0907C84.688 40.3 84.8325 40.4988 84.9921 40.6851C85.3512 41.0736 85.6221 41.5351 85.7864 42.038C85.9507 42.5408 86.0044 43.0733 85.944 43.5988C85.9333 55.1012 85.944 66.6016 85.9294 78.104C85.9819 79.2034 85.7977 80.3012 85.3894 81.3233C84.981 82.3454 84.358 83.268 83.5625 84.0285C82.2329 85.3395 80.4499 86.0886 78.5829 86.1206C68.1583 86.1394 57.7337 86.1374 47.3091 86.1148C45.8719 86.0518 44.5019 85.4888 43.4358 84.5229C42.8239 84.0179 42.3023 83.404 41.741 82.8407H41.7439Z" fill="#DFD2EF"/>
<path d="M34.7072 45.9881C36.1058 45.9939 36.7235 46.6806 36.7148 48.2219C36.6575 48.7247 36.4113 49.1869 36.0262 49.515C35.6411 49.8432 35.1457 50.0128 34.6402 49.9896C34.1025 49.9616 33.5949 49.7326 33.218 49.348C32.8411 48.9634 32.6225 48.4513 32.6055 47.9131C32.6085 47.646 32.6664 47.3823 32.7754 47.1385C32.8844 46.8946 33.0423 46.6757 33.2393 46.4952C33.4363 46.3148 33.6682 46.1767 33.9207 46.0895C34.1732 46.0023 34.4409 45.9678 34.7072 45.9881Z" fill="#DFD2EF"/>
<path d="M58.0188 45.988C58.3015 45.966 58.5857 46.0062 58.8513 46.1057C59.1169 46.2052 59.3575 46.3617 59.5561 46.5642C59.7548 46.7666 59.9067 47.0101 60.0011 47.2775C60.0956 47.545 60.1304 47.8298 60.103 48.1121C60.0422 48.6489 59.7787 49.1422 59.3664 49.4913C58.9542 49.8404 58.4242 50.019 57.8847 49.9905C57.3659 49.9311 56.8858 49.6865 56.5328 49.3017C56.1797 48.9169 55.9773 48.4176 55.9626 47.8956C55.9713 47.6349 56.0314 47.3786 56.1397 47.1414C56.2479 46.9041 56.402 46.6907 56.5932 46.5133C56.7843 46.336 57.0088 46.1982 57.2534 46.1081C57.4981 46.0179 57.7582 45.9771 58.0188 45.988Z" fill="#DFD2EF"/>
</svg>
