<svg width="72" height="73" viewBox="0 0 72 73" fill="none" xmlns="http://www.w3.org/2000/svg">
<g clip-path="url(#clip0_1_1516)">
<g clip-path="url(#clip1_1_1516)">
<mask id="mask0_1_1516" style="mask-type:luminance" maskUnits="userSpaceOnUse" x="1" y="14" width="71" height="51">
<path d="M71.4285 14.542H1.26709V64.528H71.4285V14.542Z" fill="white"/>
</mask>
<g mask="url(#mask0_1_1516)">
<path d="M71.4208 39.1239V38.9348C71.4208 38.1572 71.4256 37.3529 71.4002 36.5665C71.3419 34.8585 70.7483 33.212 69.7034 31.8597C68.6584 30.5074 67.2149 29.5177 65.5769 29.0304C65.3227 28.9578 65.0576 28.8934 64.7856 28.8365H64.0697L64.5664 28.2686C65.2878 27.4904 65.8489 26.5777 66.2175 25.5826C66.5862 24.5876 66.7552 23.5296 66.7149 22.4692C66.6981 21.3485 66.4425 20.2442 65.9653 19.23C65.488 18.2158 64.8 17.315 63.9471 16.5877C62.8269 15.6069 61.4583 14.9537 59.9913 14.6995C58.5243 14.4454 57.0157 14.6002 55.6309 15.147C54.2461 15.6938 53.0387 16.6115 52.1411 17.7993C51.2435 18.9872 50.6904 20.3993 50.5425 21.8807C50.4234 23.034 50.5489 24.1995 50.911 25.3009C51.2731 26.4024 51.8635 27.415 52.6437 28.2727L53.0061 28.6968L52.4669 28.829C51.2538 29.0637 50.1075 29.5633 49.1099 30.2923C48.3961 30.8212 48.1083 31.0425 48.0967 31.2631V31.2748C48.0967 31.4933 48.3844 31.7646 48.9764 32.2983L49.0106 32.3278C49.0243 32.3394 49.038 32.3531 49.0538 32.3641C49.1035 32.4066 49.1505 32.4524 49.1942 32.5011C49.312 32.6491 49.4121 32.7196 49.5025 32.7244C49.6395 32.7361 49.7902 32.6039 49.8923 32.5059C50.904 31.489 52.2773 30.9143 53.7117 30.9076C56.3836 30.8802 59.9084 30.8548 63.5216 30.9076C64.8609 30.952 66.145 31.4521 67.1616 32.325C68.1783 33.1979 68.8668 34.3916 69.1134 35.7087C69.2349 36.4652 69.276 37.2325 69.236 37.9976C69.2312 38.2415 69.2271 38.4875 69.2292 38.7341C69.2381 39.9673 69.2408 40.6441 68.9257 41.0634C68.6126 41.4745 68.0392 41.6314 66.7724 41.9499C62.8313 42.8721 58.7611 43.1103 54.7394 42.6542L54.5941 42.6426C55.1568 43.3665 55.6458 44.1448 56.0541 44.9657L56.6069 44.9911C57.292 45.0253 57.9895 45.0411 58.6924 45.0411C61.0707 45.0453 63.4447 44.839 65.7865 44.4245C67.52 44.179 69.1852 43.5824 70.6802 42.6713C70.9222 42.5306 71.12 42.3249 71.251 42.0775C71.382 41.8301 71.4411 41.551 71.4215 41.2717C71.4098 40.5969 71.4098 39.9241 71.4146 39.1219M58.6191 28.6926H58.6054C57.8233 28.6929 57.049 28.5372 56.3277 28.2347C55.6065 27.9321 54.9529 27.4888 54.4051 26.9306C53.4418 25.9557 52.8461 24.6772 52.7191 23.3126C52.5921 21.948 52.9417 20.5816 53.7084 19.4457C54.4752 18.3097 55.6118 17.4745 56.9249 17.082C58.238 16.6895 59.6465 16.764 60.9108 17.2928C62.1752 17.8215 63.2174 18.772 63.8601 19.9824C64.5028 21.1928 64.7064 22.5885 64.4362 23.9321C64.166 25.2757 63.4387 26.4842 62.3781 27.3521C61.3174 28.22 59.9889 28.6937 58.6184 28.6926" fill="#9057CD"/>
<path d="M56.2851 45.4707L56.0604 44.9644C55.6521 44.1434 55.1631 43.3652 54.6004 42.6413L54.51 42.5275C53.066 40.7061 51.1789 39.2854 49.0292 38.4012L48.8771 38.3395L48.8319 38.182C47.9002 35.0634 45.8264 33.1575 42.49 32.3532L41.9419 32.2209L42.316 31.7948C43.7181 30.2778 44.4877 28.2824 44.4672 26.2168C44.4757 25.1207 44.2575 24.0348 43.8265 23.027C43.3955 22.0193 42.7609 21.1115 41.9625 20.3606C40.5812 19.0378 38.7769 18.2459 36.8682 18.1245C34.9596 18.0032 33.0695 18.5603 31.5319 19.6974C29.9467 20.8532 28.8461 22.5554 28.4428 24.4752C28.1536 25.7672 28.1802 27.1098 28.5204 28.3892C28.8605 29.6686 29.5041 30.8472 30.3967 31.825L30.7728 32.2716L30.2014 32.3813C28.5424 32.6837 27.0203 33.4995 25.8498 34.7135C24.6794 35.9275 23.9196 37.4783 23.6779 39.1473C23.5344 40.3161 23.4911 41.4951 23.5484 42.6714C23.5621 43.3305 23.5779 44.0779 23.5484 44.7952C23.5249 45.0868 23.5867 45.3789 23.7264 45.636C23.8661 45.893 24.0775 46.1039 24.3349 46.2428C25.6197 47.0263 27.0397 47.5628 28.5216 47.8247C29.1587 47.9617 29.7931 48.0754 30.4049 48.1672L30.7515 48.2173L30.6906 48.566C30.5493 49.3591 30.478 50.163 30.4775 50.9686C30.4762 53.1833 31.0169 55.3646 32.0524 57.3224C33.0878 59.2801 34.5866 60.9547 36.418 62.2001L36.4906 62.248C38.696 63.7374 41.2969 64.5322 43.9581 64.5301C46.21 64.5169 48.4231 63.9434 50.3979 62.8611C52.3727 61.7789 54.047 60.2221 55.2697 58.3311C56.4925 56.4402 57.2253 54.2745 57.4019 52.0296C57.5786 49.7846 57.1936 47.531 56.2816 45.4721M30.4206 26.1688C30.4407 24.6067 31.0733 23.1149 32.1823 22.0145C33.2913 20.9141 34.7879 20.2932 36.3501 20.2852H36.3858C37.9674 20.3056 39.4766 20.9512 40.5838 22.0808C41.691 23.2104 42.3061 24.7323 42.2947 26.314C42.2842 27.8872 41.6514 29.3923 40.5345 30.5003C39.4177 31.6083 37.9076 32.2291 36.3344 32.2271H36.2871C35.5096 32.2218 34.741 32.0612 34.0264 31.7548C33.3118 31.4483 32.6656 31.0021 32.1258 30.4424C31.5738 29.878 31.1388 29.2099 30.8459 28.4767C30.553 27.7435 30.408 26.9596 30.4193 26.1702M31.3784 46.0873L31.1181 46.053C30.359 45.9482 29.5725 45.8091 28.7791 45.6379C27.913 45.4592 27.0698 45.1834 26.2655 44.8158L26.1751 44.7746C25.9757 44.6883 25.7147 44.5739 25.7264 44.193C25.7538 43.623 25.7401 43.042 25.7264 42.4803V42.4049C25.6657 41.3525 25.7116 40.2966 25.8634 39.2535C26.1051 37.9241 26.7973 36.7185 27.8236 35.8396C28.8499 34.9607 30.1475 34.4621 31.4983 34.4276C32.0539 34.416 32.663 34.4091 33.3659 34.4091C33.8756 34.4091 34.3832 34.4091 34.8847 34.416C35.3609 34.416 35.8439 34.4208 36.3234 34.4208L36.6612 34.416H36.6701C37.0531 34.416 37.436 34.416 37.819 34.416C38.8391 34.416 39.8907 34.4112 40.9423 34.4208C41.9174 34.4067 42.8811 34.6315 43.7492 35.0758C44.6173 35.5201 45.3634 36.1702 45.9223 36.9693L46.3505 37.5962L45.5969 37.503C42.6537 37.1416 39.6736 37.763 37.1203 39.2706C34.5669 40.7783 32.5834 43.0876 31.4784 45.8393L31.3784 46.0873ZM43.9581 61.9082C42.0758 61.9076 40.2263 61.415 38.5931 60.4791C36.92 59.5171 35.5299 58.1311 34.5632 56.4607C33.5964 54.7902 33.087 52.8945 33.0863 50.9645C33.0852 50.2261 33.1605 49.4896 33.3111 48.7667C33.6002 47.313 34.184 45.934 35.0264 44.7145C35.8689 43.4951 36.9521 42.4611 38.2094 41.6762C39.4667 40.8913 40.8713 40.3722 42.3369 40.1509C43.8024 39.9296 45.2977 40.0107 46.7307 40.3893C47.7734 40.6645 48.7684 41.0957 49.6821 41.6684C50.3594 42.0912 50.9886 42.5865 51.5586 43.1455C52.0688 43.6482 52.5294 44.1988 52.9343 44.7897C54.0532 46.4301 54.7049 48.3438 54.8197 50.3261C54.9346 52.3084 54.5082 54.2845 53.5861 56.0431C52.6641 57.8017 51.2813 59.2764 49.5855 60.3094C47.8898 61.3424 45.9451 61.8948 43.9595 61.9075" fill="#421C67"/>
<path d="M24.4527 31.009C24.3506 30.9295 24.2534 30.8425 24.1561 30.7562L24.1177 30.7199C24.0273 30.6376 23.9362 30.5582 23.8437 30.4808C22.7999 29.6421 21.5651 29.0745 20.249 28.8283L19.6845 28.7077L20.0633 28.27C20.8073 27.4653 21.3803 26.5181 21.7477 25.4856C22.1151 24.4531 22.2693 23.3568 22.2008 22.263C22.0913 20.1914 21.1935 18.2402 19.6913 16.8094C18.1892 15.3786 16.1966 14.5767 14.1222 14.568C12.0616 14.5617 10.076 15.3408 8.56968 16.7469C7.06334 18.1529 6.14945 20.0802 6.01405 22.1363C5.87464 24.3881 6.63257 26.6035 8.12209 28.298L8.4941 28.7427L7.92753 28.8523C6.27258 29.1562 4.75483 29.9721 3.58843 31.1848C2.42204 32.3975 1.66588 33.9459 1.42665 35.6114C1.26573 36.9478 1.21989 38.2956 1.28963 39.6398C1.30539 40.2667 1.32388 40.9573 1.31018 41.6266C1.31886 41.8232 1.37816 42.0142 1.48234 42.1812C1.58652 42.3481 1.73206 42.4854 1.90485 42.5796C2.73888 43.1631 3.66868 43.596 4.65208 43.8586C7.59778 44.675 10.6436 45.0732 13.7001 45.0418C15.7345 45.0339 17.7667 44.9054 19.7859 44.6568C20.5518 44.5677 20.9012 44.5088 21.0437 44.3142C21.1862 44.1197 21.1252 43.7463 20.9752 42.9194L20.9615 42.8467C20.8731 42.3747 20.7642 42.2925 20.3065 42.3672C17.0184 42.8819 13.6794 42.9891 10.3651 42.6864C8.23533 42.563 6.13723 42.1127 4.14443 41.3512C3.92882 41.2982 3.74008 41.1681 3.61385 40.9855C3.48762 40.8028 3.43266 40.5803 3.45933 40.3598C3.48879 39.7076 3.48399 39.0424 3.47988 38.4018V38.1079C3.47988 37.6654 3.47509 37.205 3.48468 36.7535C3.49907 35.2079 4.11825 33.7294 5.20955 32.6347C6.30086 31.5401 7.77749 30.9164 9.32307 30.8973C12.269 30.8651 15.2183 30.8788 18.0717 30.8925H18.9124C20.0321 30.9205 21.1224 31.2564 22.0638 31.8633C22.2253 31.9729 22.3703 32.1048 22.4947 32.2552L22.5105 32.2737C22.7893 32.5813 22.9777 32.7614 23.2497 32.6792C23.5363 32.5567 23.7873 32.3637 23.9793 32.1181L24.0204 32.075C24.1528 31.9306 24.2952 31.7958 24.4466 31.6715C24.6644 31.5098 24.6959 31.3933 24.6959 31.3364C24.6959 31.2433 24.6192 31.1357 24.4555 31.0062M14.1105 28.6899H14.0989C13.3166 28.6902 12.5422 28.5347 11.8207 28.2326C11.0992 27.9304 10.4451 27.4875 9.89649 26.9299C8.93277 25.9554 8.33637 24.6772 8.20872 23.3127C8.08108 21.9481 8.43008 20.5814 9.19636 19.4451C9.96263 18.3089 11.0989 17.4731 12.4118 17.08C13.7248 16.6869 15.1333 16.7608 16.398 17.2891C17.6626 17.8173 18.7052 18.7674 19.3484 19.9776C19.9916 21.1878 20.1957 22.5835 19.926 23.9272C19.6564 25.2709 18.9295 26.4797 17.8691 27.348C16.8088 28.2163 15.481 28.6905 14.1105 28.6899Z" fill="#9057CD"/>
<path d="M51.1284 48.1673C51.0705 48.2378 51.0085 48.3048 50.9427 48.368L50.9181 48.3933C49.2362 50.0828 47.9852 51.2707 46.7636 52.4258C45.5599 53.5658 44.3158 54.7442 42.6531 56.4172C42.5438 56.5609 42.402 56.6767 42.2393 56.7551C42.0766 56.8334 41.8977 56.8721 41.7172 56.8679C41.5366 56.8637 41.3597 56.8167 41.2008 56.7309C41.042 56.645 40.9057 56.5227 40.8033 56.374C40.8033 56.374 37.7252 53.017 36.9209 52.134C36.8043 52.0232 36.7121 51.8893 36.65 51.7409C36.588 51.5926 36.5575 51.4329 36.5605 51.2721C36.5583 51.0656 36.6163 50.8629 36.7273 50.6888C36.8384 50.5147 36.9978 50.3768 37.186 50.2917C37.3375 50.2167 37.504 50.1769 37.6731 50.1753C37.9281 50.1793 38.1739 50.271 38.3692 50.4349C38.4397 50.493 38.5051 50.5572 38.5644 50.6267L39.1694 51.2858C39.9604 52.1477 40.7508 53.0116 41.5405 53.8775L41.7782 54.142L42.0296 53.8892C43.4601 52.4621 44.5323 51.4502 45.5702 50.4699C46.6718 49.4326 47.8098 48.3591 49.3711 46.7909C49.482 46.6616 49.6183 46.5564 49.7715 46.4819C49.9247 46.4074 50.0915 46.3652 50.2617 46.3579C50.3272 46.3584 50.3926 46.3646 50.457 46.3764C50.6481 46.4084 50.8276 46.49 50.9774 46.6129C51.1273 46.7358 51.2423 46.8958 51.3111 47.077C51.3799 47.2582 51.4001 47.4542 51.3696 47.6456C51.3391 47.837 51.259 48.0171 51.1373 48.1679" fill="#421C67"/>
</g>
</g>
</g>
<defs>
<clipPath id="clip0_1_1516">
<rect width="71.25" height="71.25" fill="white" transform="translate(0.379883 0.840088)"/>
</clipPath>
<clipPath id="clip1_1_1516">
<rect width="71.25" height="71.25" fill="white" transform="translate(0.379883 0.840088)"/>
</clipPath>
</defs>
</svg>
