<svg width="72" height="73" viewBox="0 0 72 73" fill="none" xmlns="http://www.w3.org/2000/svg">
<g clip-path="url(#clip0_1_1481)">
<mask id="mask0_1_1481" style="mask-type:luminance" maskUnits="userSpaceOnUse" x="10" y="11" width="52" height="52">
<path d="M61.6007 11.1166H10.6562V62.0178H61.6007V11.1166Z" fill="white"/>
</mask>
<g mask="url(#mask0_1_1481)">
<path d="M61.5959 36.7433C61.6125 36.5007 61.5799 36.2572 61.5002 36.0274C61.4205 35.7976 61.2953 35.5863 61.1321 35.406C60.9474 35.2447 60.7327 35.1215 60.5002 35.0434C60.2678 34.9654 60.0222 34.934 59.7776 34.9511H53.6008C51.1221 34.9511 48.6421 34.9511 46.1607 34.9511C45.5898 34.9463 45.0204 35.0077 44.4637 35.134C42.6417 35.5351 41.0323 36.5958 39.9453 38.112C38.8584 39.6283 38.3705 41.493 38.5757 43.3473C38.7809 45.2016 39.6646 46.9145 41.0567 48.1564C42.4489 49.3984 44.2512 50.0816 46.1168 50.0746C48.7079 50.0849 51.1948 50.0828 53.5111 50.0684C53.6382 50.0557 53.7666 50.0684 53.8887 50.106C54.0108 50.1435 54.1242 50.205 54.2222 50.287C54.3024 50.3809 54.363 50.4899 54.4006 50.6075C54.4381 50.7251 54.4517 50.8491 54.4407 50.9721C54.4264 51.9785 54.4284 52.9972 54.4305 53.9865V54.4565C54.4305 55.0929 54.4305 55.7438 54.4264 56.3823C54.436 56.7046 54.3797 57.0254 54.2611 57.3253C54.1425 57.6251 53.964 57.8976 53.7365 58.126C53.5089 58.3545 53.2372 58.5342 52.9379 58.6541C52.6386 58.774 52.318 58.8315 51.9956 58.8233H47.3562C38.8843 58.8294 29.284 58.8356 20.101 58.813C18.4497 58.8064 16.8678 58.1481 15.6992 56.9815C14.5306 55.8148 13.8698 54.234 13.8604 52.5827C13.8419 46.2114 13.8358 39.5885 13.8419 32.5451C13.8461 29.2908 13.8515 25.9396 13.8584 22.4913C13.8808 21.0172 14.4193 19.5976 15.3801 18.4795C16.3409 17.3613 17.6633 16.6153 19.1172 16.3713C20.2024 16.2263 21.2987 16.1831 22.3919 16.2425H22.5084C23.0222 16.2548 23.5546 16.2672 24.0745 16.2528C24.2929 16.2632 24.5112 16.2295 24.7163 16.1539C24.9214 16.0782 25.1092 15.962 25.2685 15.8122C25.4278 15.6624 25.5554 15.4822 25.6435 15.2821C25.7317 15.082 25.7787 14.8662 25.7818 14.6476C25.7786 14.4294 25.7312 14.2142 25.6423 14.0149C25.5535 13.8157 25.4251 13.6365 25.2649 13.4883C25.1048 13.3402 24.9162 13.2261 24.7106 13.153C24.5051 13.0798 24.2868 13.0492 24.0691 13.063C22.8544 13.0548 21.6466 13.0589 20.3695 13.063H20.3428C18.6396 13.0503 16.9636 13.4899 15.4858 14.3367C14.008 15.1836 12.7814 16.4074 11.9312 17.8833C11.0943 19.3575 10.6572 21.0249 10.6631 22.7201C10.6585 28.717 10.6562 34.7145 10.6562 40.7128V52.3765C10.6497 53.0126 10.7103 53.6475 10.8371 54.2708C11.2595 56.4756 12.446 58.4607 14.1879 59.8768C15.9298 61.2929 18.1154 62.0491 20.3599 62.0124C23.98 62.0186 27.6569 62.0186 31.2167 62.0165H36.2788C37.7947 62.0165 39.3099 62.0165 40.8245 62.0165H43.0264C45.9723 62.0165 49.0196 62.0165 52.0011 62.0083C53.3328 62.0309 54.6272 61.5682 55.6427 60.7066C56.6583 59.8449 57.3256 58.6432 57.5202 57.3257C57.6471 56.2989 57.6847 55.263 57.6326 54.2297V54.1715C57.6182 53.5871 57.6038 52.926 57.6244 52.2834C57.6253 52.123 57.6147 51.9627 57.5929 51.8038L57.5867 51.7435C57.5124 51.4945 57.5 51.2312 57.5508 50.9764C57.6015 50.7215 57.7138 50.483 57.8779 50.2815C58.089 50.1499 58.3242 50.0615 58.5697 50.0215C58.8153 49.9815 59.0664 49.9907 59.3083 50.0486C59.4756 50.0669 59.6437 50.0758 59.8119 50.0753C60.0511 50.099 60.2925 50.0696 60.519 49.9891C60.7455 49.9087 60.9514 49.7792 61.122 49.6099C61.2926 49.4407 61.4238 49.2358 61.506 49.01C61.5883 48.7842 61.6197 48.543 61.5979 48.3036C61.6041 44.648 61.6041 40.8655 61.5979 36.742M58.4225 45.9222V45.9681C58.4324 46.0944 58.4171 46.2214 58.3775 46.3418C58.3379 46.4621 58.2747 46.5733 58.1916 46.669C58.0948 46.7541 57.9816 46.8185 57.8589 46.8582C57.7363 46.8979 57.6068 46.9121 57.4785 46.8999H57.4367C56.1309 46.8814 54.7997 46.8834 53.5131 46.8855H53.2117C52.696 46.8855 52.1804 46.8855 51.6647 46.8855H49.2669C48.2648 46.8855 47.2625 46.8841 46.26 46.8814C45.6458 46.89 45.0359 46.7762 44.4662 46.5466C43.8964 46.317 43.378 45.9762 42.9414 45.5441C42.543 45.14 42.2288 44.6607 42.0171 44.1342C41.8054 43.6077 41.7004 43.0443 41.7082 42.4769C41.712 41.89 41.8338 41.3098 42.0666 40.771C42.2994 40.2322 42.6382 39.7458 43.063 39.3408C43.4878 38.9358 43.9898 38.6204 44.539 38.4136C45.0883 38.2067 45.6736 38.1126 46.26 38.1368C47.6699 38.1327 49.0792 38.1327 50.4877 38.1368C52.7671 38.1368 55.1231 38.1368 57.4394 38.1265C57.5742 38.1138 57.7101 38.1278 57.8394 38.1678C57.9688 38.2078 58.0889 38.2729 58.193 38.3595C58.2794 38.4609 58.3442 38.5789 58.3836 38.7062C58.4229 38.8336 58.4359 38.9675 58.4218 39.1001C58.3951 41.3294 58.3951 43.6217 58.4218 45.9209" fill="#421C67"/>
<path d="M57.6011 26.908V26.7628C57.619 26.0142 57.4854 25.2698 57.2083 24.5742C56.9312 23.8786 56.5162 23.2462 55.9885 22.715C55.4607 22.1838 54.831 21.7649 54.1372 21.4833C53.4433 21.2017 52.6997 21.0634 51.9511 21.0765C51.7023 21.0956 51.4545 21.0285 51.2493 20.8866C51.0441 20.7446 50.894 20.5364 50.8241 20.2969C50.0705 18.3587 49.2854 16.3918 48.5283 14.4873L47.7405 12.5142C47.363 11.555 46.9108 11.1166 46.2059 11.1166C45.8316 11.1322 45.4633 11.2153 45.1186 11.3618L24.0177 19.4131C23.6518 19.5501 23.286 19.6871 22.9215 19.8289L22.5721 19.9619C21.6404 20.3133 20.6778 20.6791 19.744 21.0512C19.5391 21.1057 19.3471 21.2003 19.179 21.3294C19.0108 21.4586 18.8699 21.6197 18.7644 21.8036C18.6588 21.9875 18.5908 22.1904 18.5641 22.4008C18.5374 22.6111 18.5526 22.8246 18.6088 23.029C18.7295 23.3941 18.9729 23.7061 19.2977 23.9119C19.6224 24.1177 20.0084 24.2047 20.3901 24.1581C22.8898 24.1686 25.3899 24.1768 27.8905 24.1827L44.5219 24.2286C46.9526 24.235 49.3836 24.2426 51.8147 24.2512H51.8353C52.1788 24.2234 52.5242 24.2701 52.8479 24.3883C53.1716 24.5065 53.4659 24.6933 53.7106 24.9359C53.9553 25.1785 54.1446 25.4712 54.2656 25.7939C54.3865 26.1166 54.4362 26.4616 54.4113 26.8053C54.4113 27.0547 54.4113 27.304 54.4113 27.5541C54.4071 27.924 54.4071 28.2755 54.4113 28.6023C54.4046 29.0245 54.5645 29.4323 54.8563 29.7375C55.1482 30.0427 55.5485 30.2206 55.9705 30.2328H56.0041C56.4284 30.2263 56.8331 30.0529 57.1305 29.7502C57.4279 29.4474 57.594 29.0397 57.5928 28.6153C57.6072 28.0268 57.6052 27.426 57.6011 26.9101M28.964 20.9587L30.9207 20.1934L40.1818 16.6604C41.1154 16.3046 42.0489 15.9497 42.9825 15.5957L44.4171 15.0477C44.437 15.0414 44.4564 15.0338 44.4753 15.0251C44.5676 14.9736 44.6697 14.9421 44.7749 14.9324C44.8802 14.9227 44.9863 14.9351 45.0864 14.9689C45.1765 15.0099 45.2569 15.0697 45.3221 15.1443C45.3873 15.2188 45.4359 15.3064 45.4646 15.4012C45.814 16.3055 46.1654 17.1934 46.5272 18.1066L47.6747 21.0073L28.964 20.9587Z" fill="#9057CD"/>
</g>
</g>
<defs>
<clipPath id="clip0_1_1481">
<rect width="71.25" height="71.25" fill="white" transform="translate(0.379883 0.840088)"/>
</clipPath>
</defs>
</svg>
