<svg width="91" height="91" viewBox="0 0 91 91" fill="none" xmlns="http://www.w3.org/2000/svg">
<mask id="mask0_1_1647" style="mask-type:luminance" maskUnits="userSpaceOnUse" x="14" y="15" width="63" height="61">
<path d="M76.4338 15.7197H14.667V75.3469H76.4338V15.7197Z" fill="white"/>
</mask>
<g mask="url(#mask0_1_1647)">
<path d="M40.9811 61.4021V75.2926C27.4763 73.976 16.1931 62.4478 14.8394 48.8498C14.3512 44.7329 14.7356 40.5594 15.9677 36.6009C17.1997 32.6425 19.2517 28.9879 21.99 25.8753C26.8107 20.2173 33.5913 16.5898 40.9734 15.7197V29.7042C38.7289 30.2174 36.6209 31.2071 34.7925 32.6064C32.964 34.0057 31.4579 35.7817 30.3761 37.8142C28.9728 40.3044 28.2886 43.1353 28.3995 45.9915C28.5212 49.5831 29.8178 53.0355 32.0906 55.8193C34.3633 58.603 37.4865 60.5642 40.9811 61.4021Z" fill="#885AC6"/>
<path d="M71.7007 61.768L61.7246 51.7711C61.6634 51.7099 61.6082 51.6409 61.5521 51.5744C62.1176 50.0469 62.4788 48.4514 62.6262 46.8292C62.8517 44.3285 62.4797 41.8099 61.5409 39.4811C61.5262 39.4405 61.534 39.3853 61.5089 39.356C60.6928 38.3871 61.2208 37.7711 61.9697 37.0429C64.8219 34.2674 67.619 31.435 70.4204 28.6077C70.8181 28.2065 70.9967 28.2013 71.341 28.6983C73.4007 31.7136 74.8825 35.0852 75.7109 38.6416C76.2117 40.5991 76.4467 42.6151 76.4097 44.6352C76.3726 45.806 76.496 46.988 76.3864 48.1501C76.2121 50.6995 75.6578 53.2085 74.742 55.594C73.931 57.5473 72.9371 59.4247 72.0182 61.3331C71.9247 61.4853 71.8188 61.6296 71.7016 61.7645" fill="#DFD2EF"/>
<path d="M55.1711 45.3495C55.1843 47.4281 54.5674 49.4618 53.4017 51.1827C52.2359 52.9036 50.5761 54.2309 48.6409 54.9896C46.7057 55.7482 44.5861 55.9027 42.5614 55.4327C40.5367 54.9626 38.7019 53.89 37.299 52.3563C35.896 50.8227 34.9907 48.8999 34.7024 46.8414C34.4141 44.7829 34.7564 42.6854 35.684 40.8253C36.6117 38.9652 38.0812 37.4299 39.8989 36.4217C41.7165 35.4134 43.7971 34.9797 45.8662 35.1776C48.4052 35.4102 50.766 36.5818 52.4869 38.463C54.2078 40.3443 55.165 42.7999 55.1711 45.3495ZM43.8922 50.4502C43.8688 50.8198 43.8723 51.1906 43.9025 51.5597C43.9142 51.7907 44.0135 52.0086 44.1802 52.1689C44.3469 52.3292 44.5685 52.4199 44.7998 52.4225C45.0413 52.4251 45.2745 52.3347 45.4512 52.1701C45.6279 52.0055 45.7345 51.7792 45.7489 51.5381C45.7885 51.3017 45.6962 51.0343 45.7678 50.816C45.8006 50.7109 45.8551 50.6139 45.9278 50.5313C46.0005 50.4487 46.0897 50.3822 46.1897 50.3363C46.8466 50.1889 47.4348 49.8246 47.8594 49.3022C48.284 48.7797 48.5204 48.1296 48.5304 47.4564C48.548 46.8025 48.339 46.1626 47.9389 45.6452C47.5387 45.1277 46.972 44.7645 46.3347 44.6171C45.7352 44.5244 45.1295 44.4783 44.5229 44.479C44.3537 44.5188 44.1777 44.5201 44.0079 44.4826C43.8382 44.4452 43.679 44.37 43.5422 44.2627C43.4055 44.1554 43.2946 44.0187 43.2178 43.8628C43.1411 43.7068 43.1004 43.5356 43.0988 43.3617C43.0972 43.1879 43.1348 43.016 43.2086 42.8586C43.2825 42.7013 43.3909 42.5626 43.5257 42.4528C43.6604 42.343 43.8182 42.2649 43.9872 42.2244C44.1563 42.1838 44.3323 42.1819 44.5022 42.2186C45.3192 42.2125 46.1371 42.2186 46.9541 42.2186C47.0849 42.2355 47.2177 42.2245 47.3438 42.1863C47.47 42.1482 47.5867 42.0838 47.6861 41.9973C47.7856 41.9108 47.8657 41.8042 47.921 41.6846C47.9763 41.565 48.0057 41.435 48.0072 41.3032C48.0086 41.1714 47.9822 41.0408 47.9295 40.9199C47.8769 40.7991 47.7993 40.6908 47.7017 40.6021C47.6042 40.5134 47.489 40.4464 47.3637 40.4054C47.2384 40.3645 47.1059 40.3505 46.9748 40.3645C46.5831 40.349 46.1906 40.3645 45.7532 40.3645C45.7532 39.9849 45.7394 39.6579 45.7532 39.3292C45.7834 38.7442 45.3675 38.5165 44.9327 38.3801C44.4849 38.2438 44.1735 38.5475 44.0173 38.934C43.9226 39.1975 43.8832 39.4777 43.9017 39.7571C43.9209 39.8431 43.9218 39.9322 43.9042 40.0185C43.8867 40.1049 43.8512 40.1866 43.8 40.2583C43.7488 40.33 43.6831 40.3901 43.6071 40.4347C43.5311 40.4794 43.4466 40.5074 43.359 40.5172C42.7575 40.7002 42.2298 41.0699 41.8524 41.5727C41.475 42.0756 41.2675 42.6856 41.2599 43.3143C41.2361 43.9125 41.4066 44.5023 41.746 44.9954C42.0853 45.4886 42.5753 45.8586 43.1425 46.0501C43.8963 46.2283 44.6679 46.3203 45.4426 46.3245C45.7311 46.3236 46.0112 46.4214 46.2364 46.6018C46.4617 46.7821 46.6184 47.034 46.6806 47.3158C46.7023 47.4509 46.6951 47.589 46.6596 47.7211C46.624 47.8532 46.5609 47.9763 46.4743 48.0823C46.3878 48.1882 46.2798 48.2747 46.1574 48.3359C46.035 48.3971 45.9011 48.4317 45.7644 48.4374C44.7739 48.5694 43.7619 48.5495 42.7594 48.5883C42.525 48.6024 42.3016 48.6926 42.1232 48.8452C41.9447 48.9978 41.821 49.2045 41.7707 49.4339C41.7962 49.678 41.8992 49.9075 42.0645 50.089C42.2298 50.2704 42.4488 50.3943 42.6895 50.4424C43.0622 50.4674 43.4375 50.4476 43.8974 50.4476" fill="#885AC6"/>
<path d="M48.4536 75.2478V61.3625C51.0556 60.7277 53.465 59.472 55.4756 57.7026L65.318 67.5459C63.6883 68.7538 62.2302 69.9737 60.6418 70.9892C58.0202 72.6848 55.1332 73.9294 52.1005 74.6714C50.9332 74.9527 49.7288 75.0778 48.5408 75.2754L48.5071 75.2296L48.4536 75.2478Z" fill="#885AC6"/>
<path d="M48.4459 15.7688C54.1931 16.4625 59.6117 18.8231 64.0334 22.5596L54.2919 32.3088C53.267 31.7756 52.2127 31.1872 51.123 30.6756C50.428 30.3546 49.7063 30.0948 48.9661 29.8991C48.602 29.8008 48.4381 29.6877 48.439 29.3055C48.445 24.839 48.439 20.3734 48.439 15.7714" fill="#DFD2EF"/>
<path d="M48.4535 75.2486L48.507 75.2288L48.5406 75.2745L48.4414 75.347L48.4543 75.2486" fill="#885AC6"/>
</g>
</svg>
