<svg width="72" height="72" viewBox="0 0 72 72" fill="none" xmlns="http://www.w3.org/2000/svg">
<g clip-path="url(#clip0_1_1442)">
<g clip-path="url(#clip1_1_1442)">
<mask id="mask0_1_1442" style="mask-type:luminance" maskUnits="userSpaceOnUse" x="4" y="10" width="64" height="52">
<path d="M67.8125 10.1814H4.49048V61.5657H67.8125V10.1814Z" fill="white"/>
</mask>
<g mask="url(#mask0_1_1442)">
<path d="M66.0305 36.2973C65.7633 35.5437 65.5352 34.9182 65.3153 34.3256C63.7259 30.0533 62.1152 25.6893 60.7292 21.9356L60.2709 20.6922C59.6817 19.0936 59.0914 17.4951 58.4999 15.8965C58.4248 15.5815 58.2787 15.2879 58.0726 15.038C57.8666 14.7882 57.6062 14.5888 57.3113 14.4551C56.9894 14.4102 56.6614 14.4396 56.3527 14.5412C56.0439 14.6427 55.7625 14.8136 55.53 15.0408C55.1012 15.3649 54.6901 15.6642 54.1948 16.0219C54.0735 16.1123 53.9488 16.2034 53.8242 16.2959L53.583 16.4692C52.3048 17.4882 50.9001 18.3375 49.4039 18.9959L49.0771 19.1514L48.9607 18.8088C48.1112 16.3335 46.5217 14.179 44.4073 12.6369C42.2928 11.0949 39.7556 10.2398 37.1391 10.1875C34.5226 10.1352 31.9532 10.8881 29.7788 12.3444C27.6044 13.8006 25.93 15.8899 24.9823 18.3293L24.8898 18.5691L24.6343 18.5334C24.1454 18.4622 23.6519 18.4269 23.1579 18.4279C20.7183 18.4214 18.3557 19.2812 16.491 20.8542C14.6263 22.4272 13.3806 24.6112 12.976 27.017C12.913 27.3829 12.8702 27.7521 12.8479 28.1227L12.8383 28.3091L12.7698 28.3433C12.7616 28.3481 12.7533 28.3515 12.7472 28.355L12.7115 28.3735L12.6711 28.3926C10.1241 29.6762 7.70701 31.2028 5.45363 32.9513C4.41092 33.7611 4.28965 34.1701 4.73291 35.393C7.7181 43.6456 10.7054 51.8965 13.6947 60.1455C13.7669 60.4489 13.9091 60.7313 14.1097 60.9701C14.3104 61.2089 14.564 61.3976 14.8504 61.5212C15.1471 61.5707 15.4513 61.5501 15.7386 61.461C16.0259 61.3719 16.2883 61.2168 16.5049 61.008C23.6094 55.4757 32.2943 52.3556 41.2951 52.1018C42.1529 52.0723 43.014 52.0175 43.8594 51.938L44.117 51.912L44.1739 52.0833L44.1979 52.1579C44.2417 52.2909 44.2883 52.4217 44.339 52.5532C45.2595 54.918 47.0558 56.8372 49.3547 57.9118C51.6535 58.9864 54.278 59.1339 56.6828 58.3235C59.0875 57.5132 61.0876 55.8073 62.2672 53.5606C63.4468 51.3138 63.7152 48.6989 63.0168 46.2593C62.9777 46.1264 62.9359 45.9955 62.8907 45.8674L62.8051 45.6194L63.0271 45.4824C63.3813 45.2652 63.7553 45.0288 64.139 44.7767C64.3363 44.6472 64.537 44.5212 64.7398 44.3944L64.8631 44.315C66.0282 43.7096 67.0382 42.8438 67.8145 41.7849V40.9354C67.1294 39.3686 66.5471 37.738 66.0333 36.2973M27.6357 19.1055C28.4199 17.2176 29.763 15.615 31.4847 14.5128C33.2063 13.4106 35.224 12.8617 37.2668 12.9398C39.3095 13.0179 41.2795 13.7193 42.912 14.9497C44.5444 16.1801 45.7613 17.8806 46.3991 19.8228L46.558 20.3147L46.284 20.4298C42.4112 22.0502 38.3167 23.0789 34.1379 23.4812C34.0263 23.4928 33.8885 23.5072 33.7365 23.5086C33.4658 23.5264 33.1993 23.5476 32.9349 23.5682L32.8767 23.573C32.8218 23.573 32.7664 23.5812 32.7129 23.586L32.6225 23.5942C32.5286 23.6004 32.4348 23.6086 32.3423 23.6168L32.1368 23.6333L32.0333 23.46C31.873 23.1893 31.6949 22.9228 31.5058 22.6652C30.5334 21.3375 29.2602 20.2592 27.7905 19.5186L27.5219 19.3816L27.6357 19.1055ZM15.9774 26.3209C16.4837 24.8183 17.4497 23.5128 18.7386 22.5893C20.0276 21.6657 21.5743 21.1708 23.1599 21.1745C23.4117 21.1739 23.6632 21.1869 23.9135 21.2135C24.4253 21.261 24.9306 21.363 25.4208 21.5177C26.6268 21.8989 27.7193 22.5736 28.6003 23.4812L29.0538 23.9491L28.4078 24.0286C28.0241 24.0759 27.6501 24.1259 27.2876 24.1759C26.7341 24.2519 26.1675 24.3348 25.6071 24.4205C25.0357 24.5109 24.474 24.6048 23.9368 24.6986C21.3581 25.1569 19.7523 25.5728 19.3213 25.6906L19.2974 25.6954C18.3423 25.9996 17.3907 26.338 16.4727 26.6977C16.4487 26.7073 16.4254 26.7169 16.4042 26.7251C16.359 26.7416 16.3117 26.7594 16.2672 26.7786L15.9774 26.8916L15.9288 26.9108L15.7575 26.9793L15.9774 26.3209ZM53.5556 56.1582C52.1807 56.1574 50.8355 55.7583 49.6826 55.0091C48.5298 54.2599 47.6187 53.1927 47.0595 51.9367C47.0047 51.8188 46.9526 51.6955 46.9088 51.5756C46.6012 50.7693 46.4442 49.9134 46.4457 49.0504C46.4457 48.851 46.4518 48.6729 46.4669 48.492C46.4786 48.355 46.4929 48.2084 46.5142 48.0693C46.6967 46.7597 47.2408 45.5269 48.0853 44.5094C48.9298 43.492 50.0413 42.7302 51.2949 42.3096C52.5486 41.889 53.8946 41.8263 55.1819 42.1285C56.4692 42.4307 57.6467 43.0859 58.5822 44.0204C58.6842 44.1238 58.7815 44.2259 58.8754 44.3328C59.568 45.1144 60.0809 46.0383 60.3778 47.0396C60.4134 47.1625 60.4458 47.2855 60.4751 47.4089C60.7221 48.4531 60.7297 49.5397 60.4972 50.5873C60.2647 51.6348 59.7981 52.6162 59.1325 53.4579C58.4668 54.2995 57.6194 54.9797 56.6536 55.4473C55.6878 55.915 54.6287 56.158 53.5556 56.1582ZM63.5306 41.5259C62.8846 41.9747 62.2207 42.4083 61.5589 42.818L61.3164 42.9667L61.1369 42.7447C61.0718 42.6639 60.9999 42.5844 60.9313 42.5049C60.7582 42.309 60.5781 42.1217 60.3908 41.9432C60.3908 41.9432 60.3908 41.9384 60.3846 41.937C59.0373 40.6452 57.351 39.7621 55.5218 39.3904C53.6926 39.0187 51.7954 39.1735 50.0507 39.837C48.306 40.5005 46.7853 41.6453 45.6652 43.1385C44.5452 44.6317 43.8717 46.4121 43.7231 48.2728C43.7149 48.3783 43.7087 48.4865 43.7053 48.5968L43.6923 48.8804L43.4107 48.9065C42.3358 49.0051 41.2109 49.073 40.3072 49.1285H40.2812C38.3385 49.2115 36.4023 49.4082 34.4825 49.7176C28.4036 50.8103 22.6146 53.1423 17.4757 56.5686C17.2003 56.7867 16.8666 56.9185 16.5166 56.9475C16.4109 56.9469 16.306 56.9301 16.2055 56.8974C16.0009 56.809 15.8198 56.6737 15.6771 56.5024C15.5343 56.3312 15.4337 56.1288 15.3834 55.9116C13.3192 50.1225 11.0516 43.8429 8.25225 36.1596C8.08653 35.8232 8.05507 35.4364 8.16425 35.0777C8.27343 34.719 8.51506 34.4153 8.84006 34.2283C10.6056 32.9823 12.4676 31.879 14.4085 30.9289C14.9477 30.6651 15.4786 30.4192 15.9842 30.1986C18.7764 28.9815 21.6976 28.0851 24.6918 27.5267C25.2748 27.4184 25.8565 27.3212 26.4306 27.2403C27.2027 27.1273 27.9947 27.0348 28.7798 26.9663C29.2025 26.9293 29.63 26.8978 30.0554 26.8594L30.2123 26.8464C30.4178 26.832 30.6124 26.8156 30.8097 26.8012L31.4784 26.7491C31.6257 26.7375 31.773 26.7265 31.9203 26.7135C34.8363 26.559 37.7344 26.1623 40.5847 25.5276C43.1694 24.8883 45.6951 24.0304 48.1344 22.9633C48.7058 22.7125 49.2724 22.4501 49.8198 22.1816C51.518 21.3514 53.1613 20.4131 54.7394 19.3727C54.8367 19.3042 54.9368 19.2432 55.0375 19.1815L55.6335 18.8061L55.9802 18.95C56.1639 19.0299 56.3252 19.1539 56.4499 19.3108C56.5745 19.4678 56.6585 19.653 56.6947 19.8502L56.7091 19.8988C56.712 19.9106 56.7159 19.922 56.7207 19.9331C57.7877 22.8082 58.8539 25.6881 59.9195 28.5728L62.0042 34.216C62.679 36.039 63.3744 37.923 64.0746 39.7652C64.2231 40.0737 64.2492 40.427 64.1474 40.7539C64.0457 41.0808 63.8238 41.3569 63.5265 41.5266" fill="#421C67"/>
<path d="M40.5423 33.8597C39.9794 33.24 39.2935 32.7443 38.5285 32.4043C37.7635 32.0642 36.936 31.8872 36.0988 31.8846H36.0892C34.6097 31.8834 33.1807 32.4228 32.0711 33.4014C31.1778 34.195 30.5404 35.2362 30.24 36.3928C29.9396 37.5494 29.9897 38.7691 30.3838 39.8972C30.778 41.0252 31.4985 42.0107 32.4539 42.7285C33.4092 43.4463 34.5563 43.8639 35.7495 43.9285C36.9427 43.9931 38.1282 43.7016 39.1554 43.0911C40.1826 42.4806 41.0053 41.5786 41.5188 40.4996C42.0324 39.4207 42.2138 38.2134 42.0399 37.0312C41.866 35.849 41.3448 34.7451 40.5423 33.8597ZM38.1643 40.016C37.891 40.2917 37.5667 40.5117 37.2093 40.6634C36.8545 40.8118 36.4737 40.8882 36.0892 40.8881H36.0618C35.2796 40.8713 34.5343 40.5528 33.9816 39.9992C33.4289 39.4455 33.1115 38.6997 33.096 37.9175C33.0947 37.1331 33.4037 36.38 33.9556 35.8226C34.5075 35.2652 35.2575 34.9487 36.0419 34.9422H36.0645C36.4511 34.9368 36.835 35.0078 37.1942 35.151C37.5534 35.2941 37.8808 35.5068 38.1578 35.7766C38.4347 36.0465 38.6557 36.3683 38.8081 36.7237C38.9605 37.0791 39.0414 37.461 39.046 37.8477C39.0501 38.2491 38.9745 38.6474 38.8237 39.0195C38.6728 39.3916 38.4496 39.7301 38.1671 40.0153" fill="#421C67"/>
<path d="M50.3136 33.2589C50.3141 33.6602 50.1576 34.0458 49.8774 34.3333C49.5973 34.6207 49.2159 34.7871 48.8146 34.7969H48.7982C48.6004 34.7991 48.404 34.762 48.2206 34.6879C48.0372 34.6137 47.8703 34.5039 47.7296 34.3648C47.5888 34.2258 47.4771 34.0602 47.4007 33.8776C47.3244 33.6951 47.285 33.4992 47.2848 33.3014V33.2884C47.2803 33.0899 47.3151 32.8925 47.3874 32.7076C47.4596 32.5227 47.5678 32.3539 47.7056 32.2111C47.8435 32.0682 48.0084 31.9541 48.1906 31.8754C48.3728 31.7967 48.5689 31.7549 48.7674 31.7524H48.7838C49.1841 31.7574 49.567 31.9171 49.8521 32.198C50.1373 32.479 50.3027 32.8594 50.3136 33.2596" fill="#421C67"/>
<path d="M24.8693 42.5543C24.8673 42.7574 24.825 42.9582 24.7449 43.1449C24.6648 43.3316 24.5486 43.5006 24.4028 43.6422C24.2621 43.7785 24.0959 43.8858 23.9136 43.9577C23.7314 44.0297 23.5368 44.0649 23.3409 44.0615C22.9382 44.0526 22.5553 43.885 22.2757 43.5951C21.9961 43.3052 21.8424 42.9166 21.8481 42.5138C21.8498 42.3167 21.8905 42.1218 21.9678 41.9404C22.045 41.759 22.1574 41.5946 22.2983 41.4567C22.4392 41.3187 22.6059 41.21 22.789 41.1366C22.972 41.0633 23.1677 41.0268 23.3649 41.0292H23.384C23.5827 41.0284 23.7794 41.0676 23.9626 41.1444C24.1457 41.2213 24.3115 41.3343 24.4501 41.4766C24.5886 41.6189 24.6971 41.7877 24.769 41.9728C24.8409 42.158 24.8755 42.3557 24.8693 42.5543Z" fill="#421C67"/>
<path d="M49.0784 19.1493L46.5579 20.314L46.399 19.8221C45.7612 17.8799 44.5443 16.1794 42.9118 14.949C41.2794 13.7186 39.3094 13.0172 37.2667 12.9391C35.2239 12.861 33.2062 13.4099 31.4846 14.5121C29.7629 15.6143 28.4198 17.2169 27.6356 19.1048L27.5198 19.3843L27.7883 19.5213C29.258 20.2619 30.5312 21.3403 31.5036 22.668C31.6927 22.9256 31.8708 23.1928 32.0311 23.4627L32.1346 23.636L32.3401 23.6196C32.4326 23.6113 32.5265 23.6031 32.6203 23.597C31.6249 23.6908 29.0578 23.9512 29.0578 23.9512L28.6043 23.4832C27.7233 22.5756 26.6308 21.9009 25.4248 21.5198C24.9346 21.365 24.4293 21.2631 23.9175 21.2156C23.6672 21.189 23.4157 21.1759 23.1639 21.1765C21.5783 21.1728 20.0316 21.6678 18.7426 22.5913C17.4537 23.5149 16.4877 24.8203 15.9814 26.323L15.7594 26.982L15.9307 26.9135C14.766 27.3862 13.3273 28.0782 12.8423 28.3104L12.8519 28.1241C12.8742 27.7534 12.917 27.3843 12.98 27.0183C13.3831 24.6117 14.6278 22.4264 16.4923 20.852C18.3567 19.2777 20.7196 18.4167 23.1598 18.4224C23.6539 18.4214 24.1473 18.4567 24.6362 18.5279L24.8918 18.5636L24.9842 18.3238C25.932 15.8844 27.6064 13.7951 29.7808 12.3389C31.9552 10.8826 34.5246 10.1297 37.1411 10.182C39.7576 10.2343 42.2948 11.0894 44.4092 12.6314C46.5237 14.1735 48.1132 16.328 48.9626 18.8033L49.0784 19.1493Z" fill="#9057CD"/>
</g>
</g>
</g>
<defs>
<clipPath id="clip0_1_1442">
<rect width="71.25" height="71.25" fill="white" transform="translate(0.379883 0.590027)"/>
</clipPath>
<clipPath id="clip1_1_1442">
<rect width="71.25" height="71.25" fill="white" transform="translate(0.379883 0.590027)"/>
</clipPath>
</defs>
</svg>
