<svg width="91" height="91" viewBox="0 0 91 91" fill="none" xmlns="http://www.w3.org/2000/svg">
<mask id="mask0_1_1670" style="mask-type:luminance" maskUnits="userSpaceOnUse" x="8" y="10" width="74" height="70">
<path d="M81.4586 10.543H8.62769V79.7943H81.4586V10.543Z" fill="white"/>
</mask>
<g mask="url(#mask0_1_1670)">
<path d="M67.7062 46.7918C59.3279 46.7918 53.9512 53.2306 53.9512 63.293C53.9375 65.2142 54.16 67.1298 54.6138 68.9967C55.097 68.9475 55.5793 68.9035 56.0607 68.8526C58.2142 68.6414 60.2685 67.8435 61.9999 66.5456C62.2432 66.3639 62.4819 66.1712 62.716 65.9676C62.6122 65.0799 62.5618 64.1867 62.565 63.293C62.565 57.6471 64.307 54.4376 67.4647 54.2832C67.6137 53.8215 67.8079 53.3756 68.0444 52.9519C68.4007 52.31 68.8323 51.7128 69.33 51.1729C70.2149 50.217 70.9804 49.1569 71.6094 48.0161C71.7189 47.8116 71.8199 47.6071 71.9148 47.4009C70.5498 46.9882 69.1305 46.7828 67.7045 46.7918M72.8224 41.3728C72.8224 41.3443 72.8164 41.3133 72.8121 41.2822C72.5993 39.0002 71.7198 36.8312 70.2833 35.0453C69.4766 34.0419 68.6242 33.0661 67.9098 31.9989C67.7461 31.7531 67.6084 31.4908 67.4992 31.2164C67.1547 30.1369 66.9915 29.0078 67.016 27.8749C67.0171 27.8631 67.0171 27.8513 67.016 27.8395C67.0039 27.5919 66.9893 27.346 66.9643 27.1027C66.7538 24.7415 65.8084 22.5057 64.2612 20.7097C63.4752 19.7757 62.5567 18.9618 61.5349 18.2939C61.4486 18.2404 61.3701 18.1869 61.2856 18.1326C59.275 16.9284 56.9738 16.2963 54.6302 16.3044C54.506 16.3044 54.3809 16.2958 54.2523 16.288H54.2463C53.3553 16.242 52.4835 16.0123 51.6856 15.6133C50.5471 14.9244 49.4749 14.1313 48.483 13.2442C47.4602 12.4115 46.3086 11.7509 45.0734 11.2883C45.0614 11.2831 45.049 11.2787 45.0363 11.2754C43.2484 10.6366 41.3401 10.4066 39.4516 10.6024C38.6627 10.6715 37.8825 10.818 37.1222 11.0398C37.0273 11.0683 36.9341 11.0976 36.8418 11.1261L36.803 11.1382C36.7348 11.1606 36.6666 11.1839 36.5985 11.2081C36.5303 11.2322 36.4622 11.2555 36.394 11.2805C36.0782 11.4002 35.7694 11.5316 35.4674 11.6748L35.2405 11.7861L35.0317 11.8914L34.9101 11.9578C34.8479 11.9906 34.7884 12.026 34.7263 12.0613C34.6642 12.0967 34.5779 12.1476 34.5037 12.189C33.5996 12.7329 32.7622 13.3807 32.0086 14.119C31.7266 14.3921 31.4259 14.6452 31.1087 14.8765C30.3657 15.4148 29.5303 15.8123 28.6438 16.049C27.9758 16.2284 27.2901 16.3337 26.5991 16.3631C25.2974 16.4144 24.0066 16.6224 22.7546 16.9825C22.4328 17.0818 22.1188 17.1913 21.8133 17.3147L21.6934 17.3639C20.0355 18.0669 18.5721 19.1603 17.4279 20.5509C17.3037 20.6933 17.1846 20.8399 17.069 20.9823C17.0172 21.0487 16.9655 21.116 16.918 21.1825C16.8171 21.3162 16.7196 21.4525 16.623 21.5914C16.5772 21.6596 16.5298 21.7251 16.4866 21.7933C16.4435 21.8615 16.3961 21.9296 16.3546 21.9978C16.3279 22.0392 16.3029 22.084 16.2779 22.122C16.2287 22.1988 16.183 22.2747 16.1372 22.3532C16.0035 22.5862 15.8784 22.8217 15.7576 23.0633C15.7248 23.1254 15.6955 23.1892 15.6644 23.2531C15.6256 23.3333 15.5877 23.4144 15.5531 23.4964C15.5244 23.5585 15.4976 23.6203 15.4729 23.6819C15.4108 23.8242 15.353 23.9709 15.3004 24.1133C15.2477 24.2556 15.1934 24.4066 15.1416 24.5524C14.7032 25.901 14.4547 27.3041 14.4031 28.7213C14.3824 29.1777 14.3763 29.6375 14.3168 30.0896C14.2886 30.2932 14.2479 30.4949 14.1952 30.6935C13.7646 32.3173 12.6051 33.4923 11.5361 34.7278C10.4118 36.0178 9.57865 37.5349 9.09359 39.1759C8.60852 40.817 8.48289 42.5432 8.72524 44.2372C9.1003 47.0496 10.4326 49.6469 12.4981 51.5922C12.7963 51.889 13.0663 52.2128 13.3048 52.5594C13.7852 53.2432 14.1035 54.0274 14.2357 54.8526C14.4479 56.2184 14.4894 57.6134 14.7309 58.974C14.9948 60.5277 15.5688 62.0123 16.4188 63.3394C17.2687 64.6665 18.3771 65.8088 19.678 66.6983C21.1319 67.7352 22.7971 68.4379 24.5543 68.756L24.5574 68.7566L24.5604 68.756C25.2801 68.8895 26.0084 68.9717 26.7397 69.0019C26.9485 69.0105 27.1564 69.0166 27.3669 69.0183C28.2293 69.0113 29.0822 69.1989 29.862 69.567L29.8741 69.573C30.129 69.6999 30.3726 69.8483 30.6023 70.0165C31.3658 70.5756 32.0802 71.2028 32.8187 71.7955C33.1224 72.0414 33.4296 72.2804 33.7453 72.5073C35.5874 73.8559 37.7863 74.6311 40.0668 74.7358C42.3839 74.8606 44.6884 74.3219 46.7101 73.1828C46.7447 73.163 46.7804 73.1451 46.817 73.1294L46.8291 73.1233C47.8151 72.5389 48.7275 71.8385 49.5468 71.0372C50.0225 70.5743 50.5585 70.1778 51.1403 69.8586C51.4523 69.6886 51.78 69.5491 52.1187 69.4419C52.2593 69.3988 52.4034 69.3556 52.5501 69.3246C52.1163 67.3442 51.9031 65.322 51.9142 63.2947C51.9142 51.7398 58.0864 44.3476 67.708 44.3476C69.3802 44.3364 71.0443 44.582 72.6421 45.0758C72.8911 43.8583 72.9531 42.6099 72.8259 41.3737M30.9388 36.3584C30.9238 35.8802 31.007 35.4039 31.183 34.959C31.3591 34.5141 31.6244 34.11 31.9626 33.7715C32.3008 33.433 32.7047 33.1673 33.1494 32.9908C33.5941 32.8143 34.0703 32.7307 34.5486 32.7452C34.7211 32.7532 34.8862 32.7676 35.0438 32.7883C35.0973 32.7883 35.149 32.8004 35.2008 32.809C35.2811 32.8211 35.3622 32.8358 35.4398 32.8522C35.4873 32.8608 35.5347 32.8712 35.5804 32.8832C35.6229 32.8914 35.665 32.9018 35.7064 32.9143C35.7461 32.9225 35.7852 32.9328 35.8237 32.9454C35.8755 32.96 35.9247 32.9764 35.9747 32.9928C36.0248 33.0092 36.092 33.0316 36.1473 33.0549C36.3183 33.1192 36.4839 33.1971 36.6425 33.2879C36.6899 33.3146 36.7374 33.3414 36.7848 33.3741C36.8323 33.4052 36.8798 33.4363 36.9255 33.4708C36.9712 33.5053 37.0118 33.5286 37.0471 33.5571C37.1006 33.5985 37.1507 33.6433 37.1998 33.6873C37.2326 33.7158 37.2663 33.7469 37.2965 33.7779C37.3814 33.8604 37.4607 33.9486 37.5337 34.0419C37.5888 34.1094 37.6404 34.1796 37.6882 34.2524C37.7235 34.3042 37.758 34.3577 37.7891 34.4138C37.8202 34.4699 37.8383 34.5001 37.859 34.5415C37.8625 34.5446 37.8646 34.5489 37.865 34.5535C37.89 34.5967 37.9108 34.6398 37.9315 34.6873C37.9522 34.7347 37.9703 34.7735 37.991 34.8193C37.991 34.8314 38.0013 34.8443 38.0057 34.8564C38.0203 34.8952 38.0367 34.9366 38.0514 34.978C38.066 35.0194 38.0868 35.079 38.1031 35.1307C38.1195 35.1825 38.1342 35.2343 38.1489 35.2878C38.1786 35.3952 38.2028 35.504 38.2213 35.6139C38.2317 35.67 38.2421 35.7252 38.2498 35.7864V35.7925C38.2559 35.8296 38.2619 35.8667 38.2662 35.9038C38.2662 35.9245 38.2662 35.9452 38.2722 35.9676C38.2783 36.0107 38.2826 36.0539 38.2843 36.0996C38.2861 36.1453 38.293 36.2006 38.2964 36.2523C38.2999 36.3041 38.2964 36.3662 38.3024 36.4249C38.3068 36.5653 38.3027 36.7059 38.2904 36.8459C38.2904 36.8916 38.2817 36.9391 38.274 36.9865C38.2662 37.034 38.2593 37.0901 38.2515 37.141C38.2232 37.3048 38.1825 37.4664 38.1299 37.6241C38.1135 37.6776 38.0945 37.7276 38.0738 37.7785C38.0531 37.8295 38.035 37.8778 38.0117 37.9269C37.9884 37.9761 37.9686 38.0236 37.9435 38.0736C37.9185 38.1237 37.8961 38.1668 37.8711 38.2117C37.846 38.2574 37.8193 38.3022 37.7926 38.3454C37.7658 38.3885 37.7365 38.4317 37.7063 38.4774C37.6761 38.5231 37.6467 38.5637 37.6157 38.6051C37.5536 38.6914 37.4854 38.7681 37.4155 38.8466C37.3802 38.8837 37.3456 38.9234 37.3085 38.9605C37.2714 38.9976 37.2594 39.0097 37.2343 39.033C37.1854 39.0826 37.1338 39.1295 37.0799 39.1736C37.0428 39.2064 37.0057 39.2375 36.966 39.2685C36.7202 39.4643 36.4513 39.6291 36.1654 39.7594C36.1283 39.7784 36.0912 39.7948 36.0515 39.8112C35.994 39.8359 35.9365 39.8587 35.8789 39.8794C35.8315 39.8984 35.7823 39.9165 35.7323 39.9311C35.6822 39.9458 35.652 39.9579 35.6106 39.97C35.554 39.9888 35.4964 40.0047 35.4381 40.0174C35.3889 40.0295 35.3389 40.0424 35.2897 40.0528C35.1917 40.075 35.0926 40.0923 34.9929 40.1046C34.9394 40.1132 34.8859 40.1192 34.8341 40.1235C34.7824 40.1278 34.7332 40.1322 34.6814 40.1339C34.672 40.1349 34.6624 40.1349 34.653 40.1339C34.6038 40.1339 34.5537 40.1339 34.5063 40.1339C34.4588 40.1339 34.389 40.1339 34.3286 40.1278C34.2679 40.1254 34.2075 40.12 34.1474 40.1115C34.0982 40.1054 34.0482 40.0994 34.0007 40.0907C33.9533 40.0821 33.9205 40.0761 33.8791 40.0683C33.8377 40.0606 33.8049 40.0519 33.7695 40.0459C33.716 40.0312 33.6625 40.0191 33.6107 40.0027C33.559 39.9864 33.4969 39.97 33.4382 39.9493L33.3045 39.9001C33.2717 39.888 33.238 39.8733 33.2052 39.8587L33.1474 39.8336C33.1043 39.8152 33.0609 39.7945 33.0172 39.7715C32.9654 39.7465 32.9162 39.7198 32.8645 39.6913C32.7782 39.6421 32.6919 39.5903 32.6056 39.5343C32.5625 39.5058 32.5194 39.4765 32.4754 39.4437C32.3178 39.3318 32.1695 39.2074 32.0319 39.0718C31.9905 39.033 31.9456 38.9916 31.9102 38.9476C31.9064 38.9459 31.9033 38.9428 31.9016 38.939C31.8957 38.9345 31.8907 38.929 31.8869 38.9226C31.7808 38.8082 31.6816 38.6875 31.5902 38.5611C31.5591 38.5179 31.528 38.4748 31.4996 38.4291C31.4711 38.3833 31.44 38.3385 31.4133 38.291C31.3865 38.2436 31.3572 38.1979 31.3331 38.1504C31.3089 38.1029 31.2813 38.0555 31.2589 38.0063C31.2364 37.9571 31.22 37.9261 31.2028 37.8847C31.1717 37.8148 31.1432 37.744 31.1165 37.6742C31.1018 37.6371 31.0898 37.5982 31.0777 37.5585C31.0656 37.5189 31.0492 37.4654 31.0363 37.4205C31.0233 37.3756 31.0112 37.3299 31.0009 37.2825C30.9905 37.235 30.9802 37.1876 30.9724 37.1384C30.9265 36.8776 30.9146 36.6119 30.937 36.3481M38.2636 48.6373C37.2956 49.6093 36.3256 50.5805 35.3535 51.5508C34.9825 51.9999 34.4685 52.3081 33.8975 52.4238C33.3266 52.5396 32.7332 52.4559 32.2165 52.1867C31.8054 51.9667 31.4664 51.6327 31.2402 51.2249C31.014 50.8171 30.9103 50.3527 30.9414 49.8874C30.9273 49.5679 30.9896 49.2496 31.1232 48.959C31.2567 48.6683 31.4576 48.4137 31.7092 48.2162C32.3241 47.6014 32.9384 46.9877 33.5521 46.3751C34.7801 45.1471 36.0092 43.9205 37.2395 42.6954C37.5803 42.3546 37.9185 42.0164 38.2593 41.6782C39.1485 40.789 40.0366 39.9004 40.9235 39.0123C41.677 38.2571 42.4302 37.501 43.1831 36.7441C44.2684 35.6547 45.3506 34.5619 46.4297 33.4656C46.6593 33.2273 46.9343 33.0374 47.2385 32.907C47.5426 32.7765 47.8698 32.7083 48.2007 32.7062C48.5317 32.7041 48.8597 32.7683 49.1654 32.8948C49.4712 33.0214 49.7486 33.2079 49.9812 33.4433C50.2138 33.6787 50.397 33.9582 50.52 34.2655C50.6429 34.5727 50.7032 34.9014 50.6972 35.2323C50.6912 35.5632 50.6191 35.8896 50.4851 36.1921C50.3511 36.4947 50.1579 36.7675 49.9169 36.9943C49.007 37.8962 48.0977 38.7995 47.1889 39.7042C47.1889 39.7042 47.1889 39.7042 47.1829 39.7042C47.0155 39.8716 46.8481 40.0364 46.6833 40.2038C46.6833 40.2038 46.6773 40.2098 46.6747 40.2124C46.5884 40.2987 46.5021 40.385 46.4159 40.4712C45.3363 41.5508 44.2575 42.6307 43.1796 43.7109C41.5433 45.3513 39.904 46.9926 38.2619 48.6347M47.0379 52.4999C46.5433 52.509 46.052 52.4182 45.5934 52.2327C45.1348 52.0472 44.7185 51.7709 44.3694 51.4204C44.0203 51.07 43.7456 50.6525 43.5619 50.1932C43.3782 49.7339 43.2893 49.2422 43.3004 48.7477C43.2963 48.583 43.3027 48.4181 43.3194 48.2542C43.3298 48.1636 43.3418 48.0747 43.3582 47.9859C43.3582 47.9652 43.3669 47.9445 43.3686 47.9238C43.391 47.8099 43.4203 47.7012 43.4549 47.5916C43.5258 47.3573 43.6212 47.1312 43.7396 46.9169C43.7597 46.8773 43.7819 46.8387 43.806 46.8013C43.8927 46.6555 43.9899 46.5163 44.0968 46.3846C44.1321 46.3415 44.1692 46.2983 44.2063 46.2569C44.2806 46.1732 44.3592 46.0934 44.4419 46.0179C44.4833 45.9791 44.5281 45.9411 44.5678 45.9066C44.6075 45.8721 44.6627 45.8281 44.7119 45.791C44.7887 45.7332 44.8689 45.6771 44.9509 45.6262L45.0001 45.5952C45.0392 45.5704 45.0783 45.5477 45.1174 45.527C45.1649 45.4985 45.214 45.4735 45.2658 45.4485C45.3654 45.3982 45.4679 45.3541 45.5729 45.3165C45.6247 45.2958 45.6782 45.2777 45.7317 45.2604C45.7852 45.2432 45.8387 45.2276 45.8947 45.213C45.9508 45.1983 46.006 45.1845 46.0621 45.1741C46.1182 45.1638 46.1734 45.1517 46.2295 45.1431C46.2994 45.131 46.3701 45.1224 46.4417 45.1163C46.4806 45.1163 46.5203 45.1103 46.5591 45.1077C46.5979 45.1051 46.6557 45.1017 46.7057 45.1017C46.7618 45.1017 46.8196 45.1017 46.8783 45.1017C47.056 45.1077 47.2234 45.1224 47.3899 45.1431C47.4641 45.1517 47.5366 45.1621 47.6091 45.1741C47.6815 45.1862 47.7471 45.1966 47.8135 45.2112C47.8255 45.2124 47.8373 45.2144 47.8489 45.2173C47.9188 45.2319 47.9869 45.2483 48.0551 45.2665C48.1233 45.2846 48.1975 45.3036 48.2656 45.326C48.3976 45.3674 48.5244 45.4123 48.6478 45.464C48.7203 45.4951 48.7919 45.5279 48.8601 45.5632L49.0188 45.6495C49.0766 45.6823 49.1301 45.716 49.1862 45.7531C49.2423 45.7902 49.2871 45.8212 49.3372 45.8583C49.3372 45.8583 49.3432 45.8583 49.3458 45.8643C49.3976 45.9015 49.445 45.9411 49.4942 45.9817C49.5434 46.0222 49.5684 46.0481 49.6055 46.0826C49.7072 46.1768 49.8018 46.2783 49.8885 46.3863C49.9523 46.4666 50.0144 46.5511 50.0697 46.6383C50.1209 46.7147 50.1679 46.7939 50.2103 46.8755C50.2327 46.9186 50.256 46.9618 50.2767 47.0058C50.2974 47.0498 50.3138 47.0843 50.3328 47.1257C50.3518 47.1671 50.3682 47.212 50.382 47.25C50.4044 47.306 50.4251 47.3612 50.4441 47.4225C50.517 47.6434 50.5716 47.8699 50.6072 48.0998C50.6132 48.1351 50.6192 48.1722 50.6235 48.2093C50.6279 48.2464 50.6356 48.306 50.6399 48.356C50.6443 48.406 50.652 48.4733 50.6563 48.5337C50.6606 48.5941 50.6667 48.6804 50.6684 48.7546C50.6786 49.7313 50.3032 50.6727 49.6237 51.3743C48.9442 52.076 48.0153 52.4814 47.0388 52.5024" fill="#DFD2EF"/>
<path d="M71.9156 47.4009C70.5506 46.9881 69.1313 46.7828 67.7053 46.7918C59.327 46.7918 53.9503 53.2306 53.9503 63.293C53.9366 65.2142 54.1591 67.1298 54.6129 68.9967C56.2927 75.7098 61.0681 79.7942 67.7053 79.7942C76.0551 79.7942 81.4577 73.3286 81.4577 63.293C81.4577 55.0381 77.8402 49.2205 71.9147 47.4M67.7045 72.3088C64.9436 72.3088 63.2181 70.0656 62.7142 65.9667C62.6105 65.079 62.56 64.1858 62.5633 63.2921C62.5633 57.6462 64.3052 54.4367 67.4629 54.2823C67.5414 54.2823 67.6242 54.2762 67.7045 54.2762C70.983 54.2762 72.8431 57.5306 72.8431 63.3197C72.8431 69.1088 71.0123 72.3088 67.7045 72.3088Z" fill="#885AC6"/>
</g>
</svg>
