<svg width="102" height="103" viewBox="0 0 102 103" fill="none" xmlns="http://www.w3.org/2000/svg">
<mask id="mask0_1_1609" style="mask-type:luminance" maskUnits="userSpaceOnUse" x="16" y="16" width="70" height="71">
<path d="M85.8749 16.7109H16.511V86.0369H85.8749V16.7109Z" fill="white"/>
</mask>
<g mask="url(#mask0_1_1609)">
<path d="M85.8749 55.6866V86.0368H16.5178V55.0845C18.4302 56.2878 20.225 57.4154 22.015 58.546C25.1366 60.5234 28.2484 62.5164 31.3758 64.486C35.7017 67.2113 40.0325 69.9289 44.3681 72.6386C46.4562 73.9508 48.5444 75.261 50.619 76.5974C50.7616 76.7142 50.94 76.7785 51.1244 76.7796C51.3088 76.7806 51.488 76.7184 51.632 76.6032C52.3118 76.1594 53.0131 75.7563 53.7036 75.3309C57.0654 73.2589 60.4268 71.1847 63.788 69.1082C67.616 66.7532 71.4465 64.4032 75.2797 62.058C77.8858 60.4625 80.4949 58.8726 83.1069 57.2882C84.0189 56.7365 84.9522 56.2189 85.8749 55.6866Z" fill="#885AC6"/>
<path d="M85.876 50.4032C84.9893 50.9053 84.0977 51.3987 83.2168 51.9115C82.5447 52.3 81.8862 52.7177 81.1646 53.1567V40.8054L85.876 44.4417V50.4032Z" fill="#885AC6"/>
<path d="M25.3347 55.3468V16.71H77.0706V17.3762C77.0706 29.9046 77.0745 42.4335 77.0823 54.9631C77.1077 55.1765 77.0682 55.3926 76.969 55.5832C76.8697 55.7738 76.7152 55.9301 76.5258 56.0315C73.4819 57.8769 70.4555 59.7475 67.4223 61.6093C64.0366 63.6878 60.6505 65.7653 57.2642 67.8418C55.3479 69.0199 53.4404 70.2135 51.5125 71.3732C51.4039 71.4219 51.2857 71.4456 51.1667 71.4426C51.0477 71.4396 50.9309 71.4099 50.8249 71.3557C46.6563 68.7489 42.4952 66.1298 38.3415 63.4984C34.1432 60.8514 29.9452 58.2051 25.7475 55.5595C25.6203 55.4789 25.4804 55.4216 25.3347 55.3468ZM42.6344 49.0619C42.8297 50.0189 43.0949 50.9603 43.4279 51.8785C43.9044 52.9343 44.6097 53.871 45.4928 54.6207C46.3758 55.3704 47.4145 55.9143 48.5337 56.2131C48.9135 56.3306 49.0572 56.4802 49.0407 56.893C49.0048 57.7419 49.03 58.5927 49.03 59.4454H53.0937C53.0937 58.5344 53.0694 57.6564 53.1121 56.7823C53.1316 56.6683 53.1783 56.5608 53.2481 56.4686C53.3179 56.3765 53.4088 56.3025 53.5132 56.2529C55.1127 55.8232 56.5453 54.9208 57.6235 53.6636C58.5051 52.7195 59.0979 51.5426 59.3316 50.2722C59.5654 49.0018 59.4303 47.691 58.9425 46.4949C58.3432 45.1088 57.3722 43.9154 56.1368 43.0469C54.9015 42.1783 53.4499 41.6684 51.9428 41.5737C50.958 41.5357 49.9845 41.3511 49.0543 41.0259C48.3045 40.7485 47.68 40.21 47.2955 39.5091C46.911 38.8083 46.7923 37.9922 46.9613 37.2109C47.7625 34.4419 51.5407 33.8785 53.6949 35.2169C54.1742 35.5062 54.5804 35.902 54.8821 36.3736C55.1837 36.8452 55.3727 37.3799 55.4344 37.9364H59.4621C59.4694 37.8248 59.4694 37.7129 59.4621 37.6013C59.4225 37.2293 59.3632 36.8597 59.2843 36.4941C58.9479 35.1249 58.2463 33.8726 57.2542 32.8706C56.2622 31.8687 55.017 31.1546 53.6512 30.8046C53.1413 30.6424 53.081 30.4617 53.0888 30.0421C53.1063 29.2137 53.0937 28.3842 53.0937 27.5393H49.03C49.03 28.4445 49.0203 29.3195 49.03 30.1946C49.0349 30.5268 48.962 30.6725 48.5881 30.7871C46.832 31.2635 45.2842 32.3104 44.1884 33.763C43.6037 34.5029 43.1822 35.3582 42.9517 36.2727C42.7212 37.1872 42.6869 38.1401 42.851 39.0688C43.2343 40.9045 44.2396 42.5516 45.6971 43.7316C47.1546 44.9116 48.9748 45.5522 50.8501 45.545C52.0215 45.5191 53.169 45.8784 54.1164 46.5678C54.4603 46.82 54.747 47.1423 54.9575 47.5133C55.168 47.8842 55.2977 48.2956 55.3378 48.7202C55.378 49.1449 55.3279 49.5733 55.1907 49.9771C55.0535 50.381 54.8323 50.7513 54.5418 51.0636C54.0421 51.565 53.4386 51.9509 52.7738 52.194C52.109 52.4372 51.399 52.5317 50.6937 52.4709C49.7498 52.4517 48.8429 52.1003 48.1324 51.4786C47.4218 50.8569 46.9532 50.0046 46.8088 49.0716L42.6344 49.0619Z" fill="#DFD2EF"/>
<path d="M21.2419 40.8289V52.644C20.867 52.4546 20.5339 52.3186 20.2347 52.1292C19.1256 51.4289 18.0145 50.7287 16.9325 49.9847C16.8196 49.8957 16.7261 49.7846 16.6576 49.6582C16.5891 49.5317 16.5472 49.3927 16.5343 49.2495C16.4974 47.7616 16.5061 46.2717 16.5275 44.7818C16.523 44.5468 16.6097 44.3192 16.7693 44.1466C18.1291 43.0627 19.5179 42.0099 20.9019 40.9522C21.0086 40.8959 21.1222 40.8541 21.2399 40.8279" fill="#885AC6"/>
</g>
</svg>
