<svg width="72" height="73" viewBox="0 0 72 73" fill="none" xmlns="http://www.w3.org/2000/svg">
<g clip-path="url(#clip0_1_1499)">
<mask id="mask0_1_1499" style="mask-type:luminance" maskUnits="userSpaceOnUse" x="6" y="10" width="60" height="53">
<path d="M65.7092 10.4314H6.54565V62.3699H65.7092V10.4314Z" fill="white"/>
</mask>
<g mask="url(#mask0_1_1499)">
<path d="M45.5476 24.6402C45.3525 24.3205 45.1571 24.0008 44.9611 23.6811L43.1114 20.6722C41.1931 17.5522 39.2725 14.4335 37.3497 11.3158C37.2656 11.0589 37.1027 10.835 36.8841 10.6759C36.6656 10.5167 36.4025 10.4304 36.1321 10.4292C35.8618 10.428 35.5979 10.5119 35.378 10.6691C35.158 10.8263 34.9931 11.0487 34.9067 11.3048C34.6641 11.6878 34.4271 12.0749 34.1907 12.462L31.908 16.1752C29.755 19.6783 27.5987 23.1803 25.4393 26.6811C25.2407 26.9021 25.1135 27.178 25.0745 27.4725C25.0355 27.767 25.0865 28.0665 25.2208 28.3315C25.3849 28.5632 25.6125 28.7424 25.8761 28.8477C26.1398 28.9529 26.4282 28.9797 26.7067 28.9248C27.002 28.9248 27.298 28.9248 27.5939 28.9303C28.1365 28.9385 28.6976 28.9461 29.2478 28.9084C29.3455 28.8884 29.4463 28.8885 29.544 28.9085C29.6417 28.9285 29.7344 28.9681 29.8164 29.0249C29.9267 29.129 29.9712 29.3188 29.9657 29.6593C29.9335 31.67 29.9431 58.3525 29.9568 60.8757C29.9623 61.8348 30.398 62.3657 31.1845 62.3692H31.1928C31.362 62.3793 31.5313 62.3505 31.6877 62.2848C31.844 62.2191 31.9831 62.1183 32.0943 61.9903C32.3231 61.6685 32.4344 61.2779 32.4095 60.8839C32.4198 57.9078 32.4198 30.5341 32.4095 27.9767C32.4054 26.8997 31.9765 26.4756 30.8797 26.464C30.3316 26.4585 29.7835 26.4592 29.1998 26.464H28.4921L28.6024 26.2687C28.6949 26.105 28.7655 25.9789 28.8408 25.8577C29.4661 24.841 30.092 23.8245 30.7187 22.8083C32.3745 20.12 34.0873 17.3399 35.7569 14.5967C35.8788 14.3967 36.0172 14.1925 36.1241 14.1925C36.2357 14.1925 36.3858 14.4179 36.4885 14.5871C38.1602 17.3371 39.8757 20.122 41.5357 22.8158C42.1582 23.8266 42.7807 24.8376 43.4032 25.8488C43.4793 25.9721 43.5498 26.0981 43.643 26.2639L43.7567 26.4653H43.0374C42.4544 26.4653 41.9166 26.4653 41.3781 26.4653C40.2737 26.4763 39.8421 26.897 39.8373 27.9671C39.8256 30.6389 39.8318 57.8236 39.8373 60.8736C39.8323 61.0585 39.847 61.2434 39.8811 61.4251C39.9374 61.6863 40.079 61.9213 40.2836 62.0931C40.4883 62.2649 40.7442 62.3637 41.0112 62.3739C41.2782 62.3841 41.541 62.3052 41.7581 62.1495C41.9753 61.9938 42.1344 61.7703 42.2105 61.5142C42.2793 61.2079 42.3076 60.894 42.2947 60.5804C42.2995 59.1369 42.3221 31.6755 42.2838 29.5949C42.2682 29.4965 42.2723 29.396 42.2958 29.2992C42.3194 29.2024 42.3618 29.1113 42.4208 29.031C42.5029 28.9742 42.5956 28.9344 42.6934 28.9141C42.7912 28.8937 42.8921 28.8932 42.9901 28.9125C43.5313 28.9406 44.0828 28.9351 44.6152 28.9296C44.9454 28.9296 45.2763 28.9228 45.6072 28.9296C45.8875 28.9807 46.1768 28.9458 46.4369 28.8294C46.697 28.713 46.9157 28.5205 47.0644 28.2774C47.1761 28.0169 47.2121 27.7302 47.1682 27.4501C47.1244 27.17 47.0024 26.908 46.8164 26.6942C46.3868 26.0152 45.9614 25.3178 45.5496 24.6437" fill="#421C67"/>
<path d="M16.442 23.7435C16.057 23.1029 15.6151 22.7638 15.165 22.7638C14.7149 22.7638 14.2743 23.1022 13.8879 23.7414C12.5899 25.8958 11.2946 28.0514 10.0021 30.208L8.55036 32.6264C8.38548 32.9005 8.21991 33.1745 8.05366 33.4486C7.65699 34.1056 7.24662 34.7845 6.85406 35.4593C6.69619 35.6665 6.59619 35.912 6.56429 36.1706C6.53239 36.4291 6.56974 36.6915 6.67251 36.9309C6.83108 37.1462 7.04313 37.3163 7.28766 37.4245C7.53219 37.5326 7.80072 37.575 8.06668 37.5475C8.18109 37.5475 8.29619 37.553 8.40923 37.5564C8.75837 37.5752 9.1084 37.5694 9.45674 37.5393C9.56225 37.5114 9.67242 37.506 9.78016 37.5233C9.88789 37.5407 9.99079 37.5804 10.0822 37.64C10.151 37.7317 10.2002 37.8365 10.2268 37.948C10.2535 38.0594 10.257 38.1752 10.2371 38.2881C10.1857 39.9248 10.2042 41.5909 10.2213 43.2009L10.2254 43.5928C10.2079 43.7632 10.2265 43.9355 10.2799 44.0983C10.3332 44.2611 10.4202 44.4109 10.5352 44.538C10.6502 44.6651 10.7906 44.7665 10.9473 44.8359C11.104 44.9052 11.2735 44.9408 11.4449 44.9404H11.46C11.6148 44.9453 11.7691 44.9194 11.9138 44.8642C12.0586 44.8091 12.191 44.7257 12.3033 44.619C12.4286 44.4849 12.5258 44.3271 12.5894 44.1548C12.6529 43.9826 12.6814 43.7994 12.6733 43.6161C12.6863 41.2566 12.6863 38.8519 12.6733 36.4685C12.6962 36.2844 12.6771 36.0976 12.6176 35.922C12.558 35.7464 12.4595 35.5866 12.3294 35.4544C12.1993 35.3223 12.041 35.2213 11.8664 35.159C11.6917 35.0968 11.5052 35.0748 11.3209 35.0948C11.0167 35.0798 10.7146 35.0832 10.3618 35.0866L9.94316 35.09L15.1636 26.3975L20.3306 35.0092C20.1942 35.0803 20.0389 35.1066 19.8866 35.0846C19.8278 35.0815 19.7688 35.0815 19.7099 35.0846C19.5914 35.0921 19.4694 35.09 19.3509 35.0887C19.2139 35.0887 19.0769 35.0853 18.9398 35.0955C18.7684 35.0855 18.5968 35.1112 18.4359 35.1711C18.2749 35.231 18.1282 35.3237 18.0051 35.4433C17.8819 35.563 17.7851 35.707 17.7206 35.8661C17.6561 36.0253 17.6255 36.1961 17.6306 36.3677C17.5936 37.6256 17.5936 54.1001 17.6306 55.3223C17.6282 55.506 17.6646 55.6882 17.7376 55.8568C17.8105 56.0254 17.9184 56.1767 18.054 56.3006C18.275 56.4839 18.5548 56.5812 18.8419 56.5747C18.9021 56.5746 18.9623 56.571 19.0221 56.5637C19.738 56.4774 20.0641 55.9985 20.0785 55.0099C20.0785 54.8832 20.0737 54.2412 20.0648 53.2691C20.0285 49.5284 19.9168 38.1442 20.1778 37.7023C20.4327 37.3783 20.9362 37.4392 21.4685 37.505C21.6992 37.5388 21.9321 37.556 22.1653 37.5564C22.4468 37.5867 22.7313 37.5431 22.9909 37.4301C23.2505 37.3171 23.4762 37.1384 23.6458 36.9117C23.7445 36.6489 23.7732 36.3649 23.7289 36.0876C23.6845 35.8104 23.5688 35.5494 23.393 35.3305C21.3089 31.8468 19.0351 28.0568 16.4413 23.7428" fill="#9057CD"/>
<path d="M65.4646 35.6004C63.1284 31.6672 60.684 27.5916 58.1985 23.4851C58.1041 23.2686 57.9487 23.0842 57.7512 22.9546C57.5537 22.825 57.3228 22.7557 57.0866 22.7553C56.8503 22.7548 56.6191 22.8232 56.4212 22.9521C56.2232 23.081 56.0671 23.2648 55.9719 23.481C53.459 27.6334 51.0139 31.709 48.7037 35.5962C48.5705 35.7841 48.49 36.0043 48.4706 36.2338C48.4513 36.4633 48.4937 36.6938 48.5934 36.9014C48.7274 37.1088 48.9136 37.2773 49.1333 37.3899C49.353 37.5026 49.5985 37.5555 49.8451 37.5433C50.3932 37.5597 51.0098 37.5782 51.6195 37.5392C51.6982 37.524 51.7792 37.5252 51.8574 37.5425C51.9356 37.5598 52.0095 37.5929 52.0744 37.6399C52.1239 37.7094 52.1585 37.7883 52.1762 37.8717C52.1939 37.9552 52.1942 38.0414 52.1772 38.1249C52.134 38.8224 52.1696 55.1153 52.1724 55.2373C52.1943 56.0847 52.6348 56.5725 53.3802 56.5759H53.3878C53.559 56.5803 53.7292 56.5481 53.8871 56.4817C54.045 56.4152 54.1869 56.316 54.3036 56.1905C54.4202 56.065 54.5088 55.9162 54.5635 55.7538C54.6182 55.5915 54.6378 55.4194 54.6209 55.2489C54.6483 54.0843 54.6476 37.5666 54.6209 36.4485C54.6339 36.2642 54.6066 36.0793 54.5408 35.9067C54.4751 35.734 54.3726 35.5777 54.2404 35.4487C54.1081 35.3197 53.9494 35.221 53.7752 35.1595C53.601 35.098 53.4155 35.0752 53.2315 35.0927C52.928 35.0783 52.6273 35.0817 52.2779 35.0852H51.8668L57.0873 26.3947L62.3015 35.0954C62.1481 35.0954 62.0035 35.0954 61.8651 35.0913C61.4938 35.0865 61.1732 35.0824 60.8505 35.1016C60.0558 35.1482 59.5947 35.5606 59.5865 36.2341C59.5495 39.2067 59.5509 41.6244 59.5913 43.8441C59.5933 44.0487 59.652 44.2486 59.7609 44.4218C59.8697 44.595 60.0245 44.7346 60.2079 44.8252C60.4088 44.9269 60.6336 44.9716 60.8582 44.9546C61.0827 44.9376 61.2982 44.8594 61.4815 44.7286C61.6731 44.5786 61.8236 44.3825 61.9189 44.1586C62.0141 43.9346 62.051 43.6902 62.0261 43.4481C62.0261 42.8316 62.0261 42.215 62.0261 41.6032C62.0261 40.4693 62.0323 39.2971 62.011 38.1441C61.9972 38.0561 62.0012 37.9661 62.0227 37.8796C62.0443 37.7932 62.0829 37.7119 62.1364 37.6406C62.2076 37.5919 62.2878 37.5582 62.3724 37.5415C62.4569 37.5247 62.544 37.5254 62.6283 37.5433C63.1938 37.5735 63.7604 37.5751 64.326 37.5481C64.5722 37.5608 64.8174 37.5087 65.0371 37.397C65.2569 37.2854 65.4435 37.118 65.5783 36.9116C65.6771 36.7032 65.7184 36.4722 65.6979 36.2425C65.6774 36.0128 65.5959 35.7928 65.4619 35.6052" fill="#9057CD"/>
</g>
</g>
<defs>
<clipPath id="clip0_1_1499">
<rect width="71.25" height="71.25" fill="white" transform="translate(0.379883 0.840088)"/>
</clipPath>
</defs>
</svg>
