<svg width="72" height="72" viewBox="0 0 72 72" fill="none" xmlns="http://www.w3.org/2000/svg">
<g clip-path="url(#clip0_1_1419)">
<g clip-path="url(#clip1_1_1419)">
<mask id="mask0_1_1419" style="mask-type:luminance" maskUnits="userSpaceOnUse" x="5" y="10" width="62" height="52">
<path d="M66.1429 10.1814H5.8606V61.5657H66.1429V10.1814Z" fill="white"/>
</mask>
<g mask="url(#mask0_1_1419)">
<path d="M40.4512 61.5636C34.096 61.5687 27.9654 59.2134 23.2484 54.9545C22.9592 54.6837 22.7879 54.3103 22.7712 53.9145C22.7545 53.5187 22.8938 53.1322 23.1591 52.838C23.4244 52.5439 23.7946 52.3656 24.19 52.3416C24.5854 52.3175 24.9745 52.4496 25.2735 52.7094C28.0055 55.1729 31.2959 56.9344 34.8607 57.8421C38.4256 58.7498 42.1578 58.7763 45.7351 57.9193C49.3125 57.0624 52.6276 55.3478 55.3943 52.9234C58.161 50.499 60.2961 47.4378 61.6154 44.0039C62.9347 40.5701 63.3985 36.8667 62.9668 33.2136C62.5351 29.5604 61.2208 26.0672 59.1375 23.0354C57.0541 20.0036 54.2643 17.5244 51.0087 15.8117C47.7532 14.0989 44.1297 13.2042 40.4512 13.2047C35.4564 13.1882 30.5987 14.8374 26.6465 17.8915C22.7731 20.8766 19.9609 25.0268 18.624 29.7306C18.5703 29.9218 18.4795 30.1005 18.3568 30.2565C18.2341 30.4126 18.0818 30.5429 17.9087 30.6401C17.7356 30.7373 17.5451 30.7995 17.3479 30.823C17.1508 30.8466 16.951 30.8311 16.7598 30.7775C16.5687 30.7238 16.39 30.633 16.234 30.5103C16.0779 30.3875 15.9476 30.2353 15.8504 30.0622C15.7531 29.8891 15.691 29.6985 15.6674 29.5014C15.6439 29.3043 15.6594 29.1044 15.713 28.9133C17.2276 23.5822 20.4142 18.8785 24.8036 15.495C29.2833 12.0329 34.7895 10.1631 40.4512 10.1814C47.2649 10.1814 53.7995 12.8881 58.6175 17.7062C63.4355 22.5242 66.1423 29.0588 66.1423 35.8725C66.1423 42.6862 63.4355 49.2209 58.6175 54.0389C53.7995 58.8569 47.2649 61.5636 40.4512 61.5636Z" fill="#9057CD"/>
<path d="M51.9128 45.5837C51.6631 45.5836 51.4173 45.5215 51.1975 45.4029L38.3369 38.4793V24.9938C38.3369 24.5929 38.4962 24.2084 38.7797 23.9249C39.0632 23.6414 39.4477 23.4822 39.8486 23.4822C40.2495 23.4822 40.634 23.6414 40.9175 23.9249C41.201 24.2084 41.3602 24.5929 41.3602 24.9938V36.6775L52.6308 42.7447C52.9272 42.9044 53.1619 43.1585 53.2975 43.4667C53.4332 43.7749 53.4621 44.1195 53.3797 44.446C53.2972 44.7725 53.1081 45.0621 52.8424 45.269C52.5767 45.4758 52.2495 45.588 51.9128 45.5878" fill="#421C67"/>
<path d="M25.0659 37.3852H7.37265C6.9773 37.3768 6.60098 37.2138 6.32436 36.9313C6.04774 36.6487 5.89282 36.269 5.89282 35.8735C5.89282 35.4781 6.04774 35.0984 6.32436 34.8158C6.60098 34.5333 6.9773 34.3703 7.37265 34.3619H25.0659C25.4613 34.3703 25.8376 34.5333 26.1142 34.8158C26.3908 35.0984 26.5458 35.4781 26.5458 35.8735C26.5458 36.269 26.3908 36.6487 26.1142 36.9313C25.8376 37.2138 25.4613 37.3768 25.0659 37.3852Z" fill="#421C67"/>
<path d="M58.1231 37.3859C58.024 37.3858 57.9251 37.3762 57.8278 37.3571C57.7316 37.3367 57.6374 37.3078 57.5463 37.2708C57.4552 37.2334 57.3678 37.1875 57.2853 37.1338C57.2024 37.0786 57.125 37.0155 57.0544 36.9454C56.8438 36.734 56.7007 36.4648 56.6433 36.1719C56.6029 35.9769 56.6029 35.7757 56.6433 35.5807C56.6631 35.4839 56.6917 35.3892 56.7289 35.2977C56.8057 35.1149 56.9166 34.9485 57.0557 34.8072C57.1261 34.7367 57.2034 34.6736 57.2866 34.6188C57.3692 34.5651 57.4566 34.5192 57.5476 34.4818C57.6388 34.4447 57.733 34.4158 57.8292 34.3955C58.0244 34.357 58.2252 34.357 58.4204 34.3955C58.5171 34.4159 58.6118 34.4447 58.7034 34.4818C58.7942 34.5198 58.8815 34.5657 58.9644 34.6188C59.1299 34.7292 59.2719 34.8713 59.3823 35.0367C59.4355 35.1196 59.4814 35.2069 59.5193 35.2977C59.5569 35.3892 59.5858 35.4839 59.6057 35.5807C59.6443 35.7759 59.6443 35.9767 59.6057 36.1719C59.5858 36.2687 59.5569 36.3635 59.5193 36.4549C59.4814 36.5457 59.4355 36.633 59.3823 36.7159C59.3272 36.7984 59.2641 36.8753 59.1939 36.9454C59.1234 37.0152 59.0466 37.0783 58.9644 37.1338C58.7992 37.2431 58.6145 37.3196 58.4204 37.3592C58.3232 37.3783 58.2243 37.3879 58.1252 37.388" fill="#421C67"/>
<path d="M40.9013 54.8503C40.8021 54.8499 40.7032 54.8398 40.606 54.8202C40.2138 54.741 39.8689 54.5097 39.6468 54.1769C39.5921 54.0949 39.5462 54.0074 39.5098 53.9159C39.4716 53.8252 39.4426 53.7308 39.4235 53.6343C39.3849 53.4391 39.3849 53.2382 39.4235 53.0431C39.4426 52.9461 39.4716 52.8513 39.5098 52.7601C39.5851 52.5765 39.6962 52.4098 39.8366 52.2696C40.0487 52.0599 40.3176 51.917 40.6101 51.8585C40.8048 51.8199 41.0052 51.8199 41.2 51.8585C41.3941 51.898 41.5788 51.9746 41.7439 52.0839C41.8267 52.1387 41.9036 52.2018 41.9734 52.2723C42.0436 52.3425 42.1067 52.4193 42.1618 52.5018C42.216 52.5841 42.2619 52.6715 42.2989 52.7629C42.3371 52.854 42.366 52.9488 42.3852 53.0458C42.4236 53.241 42.4236 53.4418 42.3852 53.637C42.366 53.7336 42.3371 53.8279 42.2989 53.9186C42.2625 54.0102 42.2166 54.0977 42.1618 54.1796C41.9389 54.5116 41.5944 54.7426 41.2027 54.8229C41.1059 54.8426 41.0075 54.8527 40.9088 54.8531" fill="#421C67"/>
<path d="M26.6929 48.8537H18.5088C18.3076 48.858 18.1075 48.822 17.9204 48.748C17.7332 48.674 17.5627 48.5633 17.4189 48.4225C17.2751 48.2817 17.1608 48.1136 17.0828 47.9281C17.0048 47.7425 16.9646 47.5433 16.9646 47.342C16.9646 47.1408 17.0048 46.9415 17.0828 46.756C17.1608 46.5704 17.2751 46.4024 17.4189 46.2616C17.5627 46.1208 17.7332 46.0101 17.9204 45.9361C18.1075 45.862 18.3076 45.8261 18.5088 45.8304H26.6929C26.8942 45.8261 27.0942 45.862 27.2814 45.9361C27.4685 46.0101 27.639 46.1208 27.7828 46.2616C27.9267 46.4024 28.0409 46.5704 28.1189 46.756C28.197 46.9415 28.2371 47.1408 28.2371 47.342C28.2371 47.5433 28.197 47.7425 28.1189 47.9281C28.0409 48.1136 27.9267 48.2817 27.7828 48.4225C27.639 48.5633 27.4685 48.674 27.2814 48.748C27.0942 48.822 26.8942 48.858 26.6929 48.8537Z" fill="#421C67"/>
<path d="M19.1577 25.9208H9.13135C8.93013 25.9251 8.73007 25.8892 8.54292 25.8151C8.35577 25.7411 8.18528 25.6304 8.04145 25.4896C7.89763 25.3488 7.78336 25.1807 7.70535 24.9952C7.62734 24.8097 7.58716 24.6104 7.58716 24.4092C7.58716 24.2079 7.62734 24.0087 7.70535 23.8231C7.78336 23.6376 7.89763 23.4695 8.04145 23.3287C8.18528 23.1879 8.35577 23.0772 8.54292 23.0032C8.73007 22.9291 8.93013 22.8932 9.13135 22.8975H19.1577C19.359 22.8932 19.559 22.9291 19.7462 23.0032C19.9333 23.0772 20.1038 23.1879 20.2476 23.3287C20.3914 23.4695 20.5057 23.6376 20.5837 23.8231C20.6617 24.0087 20.7019 24.2079 20.7019 24.4092C20.7019 24.6104 20.6617 24.8097 20.5837 24.9952C20.5057 25.1807 20.3914 25.3488 20.2476 25.4896C20.1038 25.6304 19.9333 25.7411 19.7462 25.8151C19.559 25.8892 19.359 25.9251 19.1577 25.9208Z" fill="#9057CD"/>
<path d="M12.6082 48.8537H10.5125C10.3112 48.858 10.1112 48.822 9.92402 48.748C9.73687 48.674 9.56638 48.5633 9.42256 48.4225C9.27873 48.2817 9.16447 48.1136 9.08646 47.9281C9.00845 47.7425 8.96826 47.5433 8.96826 47.342C8.96826 47.1408 9.00845 46.9415 9.08646 46.756C9.16447 46.5704 9.27873 46.4024 9.42256 46.2616C9.56638 46.1208 9.73687 46.0101 9.92402 45.9361C10.1112 45.862 10.3112 45.8261 10.5125 45.8304H12.6082C12.8094 45.8261 13.0094 45.862 13.1966 45.9361C13.3837 46.0101 13.5542 46.1208 13.6981 46.2616C13.8419 46.4024 13.9561 46.5704 14.0342 46.756C14.1122 46.9415 14.1524 47.1408 14.1524 47.342C14.1524 47.5433 14.1122 47.7425 14.0342 47.9281C13.9561 48.1136 13.8419 48.2817 13.6981 48.4225C13.5542 48.5633 13.3837 48.674 13.1966 48.748C13.0094 48.822 12.8094 48.858 12.6082 48.8537Z" fill="#421C67"/>
</g>
</g>
</g>
<defs>
<clipPath id="clip0_1_1419">
<rect width="71.25" height="71.25" fill="white" transform="translate(0.379883 0.590027)"/>
</clipPath>
<clipPath id="clip1_1_1419">
<rect width="71.25" height="71.25" fill="white" transform="translate(0.379883 0.590027)"/>
</clipPath>
</defs>
</svg>
