<svg width="102" height="103" viewBox="0 0 102 103" fill="none" xmlns="http://www.w3.org/2000/svg">
<g clip-path="url(#clip0_1_1591)">
<g clip-path="url(#clip1_1_1591)">
<path d="M50.8084 70.9439H19.3928C19.0123 70.9602 18.6327 70.8976 18.2776 70.7602C17.9225 70.6228 17.5997 70.4134 17.3293 70.1453C17.059 69.8772 16.847 69.556 16.7067 69.2021C16.5664 68.8481 16.5008 68.469 16.514 68.0884C16.514 56.6511 16.514 45.2145 16.514 33.7785C16.5003 33.3981 16.5651 33.0189 16.7043 32.6646C16.8434 32.3103 17.054 31.9884 17.323 31.719C17.5919 31.4496 17.9134 31.2384 18.2675 31.0987C18.6216 30.9589 19.0007 30.8935 19.3811 30.9065C40.2672 30.902 61.1524 30.9052 82.0366 30.9162C82.474 30.8688 82.9165 30.9205 83.3312 31.0675C83.7459 31.2145 84.1222 31.4529 84.4321 31.7652C84.742 32.0775 84.9777 32.4555 85.1215 32.8713C85.2654 33.2871 85.3138 33.7299 85.2631 34.167C85.2845 45.3362 85.2631 56.5054 85.2796 67.6747C85.2945 68.1138 85.2187 68.5512 85.057 68.9597C84.8952 69.3681 84.651 69.7389 84.3396 70.0487C84.0282 70.3586 83.6562 70.601 83.2469 70.7607C82.8377 70.9204 82.3999 70.994 81.9609 70.9769C71.5783 70.9215 61.1968 70.9507 50.8123 70.9487L50.8084 70.9439ZM30.3949 65.2243C43.8628 65.2243 57.3238 65.2162 70.778 65.2C70.9282 65.1692 71.0689 65.1031 71.1885 65.0072C71.3081 64.9113 71.4031 64.7882 71.4657 64.6483C71.9921 62.9047 72.9415 61.3184 74.2293 60.0305C75.5172 58.7427 77.1035 57.7933 78.8471 57.2669C78.9588 57.251 79.0662 57.2128 79.1629 57.1546C79.2596 57.0964 79.3436 57.0193 79.41 56.928C79.4763 56.8367 79.5236 56.7329 79.549 56.623C79.5744 56.513 79.5775 56.3991 79.558 56.2879C79.5315 52.7144 79.5315 49.1389 79.558 45.5615C79.558 44.9788 79.3502 44.8195 78.818 44.633C77.1253 44.0875 75.5854 43.15 74.3235 41.8969C73.0616 40.6437 72.1134 39.1104 71.556 37.4216C71.5348 37.2923 71.4883 37.1685 71.419 37.0573C71.3497 36.9461 71.259 36.8498 71.1523 36.7738C71.0455 36.6979 70.9248 36.6438 70.7971 36.6148C70.6693 36.5858 70.5371 36.5824 70.408 36.6048C57.3351 36.619 44.2632 36.6229 31.1923 36.6164H30.3881C29.8793 38.4819 28.9181 40.1929 27.5897 41.5979C26.2613 43.0029 24.6067 44.0585 22.7727 44.6709C22.6449 44.728 22.5322 44.8141 22.4435 44.9223C22.3549 45.0305 22.2926 45.158 22.2618 45.2944C22.2307 49.2241 22.2404 53.1556 22.2404 57.0756C24.1984 57.5912 25.9848 58.6164 27.4178 60.0467C28.8509 61.477 29.8794 63.2614 30.3988 65.2184L30.3949 65.2243Z" fill="#885AC6"/>
<path d="M34.6781 87.452C34.2342 88.1085 33.7282 88.7845 33.296 89.5052C33.0001 90.0325 32.5464 90.4538 31.9987 90.7099C31.451 90.966 30.8368 91.0439 30.2424 90.9329C29.7045 90.836 29.2057 90.5864 28.8057 90.2139C28.4057 89.8414 28.1212 89.3618 27.9862 88.8321C27.0237 86.0466 26.1166 83.2388 25.2046 80.4338C25.0637 80.0021 25.0271 79.5431 25.0978 79.0945C25.1686 78.646 25.3447 78.2206 25.6117 77.8532C25.8787 77.4858 26.229 77.187 26.6338 76.9812C27.0386 76.7754 27.4864 76.6685 27.9406 76.6693C30.6552 76.6528 33.3737 76.5722 36.0834 76.6955C37.8142 76.7723 38.9214 76.9364 39.3186 79.2207C39.3046 79.9555 39.1119 80.6759 38.7573 81.3196C38.5131 81.7944 38.2247 82.2451 37.8958 82.6657C39.7295 83.2484 41.4359 83.8312 43.1647 84.3392C46.439 85.2198 49.8435 85.5125 53.22 85.2035C56.4873 84.9851 59.6981 84.241 62.7284 82.9998C65.6149 81.8174 68.3239 80.241 70.778 78.3155C71.4502 77.5922 72.297 77.0537 73.2372 76.7518C73.9759 76.6338 74.7318 76.8045 75.3481 77.2285C75.9645 77.6525 76.3942 78.2973 76.5481 79.0294C76.8055 80.8747 75.6556 81.7294 74.5192 82.6298C72.2687 84.4532 69.8149 86.0104 67.2068 87.2704C61.3015 90.0454 54.7972 91.3032 48.2832 90.93C45.352 90.7827 42.4548 90.235 39.6722 89.3022C38.0152 88.7505 36.3971 88.0891 34.6781 87.4452V87.452Z" fill="#885AC6"/>
<path d="M66.8678 14.4936C67.5525 13.5651 68.2022 12.6773 68.8637 11.7964C69.9951 10.2852 73.0011 10.9058 73.545 12.6414C74.5163 15.7261 75.5642 18.7835 76.5122 21.875C76.5962 22.2545 76.5977 22.6477 76.5165 23.0278C76.4353 23.408 76.2732 23.7662 76.0413 24.0782C75.8095 24.3902 75.5132 24.6487 75.1726 24.8362C74.8321 25.0236 74.4552 25.1356 74.0676 25.1645C70.9596 25.2073 67.8584 25.2617 64.7592 25.1451C64.3368 25.0968 63.9312 24.9514 63.5742 24.7203C63.2173 24.4893 62.9186 24.1788 62.7016 23.8132C62.4845 23.4475 62.355 23.0366 62.3231 22.6126C62.2911 22.1886 62.3577 21.763 62.5176 21.3689C62.8507 20.6583 63.2326 19.9716 63.6607 19.3138C61.2486 18.2043 58.6806 17.4713 56.0462 17.1402C54.1335 16.8527 52.2048 16.6843 50.2712 16.6361C46.111 16.6783 42 17.5408 38.1735 19.174C35.2161 20.4347 32.4736 22.1496 30.0452 24.2564C28.297 25.7823 26.202 25.3831 25.2861 23.392C25.0702 22.878 25.0151 22.3107 25.1279 21.7648C25.2408 21.2188 25.5164 20.7198 25.9184 20.3336C27.7767 18.5682 29.849 17.0428 32.0868 15.7931C35.2522 13.9728 38.6732 12.6386 42.2352 11.8353C44.2112 11.4501 46.2099 11.1925 48.219 11.0641C49.1826 10.9372 50.1541 10.8791 51.1259 10.8903C56.5668 10.9661 61.9303 12.1907 66.8648 14.4838L66.8678 14.4936Z" fill="#885AC6"/>
<path d="M42.3023 50.878C42.2798 49.774 42.4773 48.6765 42.8833 47.6495C43.2892 46.6226 43.8955 45.6867 44.6667 44.8963C45.438 44.106 46.3588 43.4771 47.3755 43.0462C48.3923 42.6153 49.4846 42.391 50.5889 42.3865C55.9579 42.3865 59.4359 46.0442 59.4213 51.0169C59.4122 52.141 59.1817 53.2522 58.7432 54.2872C58.3046 55.3222 57.6664 56.2607 56.8652 57.049C56.0639 57.8374 55.1152 58.4603 54.0732 58.882C53.0312 59.3037 51.9164 59.5161 50.7923 59.507C49.6683 59.4979 48.557 59.2674 47.522 58.8288C46.487 58.3903 45.5486 57.7521 44.7602 56.9508C43.9718 56.1496 43.349 55.2009 42.9272 54.1589C42.5055 53.1169 42.2931 52.0021 42.3023 50.878Z" fill="#DFD2EF"/>
</g>
</g>
<defs>
<clipPath id="clip0_1_1591">
<rect width="101.98" height="101.98" fill="white" transform="translate(0 0.199951)"/>
</clipPath>
<clipPath id="clip1_1_1591">
<rect width="101.98" height="101.98" fill="white" transform="translate(0 0.199951)"/>
</clipPath>
</defs>
</svg>
