<svg width="72" height="73" viewBox="0 0 72 73" fill="none" xmlns="http://www.w3.org/2000/svg">
<g clip-path="url(#clip0_1_1463)">
<g clip-path="url(#clip1_1_1463)">
<mask id="mask0_1_1463" style="mask-type:luminance" maskUnits="userSpaceOnUse" x="7" y="7" width="58" height="58">
<path d="M64.3597 7.69104H7.91602V64.1224H64.3597V7.69104Z" fill="white"/>
</mask>
<g mask="url(#mask0_1_1463)">
<path d="M64.3598 35.9417C64.3598 36.7565 64.3267 37.5786 64.2605 38.408C63.7305 44.4429 61.2717 50.1469 57.248 54.6758C53.2243 59.2047 47.8495 62.3179 41.9189 63.5547C35.9884 64.7915 29.8172 64.0863 24.3187 61.5432C18.8201 59.0002 14.2863 54.7546 11.3882 49.4346C9.12912 45.3467 7.9351 40.7561 7.91612 36.0855C7.88689 35.7611 7.95743 35.4354 8.1183 35.1521C8.27917 34.8688 8.52271 34.6414 8.81634 34.5002C9.03945 34.3847 9.28651 34.323 9.53774 34.32C9.88096 34.3259 10.2128 34.444 10.4825 34.6564C10.7036 34.8313 10.8781 35.058 10.9906 35.3165C11.103 35.575 11.15 35.8573 11.1272 36.1383C11.1268 40.0345 12.0758 43.8721 13.8922 47.3191C17.8137 54.6681 23.8741 59.1212 31.9048 60.5585C33.3294 60.8127 34.7737 60.9408 36.2209 60.9415C42.4145 60.9335 48.3847 58.6272 52.9753 54.4693C57.5658 50.3114 60.45 44.5979 61.0691 38.4353C61.6883 32.2727 59.9984 26.0996 56.3267 21.1116C52.655 16.1236 47.2629 12.6758 41.1947 11.4358C33.0098 9.75386 25.6156 11.8016 19.212 17.5331C19.127 17.6078 19.0414 17.6832 18.9379 17.7681L18.5748 18.0846L18.7996 18.2045C19.0121 18.3197 19.2546 18.3675 19.4949 18.3415C19.5312 18.3415 19.5682 18.3374 19.6004 18.3374C20.3929 18.3374 21.1853 18.3374 21.9777 18.3374C23.0903 18.3374 24.2045 18.3388 25.3203 18.3415C25.7241 18.3115 26.1248 18.4307 26.4465 18.6766C26.7681 18.9225 26.9883 19.2779 27.0652 19.6754C27.1038 19.9039 27.0924 20.138 27.0319 20.3616C26.9713 20.5853 26.8631 20.7932 26.7145 20.9709C26.5565 21.151 26.3611 21.2944 26.142 21.3911C25.9228 21.4878 25.6852 21.5354 25.4457 21.5307C24.059 21.543 22.6628 21.5409 21.3125 21.5389C20.7452 21.5389 20.1691 21.5389 19.61 21.5389H18.2761C17.18 21.5389 16.0838 21.543 14.9925 21.5389C14.7644 21.5608 14.5343 21.5334 14.3179 21.4584C14.1014 21.3834 13.9036 21.2627 13.738 21.1043C13.5724 20.946 13.4429 20.7539 13.3583 20.541C13.2736 20.3281 13.2359 20.0995 13.2475 19.8707C13.229 16.3644 13.229 12.8251 13.2475 9.35719C13.2443 9.12773 13.2878 8.90002 13.3756 8.68798C13.4633 8.47594 13.5934 8.28404 13.7579 8.12402C13.9069 7.97895 14.0838 7.86574 14.2779 7.7913C14.472 7.71686 14.6792 7.68274 14.887 7.69104C15.1006 7.70009 15.3103 7.75127 15.5041 7.84163C15.6979 7.93199 15.8719 8.05975 16.0162 8.21756C16.1604 8.37538 16.2721 8.56015 16.3447 8.76125C16.4173 8.96235 16.4495 9.17582 16.4394 9.38939C16.4435 10.634 16.4435 11.8779 16.4394 13.1211V15.656L16.7292 15.4189C16.9685 15.2202 17.2031 15.025 17.4328 14.8332L17.5767 14.7133C18.1384 14.2412 18.6694 13.7973 19.2243 13.3753C22.2246 11.1109 25.6483 9.47085 29.2931 8.55199C32.938 7.63313 36.73 7.45412 40.4452 8.02552C44.1604 8.59693 47.7234 9.90716 50.9236 11.8788C54.1239 13.8505 56.8965 16.4435 59.0777 19.5048C62.5337 24.2847 64.3825 30.0385 64.3578 35.9369" fill="#9057CD"/>
<path d="M43.019 38.7951C43.1828 40.0541 42.8757 41.3292 42.1567 42.3756C41.4377 43.4219 40.3575 44.1658 39.1235 44.4643C39.0345 44.4869 38.9454 44.5088 38.8557 44.5253C37.7999 44.6972 37.7369 44.7726 37.7348 45.8749V46.1407C37.7348 46.2969 37.7348 46.4572 37.7266 46.6127C37.7168 47.0239 37.5472 47.415 37.2537 47.7031C36.9602 47.9912 36.566 48.1535 36.1548 48.1557C35.7435 48.1578 35.3476 47.9996 35.0512 47.7146C34.7547 47.4295 34.581 47.0402 34.5669 46.6292C34.5423 46.1728 34.5409 45.7155 34.5628 45.259C34.5832 45.1736 34.5821 45.0846 34.5595 44.9998C34.5369 44.915 34.4936 44.8371 34.4335 44.7732C34.3734 44.7093 34.2983 44.6613 34.2151 44.6335C34.1318 44.6058 34.043 44.5992 33.9565 44.6143H33.9223C33.1139 44.6308 32.2883 44.6267 31.4922 44.6225H31.038C30.8112 44.6492 30.5813 44.6274 30.3635 44.5587C30.1457 44.4899 29.945 44.3757 29.7746 44.2237C29.6041 44.0716 29.4679 43.8851 29.3749 43.6765C29.2819 43.468 29.2341 43.242 29.2349 43.0136C29.2356 42.7852 29.2848 42.5596 29.3791 42.3516C29.4735 42.1436 29.6109 41.958 29.7823 41.8071C29.9537 41.6561 30.1551 41.5432 30.3734 41.4759C30.5916 41.4085 30.8216 41.3882 31.0483 41.4163C31.6217 41.4122 32.1938 41.4163 32.7651 41.4163H35.4309C36.2235 41.4163 37.0141 41.4163 37.8061 41.4163C38.0653 41.426 38.3239 41.384 38.5667 41.2926C38.8095 41.2013 39.0317 41.0625 39.2203 40.8844C39.4089 40.7063 39.5601 40.4924 39.6651 40.2552C39.7702 40.018 39.8269 39.7622 39.832 39.5028C39.8371 39.2435 39.7904 38.9857 39.6948 38.7445C39.5992 38.5034 39.4565 38.2837 39.2751 38.0983C39.0936 37.9129 38.877 37.7655 38.638 37.6647C38.399 37.5639 38.1422 37.5117 37.8828 37.5112C37.2505 37.4948 36.6161 37.4969 36.02 37.501H35.844C35.3212 37.501 34.7759 37.5051 34.245 37.4928C32.9983 37.4594 31.8064 36.9738 30.8914 36.1265C29.9764 35.2792 29.4007 34.1281 29.2718 32.8877C29.1428 31.6473 29.4693 30.4024 30.1905 29.385C30.9116 28.3676 31.9782 27.6472 33.1913 27.3581C33.2098 27.354 33.2276 27.3499 33.2598 27.3396L33.3043 27.3273C33.4245 27.3031 33.5469 27.2923 33.6695 27.2951C33.951 27.2889 34.3039 27.2807 34.4765 26.9786C34.5903 26.7045 34.6234 26.4035 34.5717 26.1112L34.5676 26.0626C34.5615 25.9612 34.5532 25.8571 34.5553 25.7625C34.5553 25.6794 34.5553 25.5963 34.5553 25.5132C34.5395 25.2672 34.5626 25.0202 34.6238 24.7815C34.7391 24.4335 34.9701 24.1355 35.2784 23.937C35.5866 23.7386 35.9535 23.6517 36.3181 23.6908C36.684 23.7226 37.0265 23.8846 37.2831 24.1475C37.5397 24.4104 37.6934 24.7567 37.7163 25.1233C37.7453 25.6175 37.7494 26.1127 37.7287 26.6073C37.717 26.6902 37.7231 26.7747 37.7468 26.855C37.7704 26.9354 37.8109 27.0097 37.8657 27.0731C37.9305 27.1304 38.0069 27.1731 38.0896 27.1982C38.1723 27.2234 38.2595 27.2305 38.3453 27.219C39.1783 27.2047 40.0196 27.2088 40.8342 27.2129H41.2275C41.454 27.1843 41.6841 27.2037 41.9027 27.2698C42.1213 27.3359 42.3235 27.4471 42.4963 27.5964C42.6691 27.7457 42.8086 27.9297 42.9057 28.1364C43.0029 28.343 43.0554 28.5678 43.0601 28.7961C43.0683 28.9999 43.0354 29.2032 42.9633 29.394C42.8913 29.5848 42.7816 29.7592 42.6408 29.9067C42.4492 30.0824 42.2245 30.2183 41.9799 30.3064C41.7352 30.3945 41.4755 30.433 41.2158 30.4198C40.4738 30.4198 39.7319 30.4198 38.9899 30.4198H37.8753C36.7746 30.4198 35.6745 30.4198 34.5752 30.4198C34.3069 30.3966 34.0367 30.4282 33.781 30.5126C33.5253 30.597 33.2895 30.7326 33.0878 30.9109C32.8861 31.0893 32.7227 31.3068 32.6077 31.5503C32.4926 31.7937 32.4283 32.058 32.4185 32.3271C32.41 32.575 32.4511 32.8221 32.5394 33.0539C32.6278 33.2857 32.7616 33.4975 32.933 33.6768C33.1472 33.8877 33.4013 34.0539 33.6804 34.1656C33.9596 34.2773 34.2581 34.3324 34.5587 34.3276C35.0773 34.3338 35.6028 34.3317 36.1112 34.3276H36.2996C36.8648 34.3276 37.4505 34.3235 38.0226 34.3358C39.2654 34.3681 40.4563 34.8409 41.383 35.6697C42.2997 36.469 42.884 37.5825 43.021 38.791" fill="#421C67"/>
</g>
</g>
</g>
<defs>
<clipPath id="clip0_1_1463">
<rect width="71.25" height="71.25" fill="white" transform="translate(0.379883 0.840088)"/>
</clipPath>
<clipPath id="clip1_1_1463">
<rect width="71.25" height="71.25" fill="white" transform="translate(0.379883 0.840088)"/>
</clipPath>
</defs>
</svg>
