<svg width="72" height="72" viewBox="0 0 72 72" fill="none" xmlns="http://www.w3.org/2000/svg">
<g clip-path="url(#clip0_1_1400)">
<g clip-path="url(#clip1_1_1400)">
<g clip-path="url(#clip2_1_1400)">
<mask id="mask0_1_1400" style="mask-type:luminance" maskUnits="userSpaceOnUse" x="6" y="6" width="60" height="60">
<path d="M65.3735 6.75592H6.54565V65.6502H65.3735V6.75592Z" fill="white"/>
</mask>
<g mask="url(#mask0_1_1400)">
<path d="M65.3701 35.4121H65.3201L65.3091 35.3347C65.0951 34.1537 64.5992 33.0418 63.8635 32.0935L63.8471 32.0716C63.7234 31.8946 63.5906 31.7243 63.4491 31.5612C63.1839 31.2646 62.9222 30.9665 62.6605 30.6706L62.6105 30.6137C61.9699 29.8813 61.3054 29.1284 60.6203 28.405C59.4819 27.196 58.8425 25.6014 58.8301 23.9409C58.8137 23.5855 58.7989 23.2288 58.7856 22.8708C58.761 21.5964 58.6608 20.3247 58.4855 19.0623C58.3461 17.6767 57.7333 16.3815 56.7505 15.3949C55.7676 14.4083 54.4748 13.7907 53.0897 13.6459C51.711 13.4331 50.3173 13.3314 48.9223 13.3417H48.7167C47.6161 13.3486 46.5266 13.122 45.52 12.6769C44.5134 12.2318 43.6126 11.5784 42.877 10.7596C41.9283 9.75547 40.8789 8.85142 39.7454 8.06171C38.6536 7.24922 37.3378 6.79323 35.9774 6.75592C34.6403 6.79061 33.3451 7.2299 32.2628 8.01581C31.9334 8.22944 31.6189 8.4652 31.3215 8.72146C31.1283 8.89068 30.9364 9.06058 30.7412 9.2298L30.7008 9.2668C29.9307 9.94093 29.1353 10.637 28.3838 11.3646C27.1076 12.5982 25.4055 13.2932 23.6306 13.3054L22.9695 13.3294C21.5942 13.3481 20.2213 13.452 18.8589 13.6405C15.8808 14.1139 14.1317 15.7711 13.509 18.7047C13.2224 20.312 13.0916 21.9433 13.1185 23.5757C13.1167 24.5897 12.9087 25.5927 12.5072 26.5239C12.1057 27.455 11.5191 28.2947 10.783 28.9921C9.7095 30.0322 8.73032 31.1655 7.85693 32.3785C7.21511 33.252 6.7869 34.2638 6.60663 35.3327L6.59567 35.4121H6.54565V36.2534L6.55114 36.9899H6.59909L6.61211 37.0694C6.82622 38.249 7.32031 39.3601 8.05287 40.3092L8.08232 40.3462C8.19468 40.501 8.32348 40.6778 8.4694 40.8415C8.73248 41.1382 8.99419 41.4348 9.25589 41.7321L9.35318 41.8424C9.98141 42.5536 10.6295 43.29 11.2982 43.9936C12.4363 45.2026 13.0751 46.7973 13.0863 48.4577C13.1048 48.8147 13.1192 49.1702 13.1322 49.5299C13.1556 50.8036 13.2558 52.0747 13.4322 53.3363C13.5708 54.723 14.1836 56.0194 15.1673 57.0066C16.151 57.9938 17.4453 58.6113 18.8315 58.7547C20.2097 58.9681 21.6029 59.0698 22.9976 59.0589H23.2031C24.3037 59.0522 25.3932 59.279 26.3996 59.7245C27.406 60.1699 28.3065 60.8239 29.0415 61.6431C29.9916 62.6477 31.0426 63.5517 32.1778 64.341C33.2687 65.1557 34.5849 65.613 35.9459 65.6502C37.2823 65.614 38.5765 65.1743 39.6584 64.389C39.9875 64.1737 40.3024 63.9376 40.6011 63.6819C40.7929 63.5127 40.9882 63.3428 41.1814 63.1736L41.2328 63.1277C41.9973 62.4542 42.7872 61.7643 43.5408 61.0388C44.816 59.8056 46.5168 59.1104 48.2906 59.0973L48.9846 59.0733C50.3482 59.0539 51.7094 58.9505 53.0603 58.7636C56.0397 58.2882 57.7874 56.6309 58.4081 53.6939C58.6979 52.0844 58.8294 50.4504 58.8007 48.8153C58.8028 47.8022 59.0107 46.8 59.4118 45.8697C59.8129 44.9393 60.3989 44.1001 61.1341 43.4031C62.2099 42.3652 63.1906 41.233 64.0643 40.0201C64.7073 39.146 65.1356 38.1328 65.3146 37.0625L65.3255 36.983H65.3735L65.3701 35.4121ZM61.5589 38.4012C60.8007 39.4526 59.9454 40.4305 59.0042 41.3218C57.9546 42.3348 57.1271 43.5551 56.5743 44.905C56.0216 46.255 55.7555 47.7051 55.7931 49.1634C55.7971 50.3715 55.7165 51.5784 55.5519 52.7752C55.2779 54.6935 54.4229 55.5539 52.4896 55.8376C51.4178 55.9745 50.3396 56.055 49.2593 56.0787C48.7325 56.1007 48.2153 56.1212 47.7069 56.1541C45.5085 56.2538 43.4147 57.1213 41.7897 58.6054C41.4677 58.8979 41.1451 59.1987 40.8306 59.4891L40.7402 59.5741C39.9552 60.3423 39.123 61.0608 38.2485 61.7253C37.6004 62.2749 36.7925 62.6011 35.9445 62.6557C35.0935 62.5991 34.2831 62.2706 33.633 61.7184C32.6676 61.0061 31.7661 60.2111 30.9385 59.3425C29.9149 58.2698 28.6776 57.4237 27.3066 56.859C25.9355 56.2944 24.4613 56.0236 22.9791 56.0643H22.7139C21.6042 56.0637 20.496 55.9849 19.3974 55.8287C17.5223 55.5601 16.644 54.6811 16.3658 52.7937C16.2218 51.683 16.1376 50.5654 16.1137 49.4456L16.1082 49.3168C16.0918 48.8914 16.0753 48.4529 16.0493 48.0151C15.9464 45.7493 15.0318 43.596 13.4727 41.9486L13.4042 41.8801C12.6601 41.0792 11.8127 40.1694 11.0317 39.2521C10.0684 38.1176 9.60803 37.2537 9.54021 36.4548V36.1671C9.58367 35.3768 9.87275 34.6197 10.3671 34.0015C11.1242 32.9504 11.9779 31.9724 12.917 31.0803C13.9657 30.0673 14.7924 28.8475 15.3447 27.4982C15.897 26.1489 16.1628 24.6996 16.1254 23.2421C16.122 22.034 16.2026 20.8272 16.3665 19.6302C16.6405 17.712 17.4976 16.8515 19.4309 16.5679C20.4826 16.434 21.5404 16.3542 22.6002 16.3288H22.6612C23.186 16.3068 23.7018 16.2863 24.2136 16.2548C26.4114 16.1548 28.5045 15.2874 30.1287 13.8035C30.4028 13.5582 30.6686 13.3082 30.9317 13.0615L31.1529 12.856C31.9453 12.0798 32.7855 11.354 33.6686 10.6829C34.3171 10.1353 35.1237 9.80934 35.9705 9.75253C36.8223 9.80941 37.6332 10.1387 38.2834 10.6918C39.2486 11.4028 40.1495 12.1971 40.9758 13.0657C41.9997 14.1389 43.2372 14.9853 44.6086 15.5503C45.98 16.1154 47.4547 16.3864 48.9373 16.3459H49.2045C50.3149 16.3473 51.4238 16.426 52.5231 16.5816C54.3962 16.8501 55.2745 17.7305 55.5526 19.6165C55.6976 20.7265 55.7817 21.8435 55.8048 22.9626L55.8082 23.0379C55.8246 23.4819 55.8431 23.9402 55.8705 24.3917C55.9723 26.6576 56.8853 28.8115 58.4431 30.4602L58.465 30.4822C59.2254 31.2961 60.0893 32.2168 60.8847 33.154C61.85 34.2886 62.3084 35.1525 62.3762 35.9513V36.2383C62.3341 37.0281 62.0467 37.7851 61.5541 38.4039" fill="#9057CD"/>
<path d="M47.4041 36.4857C47.173 36.3814 46.9226 36.3268 46.669 36.3254C46.3733 36.3334 46.0839 36.4123 45.825 36.5553C45.5661 36.6984 45.3452 36.9014 45.181 37.1475C45.1609 37.1731 45.1406 37.2007 45.12 37.2304L45.0687 37.2989C45.0467 37.3338 45.0186 37.3674 45.0001 37.3962C43.3922 39.3425 41.4897 40.3263 39.3406 40.3263C38.7488 40.3232 38.1591 40.2559 37.5819 40.1256C36.1801 39.8867 34.8864 39.2202 33.8782 38.2172C32.87 37.2143 32.1966 35.9242 31.9504 34.5236C31.2893 31.5091 32.2601 28.951 34.8402 26.9231L34.8607 26.908C35.2389 26.6789 35.5244 26.324 35.6672 25.9055C35.81 25.487 35.801 25.0316 35.6417 24.6191C35.5111 24.2867 35.2807 24.0028 34.9822 23.8066C34.6838 23.6103 34.3319 23.5112 33.9749 23.523C33.7999 23.5237 33.6254 23.5404 33.4535 23.573C30.2234 24.1219 27.3164 25.8618 25.3063 28.4491C23.2961 31.0365 22.3289 34.2834 22.5954 37.5489C22.7641 39.6339 23.4421 41.6455 24.5699 43.4072C25.7458 45.243 27.3598 46.7577 29.2666 47.8147C31.1733 48.8718 33.313 49.4381 35.4931 49.4628H35.6205C37.7953 49.4594 39.9342 48.9083 41.8398 47.8603C43.7206 46.8274 45.3188 45.3481 46.4937 43.5524C47.1677 42.5282 47.6895 41.4115 48.0427 40.2373C48.2194 39.659 48.3372 39.0644 48.4332 38.5869C48.5428 38.171 48.4994 37.7296 48.3107 37.3432C48.1221 36.9567 47.8008 36.6509 47.4055 36.4816M45.1221 40.8977C44.9493 41.6723 44.5888 42.3927 44.0725 42.9955C43.0568 44.2025 41.7956 45.1794 40.373 45.8612C38.9885 46.5782 37.4645 46.9855 35.9069 47.0547H35.739C33.4239 47.067 31.1647 46.3435 29.2875 44.9884C29.1271 44.8706 28.9655 44.7473 28.8079 44.6198C28.1798 44.1061 27.6125 43.5223 27.1171 42.8797C26.1709 41.65 25.5139 40.2231 25.1947 38.7047C24.6864 36.3168 25.0123 33.8268 26.1179 31.6501C27.2235 29.4734 29.042 27.7416 31.2701 26.7436L31.5723 26.6107L31.3845 26.8793C27.8906 31.8722 29.4176 37.1557 32.3149 39.9529C32.5929 40.2216 32.8869 40.4733 33.1952 40.7066C33.3186 40.7984 33.4439 40.8908 33.5748 40.9806C33.6392 41.0251 33.7036 41.0669 33.768 41.1094C33.8968 41.1943 34.0297 41.2772 34.166 41.356C35.6757 42.2438 37.3947 42.713 39.146 42.7153C39.9521 42.7148 40.7551 42.614 41.5363 42.4152C41.6576 42.3837 41.7829 42.3508 41.9062 42.3158C42.0296 42.2809 42.1495 42.2405 42.2728 42.2001C42.7104 42.0509 43.1375 41.8723 43.5512 41.6657C43.6724 41.6047 43.7923 41.5424 43.9143 41.478C44.0362 41.4136 44.1534 41.341 44.2712 41.2724C44.5178 41.1231 44.7576 40.9683 44.9803 40.81L45.1666 40.6791L45.1221 40.8977Z" fill="#421C67"/>
<path d="M49.2504 27.1211C49.1253 26.6779 48.8595 26.2873 48.4931 26.0083C48.1267 25.7292 47.6796 25.5769 47.219 25.5741H47.0752C46.7312 25.617 46.3841 25.5234 46.1084 25.3134C45.8326 25.1033 45.6502 24.7936 45.6002 24.4506C45.4683 24.0035 45.1924 23.6125 44.8154 23.3385C44.4384 23.0644 43.9814 22.9226 43.5154 22.9351H43.486C43.0098 22.9162 42.5411 23.0584 42.1558 23.3388C41.7704 23.6191 41.4908 24.0212 41.3622 24.48C41.3409 24.648 41.2862 24.8101 41.2013 24.9566C41.1165 25.1032 41.0032 25.2313 40.8682 25.3334C40.7331 25.4355 40.579 25.5096 40.4148 25.5513C40.2507 25.593 40.0799 25.6015 39.9125 25.5762C39.894 25.5762 39.87 25.5762 39.844 25.5762H39.7351C39.2772 25.5778 38.8324 25.7289 38.4683 26.0065C38.1043 26.2842 37.8408 26.6731 37.7181 27.1142C37.5525 27.5425 37.5354 28.014 37.6697 28.4532C37.804 28.8923 38.0818 29.2737 38.4587 29.536C38.8072 29.7234 39.0685 30.0398 39.1865 30.4174C39.3046 30.795 39.2701 31.2039 39.0904 31.5564C38.9912 31.8722 38.9686 32.207 39.0243 32.5333C39.0801 32.8596 39.2126 33.1679 39.411 33.4329C39.6116 33.71 39.8744 33.9362 40.1783 34.0932C40.4822 34.2503 40.8187 34.3339 41.1607 34.3372C41.5575 34.3371 41.9455 34.2206 42.2768 34.0022C42.6307 33.7378 43.0534 33.5811 43.4942 33.5507C43.9205 33.5772 44.3289 33.7319 44.6657 33.9946C44.9946 34.2225 45.385 34.345 45.7851 34.3461C46.377 34.3162 46.9342 34.0581 47.3398 33.6261C47.7454 33.1941 47.9678 32.6217 47.9603 32.0291V32.0072C47.9697 31.8064 47.9378 31.6059 47.8665 31.418C47.7802 31.2584 47.7275 31.0828 47.7114 30.9021C47.6953 30.7214 47.7163 30.5393 47.7729 30.3669C47.8296 30.1945 47.9209 30.0355 48.0411 29.8996C48.1613 29.7637 48.3079 29.6538 48.4721 29.5765C48.8527 29.3091 49.1347 28.9238 49.2745 28.4801C49.4143 28.0364 49.4041 27.5591 49.2456 27.1218M46.7518 28.3077L45.6098 29.5765C45.537 29.6567 45.4836 29.7525 45.4536 29.8565C45.4235 29.9605 45.4177 30.07 45.4364 30.1766L45.6885 31.6091C45.6993 31.6712 45.6921 31.7351 45.6679 31.7932C45.6436 31.8513 45.6032 31.9013 45.5515 31.9373C45.4946 31.9798 45.4253 32.0025 45.3542 32.0017C45.3003 32.0015 45.2472 31.9883 45.1994 31.9633L43.8258 31.2454C43.7302 31.1945 43.6243 31.1662 43.5161 31.1626C43.4079 31.159 43.3003 31.1803 43.2016 31.2248L41.7321 31.8893C41.6766 31.9142 41.6154 31.9235 41.555 31.9162C41.4946 31.9089 41.4373 31.8854 41.3893 31.8481C41.3412 31.8108 41.3042 31.7612 41.2822 31.7045C41.2601 31.6478 41.2539 31.5862 41.2642 31.5262L41.5149 30.1102C41.5357 29.9952 41.5278 29.877 41.4919 29.7659C41.4561 29.6547 41.3934 29.5541 41.3094 29.473L40.1975 28.3878C40.1534 28.3451 40.1219 28.2912 40.1063 28.2319C40.0907 28.1725 40.0917 28.11 40.1091 28.0512C40.1266 27.9924 40.1598 27.9394 40.2052 27.8982C40.2506 27.8569 40.3065 27.8289 40.3667 27.8171L41.9233 27.5246C42.0271 27.506 42.1254 27.4644 42.2111 27.4028C42.2968 27.3413 42.3677 27.2614 42.4186 27.169L43.1777 25.7934C43.2061 25.7421 43.2474 25.6991 43.2975 25.6687C43.3476 25.6383 43.4048 25.6215 43.4634 25.62C43.5218 25.6178 43.5798 25.6313 43.6312 25.6592C43.6827 25.687 43.7257 25.7281 43.7559 25.7783L44.5958 27.1485C44.6488 27.2333 44.7187 27.3061 44.8013 27.3625C44.8838 27.4189 44.9771 27.4575 45.0754 27.476L46.5709 27.75C46.6295 27.761 46.684 27.7874 46.729 27.8264C46.774 27.8655 46.8078 27.9158 46.8269 27.9722C46.846 28.0286 46.8497 28.0891 46.8377 28.1475C46.8258 28.2058 46.7985 28.2599 46.7587 28.3042" fill="#421C67"/>
</g>
</g>
</g>
</g>
<defs>
<clipPath id="clip0_1_1400">
<rect width="71.25" height="71.25" fill="white" transform="translate(0.379883 0.590027)"/>
</clipPath>
<clipPath id="clip1_1_1400">
<rect width="71.25" height="71.25" fill="white" transform="translate(0.379883 0.590027)"/>
</clipPath>
<clipPath id="clip2_1_1400">
<rect width="71.25" height="71.25" fill="white" transform="translate(0.379883 0.590027)"/>
</clipPath>
</defs>
</svg>
