<svg width="197" height="61" viewBox="0 0 197 61" fill="none" xmlns="http://www.w3.org/2000/svg">
<g clip-path="url(#clip0_1_1728)">
<path d="M188.105 59.8476H8.50561C6.61325 59.853 4.79569 59.0815 3.44974 57.7014C2.1038 56.3213 1.3388 54.4447 1.32178 52.4815V8.27992C1.33853 6.31647 2.10341 4.43966 3.44938 3.05931C4.79536 1.67898 6.61307 0.907219 8.50561 0.912626H188.105C189.997 0.907219 191.815 1.67898 193.16 3.05931C194.506 4.43966 195.272 6.31647 195.289 8.27992V52.4804C195.272 54.4438 194.506 56.3207 193.16 57.701C191.815 59.0814 189.997 59.853 188.105 59.8476Z" fill="black"/>
<path d="M188.105 60.3783H8.50564C6.4703 60.3826 4.51645 59.549 3.07299 58.0602C2.35644 57.3337 1.78713 56.4659 1.39851 55.5077C1.0099 54.5496 0.809827 53.5206 0.810059 52.4811V8.2796C0.809691 7.23993 1.0097 6.2107 1.39831 5.25241C1.78693 4.29412 2.35631 3.42611 3.07299 2.69945C4.51645 1.2107 6.4703 0.376996 8.50564 0.381365H188.105C190.14 0.376996 192.093 1.2107 193.537 2.69945C194.253 3.42611 194.823 4.29412 195.212 5.25241C195.601 6.2107 195.8 7.23993 195.8 8.2796V52.48C195.8 53.5196 195.6 54.5486 195.212 55.5067C194.823 56.4648 194.253 57.3326 193.537 58.0592C192.093 59.5483 190.14 60.3824 188.105 60.3783ZM8.50564 1.44431C6.73984 1.44058 5.04477 2.1639 3.79249 3.45551C3.17255 4.08355 2.67989 4.83386 2.34347 5.66231C2.00706 6.49076 1.83368 7.38063 1.83354 8.2796V52.48C1.83368 53.379 2.00706 54.2689 2.34347 55.0974C2.67989 55.9258 3.17255 56.6761 3.79249 57.3042C5.04477 58.5958 6.73984 59.3191 8.50564 59.3154H188.105C189.87 59.3191 191.566 58.5958 192.818 57.3042C193.437 56.6761 193.931 55.9258 194.267 55.0974C194.603 54.2689 194.777 53.379 194.777 52.48V8.2796C194.777 7.38063 194.603 6.49076 194.267 5.66231C193.931 4.83386 193.437 4.08355 192.818 3.45551C191.566 2.1639 189.87 1.44058 188.105 1.44431H8.50564Z" fill="#707070"/>
<path d="M188.105 2.09342C189.695 2.08551 191.223 2.73244 192.354 3.89224C193.485 5.05204 194.127 6.63002 194.138 8.27992V52.4804C194.127 54.1303 193.485 55.7082 192.354 56.8681C191.223 58.0278 189.695 58.6747 188.105 58.6669H8.50561C6.9155 58.6745 5.3874 58.0275 4.25651 56.8677C3.12563 55.7079 2.4843 54.1301 2.4732 52.4804V8.27992C2.4843 6.6302 3.12563 5.0524 4.25651 3.89263C5.3874 2.73286 6.9155 2.08579 8.50561 2.09342H188.105ZM188.105 0.912626H8.50561C6.61307 0.907219 4.79536 1.67898 3.44938 3.05931C2.10341 4.43966 1.33853 6.31647 1.32178 8.27992V52.4804C1.3388 54.4436 2.1038 56.3202 3.44974 57.7004C4.79569 59.0804 6.61325 59.852 8.50561 59.8466H188.105C189.997 59.852 191.814 59.0804 193.16 57.7004C194.506 56.3202 195.271 54.4436 195.289 52.4804V8.27992C195.271 6.31665 194.506 4.44011 193.16 3.06C191.814 1.67988 189.997 0.907217 188.105 0.912626Z" fill="black"/>
<path d="M69.3911 15.9733C69.4151 16.5087 69.334 17.0437 69.1526 17.5455C68.9711 18.0473 68.6933 18.5057 68.3359 18.8925C67.9285 19.3231 67.4389 19.6606 66.8986 19.8837C66.3583 20.1069 65.779 20.2106 65.1979 20.1881C64.6173 20.1987 64.0405 20.0882 63.5018 19.8631C62.9631 19.6379 62.4735 19.3028 62.062 18.8778C61.2344 18.0114 60.77 16.8411 60.77 15.6214C60.77 14.4017 61.2344 13.2312 62.062 12.365C62.4721 11.9375 62.9613 11.6004 63.5002 11.3739C64.0391 11.1474 64.6165 11.0363 65.1979 11.0471C65.7993 11.0482 66.3944 11.1742 66.948 11.4177C67.4599 11.6284 67.916 11.9626 68.2786 12.3926L67.5355 13.1614C67.2461 12.8171 66.8851 12.5456 66.4799 12.367C66.0746 12.1884 65.6357 12.1074 65.1959 12.1303C64.765 12.1245 64.3373 12.207 63.9373 12.373C63.5371 12.539 63.1725 12.7852 62.8644 13.0977C62.2363 13.7762 61.8856 14.6805 61.8856 15.6214C61.8856 16.5621 62.2363 17.4664 62.8644 18.145C63.4887 18.7729 64.3264 19.1204 65.1959 19.1124C65.6355 19.1249 66.073 19.0449 66.4822 18.8774C66.8913 18.7098 67.2635 18.4582 67.5764 18.1375C68.0148 17.6562 68.2694 17.0259 68.2929 16.3642H65.1979V15.3086H69.3276C69.3729 15.527 69.3942 15.75 69.3911 15.9733Z" fill="white"/>
<path d="M65.1971 20.2729C64.6059 20.283 64.0188 20.17 63.4703 19.9407C62.9218 19.7114 62.4232 19.3705 62.0038 18.9381C61.1606 18.0559 60.6875 16.8636 60.6875 15.6212C60.6875 14.3787 61.1606 13.1865 62.0038 12.3043C62.422 11.8697 62.9203 11.527 63.469 11.2966C64.0176 11.0662 64.6053 10.9527 65.1971 10.963C65.8093 10.9646 66.4151 11.0927 66.9789 11.34C67.5039 11.5552 67.9717 11.8974 68.3432 12.3382L68.3913 12.3977L67.5327 13.2865L67.4753 13.2164C67.1942 12.8805 66.8427 12.6158 66.4478 12.4423C66.053 12.2687 65.6252 12.191 65.1971 12.2151C64.3483 12.2057 63.5304 12.5452 62.9219 13.1592C62.3101 13.8215 61.9684 14.7036 61.9684 15.6212C61.9684 16.5387 62.3101 17.4207 62.9219 18.0832C63.5318 18.6948 64.3488 19.0338 65.1971 19.0273C65.6261 19.0395 66.053 18.9615 66.4522 18.7982C66.8515 18.6348 67.2148 18.3895 67.5204 18.0769C67.9235 17.6331 68.1646 17.0574 68.202 16.4489H65.1152V15.2256H69.3923L69.4066 15.2915C69.4533 15.515 69.4753 15.7434 69.4721 15.9722C69.4955 16.5186 69.412 17.0642 69.2264 17.5763C69.0408 18.0883 68.7571 18.5559 68.3924 18.9508C67.9772 19.389 67.4788 19.7328 66.9287 19.9604C66.3786 20.188 65.7889 20.2945 65.1971 20.2729ZM65.1971 11.1329C64.6265 11.123 64.0598 11.2324 63.5309 11.4546C63.0019 11.6769 62.5216 12.0074 62.1184 12.4264C61.3064 13.2766 60.8509 14.4252 60.8509 15.6223C60.8509 16.8192 61.3064 17.9678 62.1184 18.8181C62.5228 19.2348 63.0036 19.5634 63.5323 19.7841C64.0611 20.0051 64.6271 20.1138 65.1971 20.104C65.7673 20.1248 66.3355 20.0222 66.8655 19.8029C67.3955 19.5834 67.8757 19.2521 68.2757 18.8298C68.6252 18.4503 68.8969 18.0012 69.0744 17.5097C69.2518 17.018 69.3315 16.4944 69.3083 15.97C69.3106 15.7766 69.2945 15.5835 69.2603 15.3934H65.2789V16.277H68.3811L68.3739 16.3692C68.3483 17.0506 68.0862 17.6993 67.636 18.1958C67.3154 18.5243 66.934 18.7822 66.5149 18.9539C66.0957 19.1256 65.6476 19.2076 65.1971 19.1951C64.3068 19.2021 63.4494 18.8463 62.8094 18.2043C62.1647 17.5098 61.8048 16.5832 61.8048 15.619C61.8048 14.6549 62.1647 13.7283 62.8094 13.0338C63.448 12.3894 64.3062 12.0329 65.1971 12.042C65.6336 12.0218 66.0693 12.1001 66.474 12.2715C66.8786 12.4429 67.2426 12.7033 67.5408 13.0348L68.1683 12.385C67.8203 11.9941 67.3922 11.6892 66.9155 11.4929C66.3714 11.2557 65.7872 11.1333 65.1971 11.1329Z" fill="white"/>
<path d="M76.0402 12.3236H72.1612V15.0931H75.6584V16.1466H72.1612V18.916H76.0402V19.9885H71.063V11.25H76.0402V12.3236Z" fill="white"/>
<path d="M70.9802 11.165H76.1212V12.4086H72.2422V15.0081H75.7394V16.2314H72.2422V18.8311H76.1212V20.0735H70.9802V11.165ZM75.9574 11.3349H71.1471V19.9036H75.9574V19.001H72.0785V16.0615H75.5798V15.178H72.0826V12.2386H75.9615L75.9574 11.3349Z" fill="white"/>
<path d="M80.736 19.9887H79.6378V12.3226H77.2593V11.249H83.1176V12.3226H80.7371L80.736 19.9887Z" fill="white"/>
<path d="M80.8168 20.0735H79.5508V12.4076H77.1721V11.1641H83.1944V12.4076H80.8137L80.8168 20.0735ZM79.7186 19.9036H80.653V12.2377H83.0306V11.3308H77.3359V12.2345H79.7146L79.7186 19.9036Z" fill="white"/>
<path d="M87.4438 19.9885V11.25H88.54V19.9885H87.4438Z" fill="white"/>
<path d="M88.6211 20.0735H87.3613V11.165H88.6211V20.0735ZM87.525 19.9036H88.4575V11.3307H87.5291L87.525 19.9036Z" fill="white"/>
<path d="M93.4514 19.9887H92.3624V12.3226H89.9746V11.249H95.8401V12.3226H93.4524L93.4514 19.9887Z" fill="white"/>
<path d="M93.5326 20.0735H92.2798V12.4076H89.8921V11.1641H95.9214V12.4076H93.5337L93.5326 20.0735ZM92.4436 19.9036H93.3647V12.2377H95.7526V11.3308H90.0507V12.2345H92.4385L92.4436 19.9036Z" fill="white"/>
<path d="M107.052 18.8641C106.217 19.7132 105.094 20.1887 103.925 20.1887C102.755 20.1887 101.633 19.7132 100.797 18.8641C99.991 17.9908 99.541 16.8282 99.541 15.6189C99.541 14.4096 99.991 13.247 100.797 12.3737C101.631 11.5248 102.752 11.0499 103.92 11.0513C105.088 11.0527 106.209 11.5303 107.041 12.3811C107.85 13.2508 108.303 14.4122 108.304 15.6212C108.305 16.8301 107.855 17.9925 107.048 18.8641H107.052ZM101.609 18.1314C102.227 18.7608 103.058 19.1133 103.924 19.1133C104.79 19.1133 105.621 18.7608 106.239 18.1314C106.85 17.4482 107.19 16.5505 107.19 15.6184C107.19 14.6863 106.85 13.7886 106.239 13.1054C105.621 12.476 104.79 12.1234 103.924 12.1234C103.058 12.1234 102.227 12.476 101.609 13.1054C100.998 13.7886 100.658 14.6863 100.658 15.6184C100.658 16.5505 100.998 17.4482 101.609 18.1314Z" fill="white"/>
<path d="M103.927 20.2734C103.334 20.2874 102.746 20.1749 102.197 19.9427C101.648 19.7105 101.151 19.3636 100.738 18.9237C99.9165 18.0342 99.4583 16.8501 99.4583 15.6185C99.4583 14.3868 99.9165 13.2027 100.738 12.3132C101.587 11.4469 102.73 10.962 103.921 10.9634C105.112 10.9648 106.254 11.4523 107.102 12.3206C107.926 13.2063 108.387 14.389 108.388 15.6201C108.39 16.8513 107.931 18.0349 107.109 18.9226C106.696 19.3623 106.201 19.709 105.653 19.9414C105.106 20.1738 104.518 20.2868 103.927 20.2734ZM103.927 11.1334C103.356 11.12 102.79 11.2286 102.261 11.4522C101.733 11.6758 101.255 12.0097 100.856 12.4332C100.065 13.2906 99.6235 14.4318 99.6235 15.6189C99.6235 16.806 100.065 17.9473 100.856 18.8048C101.676 19.6385 102.779 20.1056 103.927 20.1056C105.075 20.1056 106.177 19.6385 106.997 18.8048C107.398 18.3868 107.713 17.8892 107.924 17.3418C108.135 16.7944 108.238 16.2083 108.225 15.6189C108.233 15.0299 108.127 14.4453 107.914 13.8993C107.701 13.3533 107.385 12.8569 106.984 12.4392C106.584 12.0215 106.107 11.6909 105.582 11.4666C105.057 11.2424 104.495 11.1291 103.927 11.1334ZM103.927 19.1987C103.485 19.2069 103.047 19.1219 102.639 18.9488C102.23 18.7757 101.86 18.5182 101.55 18.192C100.924 17.4929 100.575 16.5736 100.575 15.6189C100.575 14.6643 100.924 13.745 101.55 13.0459C102.184 12.4003 103.036 12.0386 103.924 12.0386C104.812 12.0386 105.664 12.4003 106.297 13.0459C106.923 13.7451 107.271 14.664 107.271 15.6185C107.271 16.5728 106.923 17.4918 106.297 18.191C105.99 18.5182 105.62 18.7765 105.213 18.9497C104.805 19.1231 104.367 19.2078 103.927 19.1987ZM103.927 12.2091C103.507 12.1987 103.089 12.2781 102.7 12.4426C102.311 12.607 101.959 12.853 101.666 13.1648C101.071 13.8322 100.74 14.7081 100.74 15.6174C100.74 16.5267 101.071 17.4025 101.666 18.0699C102.269 18.6833 103.079 19.027 103.923 19.027C104.767 19.027 105.578 18.6833 106.181 18.0699C106.776 17.4025 107.107 16.5265 107.107 15.6169C107.107 14.7072 106.776 13.8313 106.181 13.1637C105.888 12.8533 105.537 12.6085 105.149 12.4443C104.761 12.2801 104.345 12.2001 103.927 12.2091Z" fill="white"/>
<path d="M109.95 19.9885V11.25H111.281L115.425 18.0463H115.473L115.425 16.3664V11.25H116.521V19.9885H115.377L111.037 12.8567H110.989L111.037 14.544V19.9885H109.95Z" fill="white"/>
<path d="M116.605 20.0735H115.334L115.309 20.0342L111.079 13.0829L111.12 14.5419V20.0735H109.867V11.165H111.327L111.352 11.2043L115.386 17.8211L115.345 16.3685V11.165H116.605V20.0735ZM115.424 19.9036H116.441V11.3307H115.509V16.3621L115.559 18.127H115.382L115.357 18.0877L111.238 11.3307H110.032V19.8993H110.953V14.5398L110.903 12.7675H111.08L111.105 12.8068L115.424 19.9036Z" fill="white"/>
<path d="M100.239 33.2488C99.0615 33.2687 97.9158 33.6492 96.9459 34.3424C95.9759 35.0357 95.2251 36.0108 94.7878 37.1454C94.3503 38.28 94.2458 39.5234 94.4872 40.7193C94.7286 41.9153 95.3053 43.0106 96.1449 43.8677C96.9844 44.7249 98.0493 45.3054 99.2058 45.5366C100.362 45.7677 101.559 45.6392 102.645 45.1672C103.732 44.695 104.659 43.9004 105.312 42.8831C105.964 41.8658 106.312 40.6711 106.312 39.4491C106.319 38.6242 106.166 37.8065 105.862 37.0443C105.558 36.2822 105.11 35.5913 104.543 35.0127C103.976 34.4342 103.303 33.9799 102.564 33.6769C101.825 33.3738 101.034 33.2282 100.239 33.2488ZM100.239 43.206C99.5137 43.2502 98.7921 43.0674 98.168 42.6812C97.5438 42.2951 97.0458 41.7233 96.7385 41.0401C96.4311 40.357 96.3286 39.5937 96.4442 38.8494C96.5598 38.1049 96.8883 37.4137 97.3868 36.8653C97.8854 36.3168 98.5313 35.9363 99.2407 35.7731C99.9503 35.6099 100.691 35.6714 101.366 35.9498C102.041 36.2282 102.621 36.7106 103.029 37.3346C103.437 37.9584 103.655 38.6952 103.654 39.4491C103.675 39.9301 103.601 40.4104 103.439 40.8615C103.277 41.3127 103.03 41.7257 102.712 42.0759C102.393 42.4261 102.01 42.7067 101.586 42.9007C101.161 43.0949 100.703 43.1987 100.239 43.206ZM87.0024 33.2488C85.8245 33.2672 84.678 33.6464 83.7072 34.3389C82.7363 35.0313 81.9844 36.0059 81.5458 37.1404C81.1073 38.2748 81.0017 39.5184 81.2424 40.7149C81.4831 41.9115 82.0592 43.0075 82.8984 43.8653C83.7376 44.7231 84.8026 45.3044 85.9593 45.5361C87.1161 45.768 88.313 45.6398 89.3998 45.1679C90.4865 44.6959 91.4146 43.9013 92.0674 42.8839C92.7201 41.8664 93.0685 40.6713 93.0686 39.4491C93.0761 38.6248 92.9237 37.8074 92.6204 37.0456C92.3171 36.2838 91.8693 35.5931 91.3034 35.0145C90.7374 34.436 90.065 33.9816 89.3264 33.6782C88.5877 33.3749 87.7967 33.2288 87.0024 33.2488ZM87.0024 43.206C86.2765 43.2519 85.554 43.0705 84.9286 42.6853C84.3032 42.3001 83.8038 41.7288 83.4951 41.0456C83.1865 40.3624 83.0828 39.5987 83.1976 38.8536C83.3123 38.1085 83.6401 37.4163 84.1385 36.8668C84.637 36.3174 85.2832 35.9359 85.9931 35.7721C86.7029 35.6082 87.4439 35.6694 88.1199 35.9477C88.796 36.2259 89.3758 36.7085 89.7843 37.3329C90.1927 37.9572 90.4109 38.6946 90.4106 39.4491C90.4295 39.9291 90.3559 40.4082 90.194 40.8583C90.0322 41.3084 89.7853 41.7206 89.468 42.0705C89.1507 42.4203 88.7692 42.7009 88.346 42.8959C87.9229 43.0909 87.4655 43.1964 87.0024 43.206ZM71.2561 35.1485V37.783H77.3919C77.3036 39.0185 76.8115 40.1858 75.9968 41.0918C75.3773 41.7342 74.6364 42.2368 73.8204 42.5676C73.0044 42.8983 72.1314 43.0502 71.2561 43.0137C69.4676 43.0137 67.7523 42.2766 66.4876 40.9645C65.223 39.6524 64.5124 37.8727 64.5124 36.0171C64.5124 34.1614 65.223 32.3818 66.4876 31.0697C67.7523 29.7575 69.4676 29.0204 71.2561 29.0204C72.975 28.9929 74.6355 29.6675 75.8793 30.8989L77.6897 29.0427C76.8392 28.1818 75.8328 27.5039 74.7286 27.0483C73.6244 26.5927 72.4443 26.3683 71.2561 26.388C70.0156 26.3522 68.7807 26.5749 67.6245 27.0428C66.4683 27.5107 65.4142 28.2142 64.5245 29.1119C63.6348 30.0096 62.9277 31.0832 62.4449 32.2694C61.962 33.4555 61.7131 34.7301 61.7131 36.0176C61.7131 37.3053 61.962 38.5797 62.4449 39.7659C62.9277 40.952 63.6348 42.0256 64.5245 42.9234C65.4142 43.8211 66.4683 44.5247 67.6245 44.9926C68.7807 45.4604 70.0156 45.683 71.2561 45.6472C72.4699 45.6999 73.6805 45.4863 74.8093 45.0205C75.9379 44.5546 76.9593 43.847 77.8065 42.9437C78.692 41.8878 79.3387 40.6398 79.6991 39.2909C80.0595 37.9421 80.1244 36.5268 79.8892 35.1485H71.2561ZM135.66 37.1915C135.292 36.0627 134.597 35.079 133.671 34.3738C132.744 33.6685 131.632 33.2758 130.483 33.2488C129.711 33.2494 128.948 33.4123 128.237 33.7278C127.528 34.0432 126.888 34.5047 126.356 35.0843C125.823 35.6639 125.409 36.3494 125.139 37.0996C124.869 37.8499 124.748 38.6491 124.784 39.4491C124.771 40.2688 124.917 41.0828 125.215 41.8424C125.512 42.602 125.954 43.2918 126.513 43.8705C127.072 44.4491 127.74 44.9047 128.473 45.2102C129.206 45.5157 129.991 45.6646 130.781 45.6483C131.775 45.6582 132.755 45.4123 133.635 44.9327C134.514 44.4531 135.266 43.7547 135.821 42.9002L133.76 41.4921C133.448 42.0198 133.008 42.4552 132.488 42.7555C131.966 43.056 131.378 43.2115 130.781 43.2071C130.168 43.2319 129.562 43.0662 129.041 42.7313C128.519 42.3964 128.107 41.9076 127.855 41.3275L135.94 37.8966L135.66 37.1915ZM127.416 39.2558C127.392 38.8028 127.454 38.3493 127.599 37.9216C127.746 37.4939 127.972 37.1006 128.265 36.7646C128.559 36.4286 128.915 36.1566 129.311 35.9645C129.707 35.7724 130.136 35.6639 130.573 35.6454C131.031 35.613 131.488 35.7203 131.889 35.954C132.288 36.1878 132.614 36.5379 132.825 36.9611L127.416 39.2558ZM120.843 45.2702H123.504V27.0496H120.843V45.2702ZM116.489 34.6293H116.4C115.994 34.1796 115.501 33.8241 114.953 33.5862C114.405 33.3484 113.815 33.2333 113.221 33.2488C111.666 33.296 110.191 33.9699 109.107 35.1274C108.024 36.285 107.418 37.8349 107.418 39.4485C107.418 41.062 108.024 42.6121 109.107 43.7697C110.191 44.9272 111.666 45.601 113.221 45.6483C113.817 45.6643 114.41 45.5467 114.959 45.3035C115.507 45.0604 115.999 44.6973 116.4 44.2391H116.489V45.1279C116.489 47.498 115.255 48.7724 113.262 48.7724C112.6 48.7565 111.958 48.5379 111.415 48.144C110.873 47.7499 110.455 47.1982 110.215 46.5584L107.903 47.5479C108.346 48.641 109.092 49.573 110.046 50.2256C111 50.8781 112.119 51.222 113.262 51.2135C116.378 51.2135 119.009 49.333 119.009 44.7574V33.6258H116.489V34.6293ZM113.449 43.206C112.536 43.1347 111.682 42.7079 111.059 42.011C110.436 41.314 110.089 40.3986 110.089 39.448C110.089 38.4974 110.436 37.582 111.059 36.8852C111.682 36.1883 112.536 35.7613 113.449 35.69C114.337 35.7976 115.156 36.2396 115.751 36.9325C116.345 37.6253 116.673 38.5205 116.673 39.448C116.673 40.3756 116.345 41.2707 115.751 41.9636C115.156 42.6564 114.337 43.0985 113.449 43.206ZM148.105 27.0496H141.748V45.2702H144.398V38.3681H148.105C148.851 38.4201 149.601 38.3124 150.306 38.0516C151.011 37.7908 151.658 37.3824 152.204 36.8518C152.751 36.3213 153.187 35.6798 153.485 34.9673C153.783 34.2547 153.937 33.4861 153.937 32.7094C153.937 31.9325 153.783 31.1641 153.485 30.4515C153.187 29.7389 152.751 29.0975 152.204 28.5668C151.658 28.0363 151.011 27.628 150.306 27.3671C149.601 27.1064 148.851 26.9977 148.105 27.0496ZM148.174 35.8323H144.399V29.5843H148.174C148.58 29.5688 148.983 29.6381 149.361 29.7881C149.74 29.9381 150.086 30.1658 150.378 30.4575C150.669 30.749 150.901 31.0987 151.059 31.4855C151.218 31.8722 151.299 32.2881 151.299 32.7083C151.299 33.1285 151.218 33.5444 151.059 33.9312C150.901 34.3179 150.669 34.6676 150.378 34.9592C150.086 35.2509 149.74 35.4785 149.361 35.6285C148.983 35.7785 148.58 35.8478 148.174 35.8323ZM164.563 33.2137C163.6 33.1537 162.64 33.3853 161.801 33.8805C160.961 34.3757 160.279 35.1132 159.837 36.0033L162.191 37.0142C162.426 36.5719 162.78 36.2098 163.21 35.9721C163.639 35.7344 164.126 35.6314 164.612 35.6752C165.281 35.6044 165.95 35.811 166.474 36.25C166.997 36.6891 167.33 37.325 167.403 38.0188V38.2099C166.549 37.7424 165.598 37.5003 164.633 37.5048C162.1 37.5048 159.515 38.9352 159.515 41.6047C159.515 44.047 161.591 45.6186 163.924 45.6186C164.59 45.6594 165.254 45.5155 165.85 45.2016C166.445 44.8877 166.949 44.4152 167.31 43.8325H167.401V45.2405H169.959V38.2481C169.961 35.0211 167.607 33.2137 164.561 33.2137H164.563ZM164.243 43.1954C163.375 43.1954 162.167 42.7547 162.167 41.6524C162.167 40.2422 163.674 39.7007 164.978 39.7007C165.824 39.6797 166.661 39.8911 167.402 40.3134C167.299 41.1093 166.924 41.8397 166.342 42.3701C165.761 42.9003 165.014 43.1946 164.24 43.1985L164.243 43.1954ZM179.288 33.6087L176.241 41.5081H176.151L173.001 33.6087H170.141L174.874 44.6523L172.173 50.7952H174.944L182.238 33.6141L179.288 33.6087ZM155.391 45.2671H158.051V27.0496H155.391V45.2671Z" fill="white"/>
<path d="M16.1536 12.2161C15.6859 12.7847 15.4497 13.5195 15.4944 14.2655V46.5019C15.4494 47.2479 15.6858 47.9829 16.1536 48.5513L16.2559 48.65L33.8722 30.5981V30.1735L16.2559 12.1216L16.1536 12.2161Z" fill="url(#paint0_linear_1_1728)"/>
<path d="M40.1202 36.6165L34.2546 30.5944V30.1696L40.1274 24.1475L40.2595 24.2259L47.214 28.2836C49.1986 29.4358 49.1986 31.3303 47.214 32.4888L40.2595 36.5401L40.1202 36.6165Z" fill="url(#paint1_linear_1_1728)"/>
<path d="M39.8797 36.6865L33.876 30.5273L16.1594 48.7022C16.8186 49.4126 17.8932 49.4986 19.1163 48.7882L39.8828 36.6823" fill="url(#paint2_linear_1_1728)"/>
<path d="M39.879 24.0762L19.1127 11.9702C17.8905 11.2672 16.8149 11.3521 16.1558 12.0636L33.8754 30.2332L39.879 24.0762Z" fill="url(#paint3_linear_1_1728)"/>
</g>
<defs>
<linearGradient id="paint0_linear_1_1728" x1="34.4788" y1="-87.8933" x2="6.15668" y2="-80.4472" gradientUnits="userSpaceOnUse">
<stop stop-color="#00A0FF"/>
<stop offset="0.007" stop-color="#00A1FF"/>
<stop offset="0.26" stop-color="#00BEFF"/>
<stop offset="0.512" stop-color="#00D2FF"/>
<stop offset="0.76" stop-color="#00DFFF"/>
<stop offset="1" stop-color="#00E3FF"/>
</linearGradient>
<linearGradient id="paint1_linear_1_1728" x1="51.9387" y1="-71.3037" x2="17.6253" y2="-71.3037" gradientUnits="userSpaceOnUse">
<stop stop-color="#FFE000"/>
<stop offset="0.409" stop-color="#FFBD00"/>
<stop offset="0.775" stop-color="#FFA500"/>
<stop offset="1" stop-color="#FF9C00"/>
</linearGradient>
<linearGradient id="paint2_linear_1_1728" x1="26.9536" y1="-80.0944" x2="3.57465" y2="-41.2542" gradientUnits="userSpaceOnUse">
<stop stop-color="#FF3A44"/>
<stop offset="1" stop-color="#C31162"/>
</linearGradient>
<linearGradient id="paint3_linear_1_1728" x1="2.08782" y1="-88.3904" x2="12.5376" y2="-71.036" gradientUnits="userSpaceOnUse">
<stop stop-color="#32A071"/>
<stop offset="0.068" stop-color="#2DA771"/>
<stop offset="0.476" stop-color="#15CF74"/>
<stop offset="0.801" stop-color="#06E775"/>
<stop offset="1" stop-color="#00F076"/>
</linearGradient>
<clipPath id="clip0_1_1728">
<rect width="195.59" height="59.9969" fill="white" transform="translate(0.810059 0.381348)"/>
</clipPath>
</defs>
</svg>
