<svg width="170" height="171" viewBox="0 0 170 171" fill="none" xmlns="http://www.w3.org/2000/svg">
<g clip-path="url(#clip0_1_1798)">
<path d="M72.7115 52.5833C72.7284 52.2255 72.8068 51.8733 72.9435 51.5422C73.1752 50.9277 73.5526 50.3787 74.0433 49.9423C74.505 49.533 75.0582 49.2405 75.6564 49.0892C76.1474 48.973 76.6543 48.9392 77.1564 48.9893C77.508 49.0158 77.8528 49.101 78.1764 49.2412C78.4586 49.3487 78.7226 49.4988 78.9593 49.6863C79.249 49.8668 79.5019 50.1006 79.7045 50.3752C79.7895 50.5272 79.9395 50.6412 80.0375 50.7872C80.1192 50.9239 80.1923 51.0655 80.2565 51.2112C80.4375 51.2412 80.6074 51.2813 80.7784 51.2953C80.9494 51.3093 81.1223 51.2902 81.2943 51.3002C81.4473 51.3102 81.5943 51.3402 81.7513 51.3622C81.8962 51.3613 82.0407 51.3781 82.1815 51.4122C82.3291 51.4531 82.4805 51.4779 82.6334 51.4862C83.3225 51.5811 84.0002 51.7452 84.6564 51.9762C85.0144 52.1002 85.3634 52.2423 85.7084 52.3953C86.3099 52.6689 86.8871 52.9934 87.4335 53.3652C87.6995 53.5422 87.9334 53.7722 88.1874 53.9652C88.5618 54.2629 88.9098 54.5925 89.2274 54.9502C89.7026 55.4477 90.1164 56.0003 90.4603 56.5962C90.6523 56.9252 90.8665 57.2442 91.0255 57.5892C91.2771 58.13 91.4961 58.6853 91.6815 59.2522C91.8195 59.6802 91.9003 60.1242 92.0543 60.5522C92.089 60.6794 92.1106 60.8098 92.1185 60.9413C92.1605 61.2413 92.2463 61.5412 92.2723 61.8522C92.3013 62.1992 92.3465 62.5523 92.4015 62.8943C92.4458 63.3144 92.462 63.7369 92.4503 64.1592C92.4613 64.5782 92.4503 64.9973 92.4503 65.4163C92.4503 65.5993 92.4503 65.7812 92.4503 65.9642C92.441 66.0158 92.425 66.066 92.4025 66.1133C92.4686 66.1823 92.5477 66.2373 92.6354 66.2753C92.8392 66.3341 93.0279 66.4364 93.1883 66.5752C93.3466 66.703 93.4931 66.8445 93.6263 66.9982C93.8322 67.2597 93.9895 67.5561 94.0904 67.8732C94.1493 68.0468 94.1828 68.2281 94.1903 68.4113C94.2223 68.5878 94.2069 68.7697 94.1454 68.9382C94.0834 69.0582 94.1315 69.2142 94.0765 69.3602C93.9687 69.6655 93.8033 69.9472 93.5895 70.1902C93.5325 70.2542 93.4663 70.3102 93.4083 70.3732C93.0964 70.6819 92.7013 70.8932 92.2713 70.9812C92.0455 71.0252 91.8152 71.0423 91.5853 71.0322C91.0623 71.0335 90.5554 70.8516 90.1525 70.5182C89.7568 70.2003 89.4677 69.7691 89.3243 69.2822C89.2598 69.1198 89.2261 68.9469 89.2245 68.7722C89.2036 68.4405 89.2479 68.1078 89.3553 67.7932C89.4905 67.3211 89.7835 66.9095 90.1854 66.6272C90.465 66.3959 90.7921 66.2289 91.1434 66.1382C91.2216 66.1224 91.3023 66.1224 91.3805 66.1382L91.4964 66.0382C91.4208 65.7654 91.3943 65.4813 91.4183 65.1992C91.4083 65.0352 91.3763 64.8732 91.3563 64.7102C91.361 64.5442 91.3428 64.3784 91.3024 64.2173C91.2614 64.0585 91.2402 63.8952 91.2394 63.7312C91.2024 63.4032 91.1225 63.0842 91.0885 62.7552C91.0424 62.4468 90.9754 62.1418 90.8883 61.8423C90.7723 61.3683 90.6135 60.9053 90.4615 60.4423C90.4175 60.3093 90.2943 60.2042 90.3233 60.0482C90.0883 59.5652 89.8714 59.0722 89.6124 58.6022C89.3823 58.207 89.1269 57.8273 88.8475 57.4652C88.4618 56.9605 88.0309 56.4919 87.5604 56.0652C87.2308 55.7558 86.8686 55.4829 86.4803 55.2512C85.9557 54.9455 85.4085 54.6805 84.8434 54.4583C84.3854 54.2703 83.9045 54.1852 83.4435 54.0262C83.252 53.9828 83.0567 53.9587 82.8605 53.9542C82.7217 53.916 82.5792 53.8932 82.4354 53.8862C82.291 53.9184 82.1399 53.8989 82.0084 53.8312C81.9634 53.8022 81.8825 53.8312 81.8185 53.8312H80.6185C80.5343 54.0212 80.4636 54.2171 80.4073 54.4172C80.2754 54.7429 80.1053 55.0518 79.9005 55.3373C79.765 55.511 79.619 55.6763 79.4635 55.8323C78.9766 56.3096 78.3786 56.6583 77.7235 56.8472C77.5544 56.8883 77.383 56.9198 77.2103 56.9413C76.975 56.993 76.7334 57.0078 76.4935 56.9852C76.0097 56.9491 75.5357 56.8287 75.0934 56.6293C74.5842 56.4045 74.127 56.077 73.7504 55.6672C73.6794 55.5872 73.6054 55.5102 73.5314 55.4302C73.1964 55.5702 72.8735 55.6972 72.5555 55.8392C71.8745 56.1392 71.1875 56.4392 70.5375 56.8032C70.2065 56.9892 69.8565 57.1422 69.5375 57.3602C69.3375 57.5002 69.0913 57.5832 68.8773 57.7092C68.4773 57.9442 68.0924 58.1992 67.6944 58.4352C67.1911 58.7338 66.6981 59.0486 66.2154 59.3793C65.9384 59.5693 65.6704 59.7743 65.3924 59.9623C65.0924 60.1683 64.7923 60.3892 64.4923 60.5912C64.3463 60.6912 64.2234 60.8092 64.0804 60.9082C63.6174 61.2302 63.1854 61.5962 62.7274 61.9272C62.5324 62.0682 62.3705 62.2532 62.1805 62.4012C61.8455 62.6622 61.5473 62.9682 61.1903 63.2012C61.1737 63.2149 61.1585 63.23 61.1444 63.2462C60.8574 63.5122 60.5814 63.7923 60.2784 64.0403C59.9754 64.2883 59.7025 64.6062 59.3905 64.8572C59.1553 65.0532 58.9306 65.2615 58.7174 65.4812C57.8327 66.3592 56.951 67.2406 56.0724 68.1252C55.7376 68.4507 55.42 68.7931 55.1205 69.1512C54.9335 69.3842 54.7044 69.5732 54.5204 69.8052C54.2264 70.1832 53.8834 70.5173 53.6004 70.9053C53.4654 71.0893 53.2874 71.2412 53.1444 71.4252C52.9024 71.7392 52.6203 72.0252 52.3763 72.3352C52.0583 72.7412 51.7533 73.1573 51.4193 73.5513C51.2646 73.7303 51.122 73.9193 50.9923 74.1172C50.8663 74.3172 50.7244 74.5042 50.5834 74.6832C50.3594 74.9662 50.1533 75.2623 49.9403 75.5513C49.6613 75.9283 49.3763 76.3013 49.1173 76.6923C48.9673 76.9203 48.7974 77.1352 48.6564 77.3702C48.5154 77.6052 48.3493 77.8232 48.2003 78.0522C47.9163 78.4922 47.6233 78.9252 47.3653 79.3812C47.1763 79.7142 46.9493 80.0263 46.7413 80.3483C46.6483 80.4923 46.5524 80.6342 46.4674 80.7832C46.2404 81.1832 46.0104 81.5833 45.7674 81.9833C45.6354 82.2023 45.5153 82.4363 45.3863 82.6613C45.1333 83.1043 44.9215 83.5672 44.6615 84.0072C44.4195 84.4182 44.2244 84.8572 44.0104 85.2842C43.8083 85.6501 43.6247 86.026 43.4603 86.4103C43.2963 86.8393 43.0604 87.2292 42.8934 87.6592C42.7614 88.0102 42.5933 88.3502 42.4493 88.7002C42.256 89.1789 42.0644 89.6582 41.8744 90.1382C41.7464 90.4612 41.6214 90.7852 41.4964 91.1102C41.3824 91.4069 41.2748 91.7069 41.1734 92.0103C41.0534 92.3693 40.9434 92.7323 40.8304 93.0933C40.7494 93.3503 40.6703 93.6072 40.5943 93.8502C40.6725 94.0271 40.7608 94.1993 40.8585 94.3662C41.0585 94.6772 41.2394 95.0062 41.4134 95.3312C41.6634 95.7992 41.9515 96.2452 42.2135 96.7072C42.4935 97.2072 42.8014 97.6922 43.1134 98.1762C43.3134 98.4892 43.5295 98.7912 43.7025 99.1232C43.872 99.4119 44.0582 99.6904 44.2604 99.9572C44.501 100.309 44.7428 100.661 44.9855 101.011C45.1855 101.295 45.3695 101.586 45.5795 101.863C45.8255 102.186 46.0414 102.531 46.2794 102.863C46.4224 103.063 46.5794 103.255 46.7254 103.452C46.9904 103.804 47.2735 104.143 47.5255 104.504C47.7255 104.784 47.9743 105.025 48.1783 105.304C48.4003 105.604 48.6615 105.867 48.8685 106.177C48.9652 106.313 49.071 106.441 49.1854 106.562C49.3854 106.791 49.6125 107.003 49.7955 107.246C49.9785 107.489 50.2113 107.67 50.3873 107.904C50.5633 108.138 50.8074 108.35 51.0084 108.58C51.9364 109.648 52.9843 110.598 53.9803 111.6C54.2323 111.853 54.4983 112.1 54.7713 112.332C55.0813 112.597 55.4024 112.849 55.6974 113.132C55.8176 113.235 55.9431 113.332 56.0733 113.422C56.2792 113.398 56.4798 113.341 56.6673 113.253C57.1963 113.108 57.6945 112.876 58.2145 112.705C58.6275 112.569 59.0145 112.365 59.4225 112.197C60.0225 111.949 60.5974 111.658 61.1854 111.397C61.4975 111.268 61.8029 111.124 62.1004 110.964C62.4904 110.738 62.9005 110.564 63.2845 110.316C63.3205 110.293 63.3554 110.269 63.3844 110.251C63.1375 109.758 63.0958 109.187 63.2684 108.663C63.4056 108.145 63.7416 107.701 64.2035 107.428C64.5092 107.25 64.8508 107.142 65.2035 107.112C65.5634 107.084 65.9248 107.147 66.2535 107.296C66.5524 107.408 66.8182 107.593 67.0265 107.834C67.2206 108.053 67.3693 108.308 67.464 108.585C67.5586 108.861 67.5972 109.154 67.5777 109.446C67.5583 109.738 67.4812 110.023 67.3507 110.284C67.2201 110.546 67.0389 110.779 66.8175 110.97C66.3772 111.352 65.8044 111.545 65.223 111.507C64.6416 111.47 64.098 111.205 63.7103 110.77C62.7103 111.488 61.6735 112.151 60.6105 112.77C59.5575 113.394 58.4693 113.957 57.3514 114.455C57.5124 114.568 57.6444 114.655 57.7704 114.75C57.9594 114.891 58.1355 115.056 58.3365 115.177C58.5375 115.298 58.6675 115.484 58.8915 115.547C59.3043 115.878 59.7386 116.182 60.1915 116.455C60.4375 116.627 60.7185 116.747 60.9645 116.918C61.3705 117.199 61.8153 117.412 62.2423 117.655C62.5132 117.844 62.8161 117.983 63.1363 118.064C63.1842 118.078 63.2297 118.1 63.2713 118.127C63.8136 118.398 64.3704 118.639 64.9393 118.848C65.3203 118.995 65.7034 119.139 66.0924 119.248C66.3994 119.336 66.7104 119.428 67.0284 119.49C67.2662 119.527 67.5003 119.584 67.7284 119.661C67.8787 119.693 68.0311 119.714 68.1844 119.724C68.4039 119.794 68.635 119.819 68.8644 119.799C69.4538 119.879 70.0499 119.899 70.6434 119.858C70.9473 119.869 71.2514 119.847 71.5504 119.791C71.8684 119.729 72.1915 119.691 72.5035 119.603C72.8385 119.503 73.1714 119.403 73.4974 119.28C73.7582 119.184 74.0122 119.069 74.2574 118.938C74.6769 118.718 75.08 118.468 75.4635 118.189C75.7279 118.004 75.9769 117.799 76.2084 117.574C76.4264 117.351 76.6543 117.138 76.8673 116.911C77.2993 116.431 77.6845 115.911 78.0174 115.358C78.1734 115.111 78.2993 114.848 78.4503 114.599C78.6241 114.287 78.7753 113.962 78.9025 113.628C79.0135 113.365 79.1294 113.098 79.2164 112.828C79.2394 112.754 79.2595 112.679 79.2875 112.58C79.1912 112.543 79.0979 112.499 79.0084 112.447C78.7127 112.259 78.4544 112.018 78.2464 111.735C77.9679 111.382 77.8167 110.946 77.8175 110.496C77.8245 110.346 77.8075 110.196 77.8175 110.045C77.8528 109.621 78.0058 109.215 78.2594 108.873C78.4716 108.578 78.7444 108.332 79.0594 108.15C79.2738 108.045 79.4941 107.954 79.7193 107.875C79.8503 107.853 79.9804 107.823 80.1124 107.813C80.2512 107.797 80.3915 107.797 80.5304 107.813C81.0251 107.869 81.4909 108.074 81.8653 108.402C81.9379 108.454 82.0077 108.51 82.0743 108.569C82.2073 108.726 82.3305 108.891 82.4525 109.057C82.485 109.107 82.5102 109.162 82.5275 109.219C82.6161 109.443 82.6851 109.674 82.7335 109.91C82.7784 110.08 82.7938 110.257 82.7794 110.432C82.7588 110.715 82.6951 110.992 82.5904 111.255C82.4393 111.618 82.2049 111.939 81.9064 112.194C81.7209 112.35 81.5145 112.48 81.2933 112.579C81.1085 112.654 80.9196 112.717 80.7274 112.769C80.6036 112.785 80.4785 112.786 80.3544 112.774C80.2933 112.917 80.2447 113.065 80.2093 113.216C80.1236 113.638 80.0021 114.052 79.8463 114.453C79.6993 114.897 79.5054 115.322 79.3304 115.753C79.0427 116.415 78.6881 117.046 78.2723 117.636C78.0568 117.952 77.8231 118.255 77.5724 118.544C77.3394 118.82 77.0874 119.076 76.8314 119.328C76.3479 119.795 75.8181 120.211 75.2504 120.57C75.011 120.714 74.7636 120.844 74.5094 120.959C74.2837 121.107 74.0365 121.219 73.7765 121.29C73.3775 121.495 72.9568 121.654 72.5223 121.765C72.3121 121.834 72.0974 121.888 71.8795 121.926C71.6095 121.983 71.3353 122.026 71.0653 122.07C70.8653 122.105 70.6654 122.08 70.4784 122.127C70.103 122.188 69.722 122.207 69.3424 122.183C68.9664 122.192 68.5895 122.171 68.2145 122.192C68.0605 122.2 67.9354 122.115 67.7894 122.12C67.6514 122.144 67.5103 122.14 67.3734 122.111C67.2274 122.054 67.0794 122.092 66.9474 122.048C66.8154 122.004 66.6763 122.023 66.5543 121.985C66.2173 121.885 65.8675 121.831 65.5265 121.751C65.1545 121.664 64.7915 121.535 64.4125 121.472C64.2657 121.442 64.1228 121.396 63.9864 121.334C63.8393 121.304 63.6961 121.257 63.5594 121.194C63.4355 121.131 63.3045 121.083 63.1693 121.05C63.0303 120.998 62.8864 120.95 62.7464 120.905C62.4714 120.815 62.2093 120.695 61.9393 120.593C61.0286 120.219 60.1381 119.798 59.2713 119.331C58.8803 119.131 58.5053 118.891 58.1263 118.665C57.7203 118.423 57.3135 118.184 56.9205 117.924C56.5275 117.664 56.1283 117.424 55.7623 117.134C55.5403 116.957 55.2854 116.824 55.0624 116.641C54.8624 116.48 54.6475 116.341 54.4435 116.194C54.2395 116.047 54.0375 115.882 53.8295 115.722C53.4595 115.869 53.0703 115.922 52.6983 116.046C52.4693 116.121 52.2195 116.131 51.9835 116.19C51.6835 116.263 51.3834 116.275 51.0914 116.37C51.0719 116.376 51.0517 116.379 51.0314 116.38C50.7708 116.387 50.5111 116.411 50.2535 116.451C49.8855 116.531 49.5094 116.451 49.1534 116.523C48.8623 116.564 48.5683 116.579 48.2745 116.569C48.0905 116.569 47.9053 116.522 47.7203 116.512C47.5274 116.523 47.334 116.52 47.1415 116.503C46.8415 116.441 46.5254 116.445 46.2274 116.375C45.8164 116.275 45.3963 116.216 44.9903 116.094C44.5843 115.972 44.2055 115.865 43.8175 115.733C43.6305 115.669 43.4594 115.561 43.2775 115.481C43.1415 115.421 42.9934 115.381 42.8614 115.318C42.3357 115.042 41.8294 114.73 41.3463 114.384C41.0993 114.212 40.8795 114.004 40.6415 113.822C40.3339 113.578 40.0493 113.307 39.7914 113.011C39.6204 112.821 39.4564 112.619 39.2914 112.417C39.1184 112.198 38.9445 111.98 38.7765 111.756C38.5632 111.474 38.3702 111.178 38.1993 110.868C38.0453 110.588 37.8874 110.311 37.7474 110.023C37.4221 109.363 37.1458 108.681 36.9205 107.98C36.7905 107.568 36.6865 107.15 36.5975 106.727C36.5255 106.39 36.4584 106.051 36.3924 105.713C36.3641 105.38 36.3039 105.049 36.2125 104.727C36.211 104.717 36.211 104.706 36.2125 104.695C36.1915 104.403 36.1585 104.111 36.1515 103.819C36.1141 103.593 36.09 103.365 36.0795 103.136C36.1156 102.902 36.1135 102.664 36.0733 102.43C36.0171 102.108 36.0008 101.781 36.0245 101.455C36.0245 101.217 36.1025 100.984 36.0865 100.74C36.0567 100.495 36.0589 100.246 36.0934 100.001C36.1474 99.7382 36.1073 99.4742 36.1573 99.2222C36.1963 99.0222 36.1743 98.8222 36.2203 98.6362C36.2663 98.4502 36.2415 98.2362 36.2855 98.0502C36.3231 97.8785 36.3415 97.7031 36.3404 97.5272C36.4984 97.4052 36.3123 97.1872 36.4693 97.0652C36.4263 96.8732 36.5295 96.6992 36.5375 96.5122C36.5274 96.3372 36.5519 96.1618 36.6095 95.9962C36.6945 95.8202 36.6283 95.6312 36.7193 95.4602C36.7613 95.3812 36.7425 95.2662 36.7865 95.1662C36.8305 95.0662 36.7865 94.9712 36.8485 94.8662C36.8945 94.7862 36.8575 94.6582 36.8575 94.5822L35.9574 92.7953C35.8406 92.5868 35.7346 92.3724 35.6395 92.1532C35.4965 91.7812 35.3103 91.4302 35.1583 91.0632C35.0443 90.7892 34.9245 90.5152 34.7965 90.2462C34.5785 89.7882 34.3963 89.3162 34.2093 88.8462C34.0743 88.5052 33.9493 88.1592 33.8033 87.8212C33.6573 87.4832 33.5415 87.1343 33.4125 86.7903C33.2655 86.3993 33.1375 86.0013 32.9855 85.6133C32.8105 85.1663 32.6944 84.7022 32.5414 84.2502C32.3884 83.7982 32.2473 83.3613 32.1153 82.9113C31.9883 82.4793 31.8984 82.0352 31.7604 81.6112C31.6374 81.2282 31.5723 80.8323 31.4603 80.4473C31.3938 80.2131 31.3404 79.9754 31.3004 79.7352C31.249 79.4274 31.1823 79.1223 31.1004 78.8212C31.0784 78.7402 31.0725 78.6623 31.0565 78.5833C31.0297 78.5078 31.0096 78.4301 30.9964 78.3512C30.9814 78.1898 30.943 78.0316 30.8824 77.8812C30.8364 77.7342 30.8764 77.5812 30.8094 77.4272C30.7424 77.2732 30.7814 77.0762 30.7274 76.9122C30.6734 76.7482 30.7053 76.5652 30.6053 76.4122C30.6533 76.1882 30.5355 75.9822 30.5365 75.7622C30.5258 75.6303 30.5056 75.4993 30.4764 75.3702C30.4604 75.2492 30.5165 75.1153 30.4125 75.0093C30.4075 75.0043 30.4125 74.9883 30.4125 74.9783C30.3915 74.7073 30.3725 74.4372 30.3475 74.1672C30.3325 74.0032 30.3045 73.8412 30.2845 73.6782C30.2972 73.5118 30.278 73.3445 30.2284 73.1852C30.1804 73.0912 30.2193 72.9532 30.2193 72.8452C29.8763 72.6782 29.5403 72.5072 29.1983 72.3452C28.9249 72.2079 28.6721 72.0328 28.4474 71.8252C28.2774 71.6782 28.1274 71.5072 27.9664 71.3492C27.7714 71.1257 27.599 70.8835 27.4515 70.6262C27.2022 70.1931 27.0262 69.7217 26.9305 69.2312C26.8895 69.0122 26.8305 68.7952 26.8065 68.5752C26.778 68.3401 26.778 68.1023 26.8065 67.8672C26.8628 67.4372 26.9565 67.013 27.0865 66.5992C27.2624 66.1305 27.4976 65.6862 27.7865 65.2772C27.9329 65.106 28.0899 64.944 28.2565 64.7922C28.6991 64.3209 29.2446 63.9581 29.8504 63.7322C30.1615 63.5704 30.5103 63.4952 30.8605 63.5143C30.9409 63.3497 31.0048 63.1775 31.0514 63.0002C31.1325 62.6701 31.2327 62.3448 31.3514 62.0262C31.4054 61.8342 31.4645 61.6433 31.5345 61.4573C31.6175 61.2343 31.7065 61.0122 31.8085 60.7972C31.9455 60.5102 32.0665 60.2162 32.2135 59.9332C32.4669 59.4426 32.7496 58.9677 33.0604 58.5112C33.3403 58.1036 33.6406 57.7104 33.9603 57.3333C34.269 56.9681 34.6032 56.6252 34.9603 56.3073C35.1544 56.079 35.3965 55.8963 35.6693 55.7722C35.9845 55.4649 36.3506 55.2145 36.7513 55.0322C37.1191 54.8128 37.5052 54.6258 37.9054 54.4733C38.1564 54.3793 38.4055 54.2833 38.6625 54.2023C38.9395 54.1143 39.2213 54.0453 39.5003 53.9683C39.6354 53.9313 39.7755 53.9052 39.9005 53.8552C40.0255 53.8052 40.1773 53.8552 40.3243 53.7882C40.4929 53.7427 40.6668 53.7199 40.8414 53.7202C41.2499 53.6753 41.6604 53.6509 42.0714 53.6472C42.4934 53.6342 42.9093 53.7532 43.3343 53.7102C43.4343 53.7002 43.5184 53.7863 43.6344 53.7803C43.7481 53.7543 43.8673 53.7652 43.9745 53.8113C44.0565 53.8583 44.1863 53.8113 44.2833 53.8423C44.5283 53.9193 44.7834 53.9233 45.0314 53.9843C45.2794 54.0453 45.5173 54.1082 45.7613 54.1692C45.9543 54.2172 46.1494 54.2692 46.3424 54.3192C46.5354 54.3692 46.7074 54.4332 46.8834 54.4962C47.0483 54.537 47.209 54.5932 47.3634 54.6642C47.514 54.7399 47.6728 54.7983 47.8365 54.8383C48.0005 54.8863 48.1365 55.0062 48.3165 55.0062C48.7165 55.2392 49.1495 55.3842 49.5555 55.5972C49.7045 55.6752 49.8755 55.7173 50.0155 55.8073C50.4155 56.0693 50.8765 56.2392 51.2665 56.5282C51.4923 56.6763 51.726 56.8121 51.9664 56.9352C52.0231 56.9743 52.0768 57.0174 52.1273 57.0642C52.312 56.8268 52.5439 56.6302 52.8082 56.4867C53.0725 56.3432 53.3638 56.2559 53.6634 56.2302C54.1568 56.1749 54.6533 56.3046 55.0565 56.5942C55.5035 56.8887 55.8244 57.3395 55.9564 57.8583C56.03 58.1459 56.0454 58.4451 56.0018 58.7388C55.9582 59.0324 55.8565 59.3144 55.7025 59.5682C55.4451 59.9936 55.0512 60.3193 54.5851 60.4922C54.1189 60.6651 53.6079 60.675 53.1354 60.5203C52.9428 60.465 52.7624 60.374 52.6034 60.2522C52.442 60.1367 52.292 60.0061 52.1554 59.8622C52.0282 59.7059 51.9207 59.5346 51.8353 59.3522C51.7458 59.1857 51.6818 59.0067 51.6454 58.8212C51.6124 58.6112 51.6454 58.3922 51.6354 58.1782C51.6254 57.9642 51.7664 57.8152 51.7694 57.6002C51.7454 57.5802 51.7173 57.5412 51.6793 57.5272C51.4243 57.4382 51.1925 57.2902 50.9425 57.2062C50.6925 57.1222 50.4575 56.9762 50.2045 56.8822C49.6635 56.6822 49.1285 56.4683 48.5795 56.2903C48.0964 56.1205 47.5999 55.9913 47.0953 55.9042C47.0533 55.7942 46.9444 55.8582 46.8714 55.8202C46.7984 55.7822 46.6915 55.8103 46.6395 55.7643C46.5605 55.6933 46.4805 55.7242 46.4015 55.7092C46.3225 55.6942 46.2485 55.6562 46.1705 55.6482C45.871 55.5738 45.5648 55.53 45.2565 55.5172C45.0775 55.3722 44.8564 55.4872 44.6564 55.4172C44.4574 55.3923 44.2571 55.3806 44.0565 55.3822C43.6811 55.3248 43.3007 55.306 42.9215 55.3262C42.7365 55.3262 42.5523 55.3672 42.3673 55.3872C42.1823 55.4072 42.0164 55.3492 41.8424 55.4452C41.7684 55.4862 41.6515 55.4452 41.5565 55.4542C41.4806 55.4781 41.4033 55.4978 41.3253 55.5132C41.0628 55.5417 40.8038 55.5967 40.5524 55.6772C40.0599 55.8033 39.5781 55.9677 39.1114 56.1692C38.8557 56.2821 38.6087 56.4138 38.3724 56.5632C38.1678 56.6727 37.9714 56.7966 37.7845 56.9342C37.6785 57.0122 37.5604 57.0752 37.4584 57.1572C36.9672 57.5499 36.5133 57.9872 36.1024 58.4633C35.782 58.8045 35.5172 59.1938 35.3175 59.6172C35.0548 59.9487 34.8426 60.3174 34.6883 60.7112C34.4745 61.1378 34.2989 61.5827 34.1634 62.0403C34.0984 62.2493 34.0405 62.4622 33.9635 62.6692C33.8805 62.9072 33.8373 63.1543 33.7713 63.3953C33.7353 63.5303 33.7005 63.6653 33.6595 63.8223C33.8485 63.9463 34.0504 64.0952 34.2684 64.2222C34.4393 64.3183 34.5967 64.4367 34.7364 64.5742C34.8364 64.6672 34.9605 64.7292 35.0475 64.8292C35.4369 65.2334 35.7544 65.7012 35.9864 66.2123C36.1105 66.5175 36.2144 66.8304 36.2975 67.1492C36.31 67.3113 36.3371 67.472 36.3785 67.6293C36.4217 67.7813 36.4339 67.9403 36.4144 68.0972C36.4366 68.2681 36.4366 68.4412 36.4144 68.6122C36.3571 69.0316 36.2606 69.4447 36.1263 69.8462C35.8957 70.4887 35.5298 71.0743 35.0533 71.5632C34.7733 71.8557 34.4539 72.1078 34.1044 72.3123C33.8944 72.4263 33.6785 72.5292 33.4415 72.6492C33.4403 72.8099 33.4593 72.9703 33.4984 73.1262C33.5574 73.2872 33.4345 73.4682 33.5785 73.6102C33.5995 73.6312 33.5784 73.6932 33.5834 73.7352C33.6034 73.9202 33.6374 74.1042 33.6444 74.2892C33.6628 74.4636 33.6908 74.6369 33.7284 74.8082C33.7485 74.9777 33.7836 75.145 33.8334 75.3082C33.8874 75.4712 33.8605 75.6602 33.9095 75.8262C34.0625 76.3482 34.0835 76.9013 34.2875 77.4103C34.3304 77.7633 34.4 78.1126 34.4955 78.4552C34.5441 78.8034 34.6298 79.1454 34.7513 79.4752C34.8206 79.6615 34.8784 79.8519 34.9244 80.0453C34.9644 80.2333 35.0513 80.4052 35.0753 80.6002C35.1189 80.815 35.1837 81.025 35.2684 81.2272C35.4794 81.8592 35.6934 82.4912 35.9034 83.1272C36.0134 83.4582 36.1035 83.7983 36.2325 84.1193C36.3615 84.4403 36.4464 84.7802 36.6034 85.0952C36.7034 85.2952 36.7755 85.5172 36.8575 85.7302C36.9395 85.9432 37.0423 86.1523 37.1053 86.3683C37.1783 86.6203 37.2985 86.8482 37.3915 87.0892C37.4641 87.3382 37.5703 87.5761 37.7074 87.7963C37.6984 88.0023 37.8543 88.1433 37.9173 88.3223C37.9803 88.5013 38.0845 88.6612 38.1605 88.8342C38.2365 89.0072 38.3034 89.1992 38.3954 89.4342C38.4814 89.2172 38.5494 89.0513 38.6134 88.8843C38.7594 88.5043 38.9034 88.1233 39.0494 87.7433C39.2054 87.3353 39.3835 86.9362 39.5255 86.5212C39.5815 86.3562 39.6723 86.1973 39.7413 86.0312C39.8503 85.7653 39.9765 85.5053 40.0985 85.2443C40.4185 84.5603 40.7133 83.8642 41.0643 83.1942C41.2303 82.8772 41.3643 82.5383 41.5443 82.2343C41.8153 81.7893 42.0093 81.3063 42.2713 80.8583C42.5493 80.3823 42.7965 79.8872 43.1085 79.4302C43.2 79.287 43.2821 79.1381 43.3544 78.9843C43.5454 78.6063 43.7965 78.2663 44.0045 77.9003C44.1685 77.6113 44.3465 77.3312 44.5275 77.0532C44.8748 76.5199 45.2258 75.9883 45.5804 75.4583C45.8804 75.0113 46.1744 74.5582 46.4894 74.1262C46.8424 73.6372 47.1893 73.1452 47.5533 72.6622C47.8383 72.2842 48.1363 71.9172 48.4193 71.5372C48.6573 71.2172 48.9134 70.9112 49.1344 70.5792C49.2344 70.4332 49.3833 70.3332 49.4803 70.1792C49.6099 70.0023 49.7523 69.8352 49.9064 69.6792C49.9864 69.5852 50.0604 69.4852 50.1354 69.3872C50.2104 69.2892 50.3433 69.2372 50.3653 69.0952C50.3653 69.0782 50.3945 69.0652 50.4095 69.0492C50.6225 68.8152 50.8375 68.5822 51.0475 68.3492C51.1575 68.2252 51.2613 68.0952 51.3673 67.9662C51.4733 67.8372 51.6193 67.7662 51.6673 67.6062C51.6673 67.5882 51.6965 67.5762 51.7115 67.5602C52.0455 67.2042 52.3775 66.8453 52.7115 66.4933C53.3705 65.8083 54.0113 65.1092 54.7003 64.4512C55.1453 64.0242 55.5823 63.5862 56.0423 63.1752C56.2873 62.9572 56.5135 62.7193 56.7645 62.5103C57.1405 62.1973 57.4954 61.8593 57.8644 61.5453C58.1714 61.2863 58.4644 61.0103 58.8004 60.7803C59.0004 60.6443 59.1595 60.4583 59.3485 60.3073C59.6775 60.0443 60.0145 59.7902 60.3485 59.5342C60.4677 59.4551 60.5825 59.3697 60.6925 59.2782C60.9642 59.0412 61.2507 58.8218 61.5504 58.6212C61.9104 58.3552 62.2785 58.0992 62.6505 57.8452C63.1095 57.5302 63.5604 57.1993 64.0394 56.9163C64.5584 56.6103 65.0574 56.2743 65.5824 55.9783C65.8694 55.8163 66.1644 55.6613 66.4444 55.4783C66.7244 55.2953 66.9993 55.1632 67.2833 55.0172C67.8593 54.7172 68.4205 54.3893 69.0145 54.1353C69.5885 53.8893 70.1504 53.6113 70.7394 53.3953C71.0824 53.2693 71.4275 53.1372 71.7645 52.9952C71.9825 52.9002 72.2175 52.8443 72.4435 52.7653C72.5255 52.6733 72.6145 52.6273 72.7115 52.5833ZM39.4684 99.1832C39.4291 99.2605 39.399 99.342 39.3785 99.4262C39.3645 99.5532 39.4204 99.7122 39.3634 99.8052C39.3107 99.9199 39.2939 100.048 39.3153 100.172C39.3153 100.299 39.2603 100.413 39.2513 100.532C39.2293 100.824 39.2224 101.116 39.1944 101.409C39.1611 101.881 39.1581 102.354 39.1854 102.826C39.1597 103.291 39.1774 103.758 39.2384 104.219C39.2924 104.47 39.2383 104.736 39.3033 104.998C39.3464 105.244 39.3705 105.493 39.3753 105.743C39.3753 105.764 39.3673 105.79 39.3753 105.807C39.4773 106.049 39.5372 106.306 39.5524 106.568C39.6498 106.889 39.7197 107.217 39.7613 107.549C39.8429 107.709 39.9071 107.876 39.9525 108.049C40.0285 108.221 40.0824 108.403 40.1524 108.58C40.2106 108.75 40.2773 108.917 40.3524 109.08C40.5431 109.477 40.7579 109.862 40.9955 110.232C41.2892 110.707 41.6353 111.147 42.0274 111.544C42.2965 111.845 42.5921 112.12 42.9105 112.367C43.0305 112.447 43.1245 112.58 43.2535 112.63C43.3825 112.68 43.4764 112.805 43.6004 112.878C43.8594 113.03 44.1303 113.169 44.3773 113.334C44.6493 113.517 44.9773 113.568 45.2313 113.77C45.6373 113.841 46.0073 114.032 46.4173 114.107C46.6639 114.151 46.9077 114.209 47.1473 114.281C47.4034 114.35 47.6665 114.391 47.9315 114.403C48.3386 114.464 48.75 114.49 49.1615 114.483C49.3755 114.465 49.5915 114.489 49.8065 114.478C50.1742 114.511 50.5446 114.49 50.9064 114.416C51.2564 114.466 51.5945 114.33 51.9435 114.351C52.0024 114.35 52.0612 114.345 52.1195 114.336C52.0988 114.291 52.0722 114.248 52.0404 114.209C51.8324 114.039 51.6124 113.883 51.4134 113.704C51.1384 113.456 50.8865 113.186 50.5995 112.948C50.3084 112.693 50.0332 112.421 49.7755 112.132C49.5115 111.851 49.2155 111.605 48.9525 111.321C48.4175 110.742 47.8163 110.221 47.3133 109.613C47.1333 109.394 46.9255 109.198 46.7355 108.986C46.3925 108.602 46.0464 108.222 45.7174 107.825C45.5434 107.614 45.3525 107.418 45.1725 107.212C45.0654 107.099 44.9671 106.978 44.8785 106.85C44.6804 106.562 44.4647 106.286 44.2325 106.024C44.0325 105.783 43.8514 105.532 43.6544 105.29C43.4764 105.071 43.3044 104.839 43.1424 104.604C42.9804 104.369 42.8244 104.155 42.6644 103.932C42.5044 103.709 42.3304 103.469 42.1644 103.237C41.9644 102.964 41.7645 102.694 41.5775 102.416C41.2595 101.947 40.9483 101.474 40.6373 101.001C40.454 100.723 40.2727 100.444 40.0934 100.163C39.8844 99.8442 39.6874 99.5282 39.4684 99.1792V99.1832ZM80.4164 108.414C80.1588 108.4 79.901 108.439 79.6588 108.527C79.4166 108.616 79.195 108.753 79.0074 108.93C78.8238 109.093 78.6753 109.292 78.5709 109.514C78.4665 109.736 78.4086 109.977 78.4005 110.222C78.3871 110.568 78.4764 110.91 78.6573 111.205C78.8172 111.468 79.0413 111.686 79.3085 111.839C79.593 112.032 79.9261 112.139 80.2694 112.15C80.5302 112.147 80.7877 112.09 81.0253 111.982C81.2628 111.874 81.4754 111.719 81.6495 111.524C81.9391 111.182 82.11 110.756 82.1373 110.308C82.1478 110.058 82.1051 109.808 82.0121 109.575C81.919 109.342 81.7778 109.132 81.5975 108.957C81.4462 108.793 81.264 108.66 81.0614 108.566C80.8587 108.472 80.6395 108.419 80.4164 108.41V108.414ZM93.5475 68.5203C93.5912 68.2563 93.5363 67.9855 93.3934 67.7593C93.247 67.4377 93.0065 67.168 92.7035 66.9862C92.4724 66.8464 92.2162 66.7529 91.9493 66.7112C91.5493 66.6764 91.1481 66.7603 90.7955 66.9523C90.5615 67.0768 90.3582 67.2519 90.2005 67.4651C90.0429 67.6782 89.9348 67.9239 89.8844 68.1842C89.8305 68.4481 89.8305 68.7203 89.8844 68.9843C89.9377 69.1859 90.0217 69.3781 90.1334 69.5542C90.325 69.8447 90.5863 70.0827 90.8934 70.2462C91.1394 70.3322 91.3935 70.3782 91.6505 70.4462C91.7695 70.4762 91.8684 70.3993 91.9784 70.3843C92.2378 70.3507 92.487 70.262 92.7093 70.1243C92.9908 69.9451 93.2167 69.6908 93.3614 69.3903C93.5076 69.123 93.5723 68.8188 93.5475 68.5153V68.5203Z" fill="#999999"/>
<path d="M83.1721 82.1404C82.9085 82.2372 82.6262 82.2714 82.3471 82.2404C76.5965 82.2404 70.8461 82.2404 65.0961 82.2404C64.7403 82.2497 64.3895 82.3264 64.0622 82.4664C63.7721 82.5744 63.4951 82.7146 63.2363 82.8844C63.1361 82.9613 63.041 83.0448 62.9521 83.1344C62.5143 83.4965 62.1797 83.9677 61.9821 84.5004C61.9071 84.6973 61.8482 84.9 61.8061 85.1064C61.7466 85.5471 61.7316 85.9927 61.7612 86.4364C61.7741 86.6171 61.8157 86.7947 61.8842 86.9624C61.9837 87.3076 62.1384 87.6345 62.3422 87.9304C62.544 88.236 62.7986 88.5032 63.0942 88.7194C63.3158 88.8798 63.5498 89.0223 63.7941 89.1454C64.1247 89.2893 64.4697 89.3976 64.8232 89.4684C65.1024 89.5195 65.3868 89.5366 65.6701 89.5194C71.3454 89.5234 77.0206 89.5234 82.6953 89.5194H83.0041C83.137 89.5881 83.2516 89.6874 83.3386 89.8091C83.4255 89.9308 83.4822 90.0714 83.5041 90.2194C83.5301 90.3624 83.5441 90.5034 83.5581 90.6464C83.5721 90.7894 83.6081 90.9465 83.6191 91.1035C83.6332 91.2535 83.6332 91.4044 83.6191 91.5544C83.599 91.9043 83.5557 92.2524 83.4892 92.5964C83.4364 92.8081 83.3112 92.9945 83.1352 93.1234C83.0647 93.162 82.9865 93.1846 82.9062 93.1895C82.842 93.1945 82.7773 93.1945 82.7131 93.1895C76.8551 93.1895 70.9971 93.1895 65.1391 93.1895C64.9843 93.1903 64.8301 93.1695 64.6811 93.1274C64.5341 93.0854 64.364 93.1804 64.225 93.0584C63.9369 93.0556 63.651 93.007 63.3781 92.9144C63.1344 92.8631 62.8947 92.7939 62.6611 92.7074C62.0402 92.4925 61.4406 92.2203 60.8701 91.8944C60.6331 91.7715 60.4155 91.6145 60.2241 91.4284L59.6542 90.8584C59.2238 90.3859 58.8847 89.8377 58.6542 89.2415C58.5542 88.9915 58.4541 88.7414 58.3811 88.4844C58.2919 88.2365 58.2336 87.9786 58.2072 87.7164C58.2022 87.5954 58.1602 87.4774 58.1472 87.3564C58.1584 87.2321 58.137 87.107 58.0852 86.9934C58.0562 86.9484 58.0852 86.8674 58.0852 86.8034C58.0852 86.2444 58.0852 85.6864 58.0852 85.1274C58.0809 84.8873 58.0989 84.6472 58.1391 84.4104C58.1821 84.1814 58.2391 83.9504 58.2661 83.7234C58.3151 83.374 58.4086 83.0322 58.5441 82.7064C58.6501 82.4052 58.7839 82.1147 58.944 81.8384C59.1177 81.5429 59.3071 81.2568 59.5112 80.9814C59.7032 80.7366 59.9223 80.5141 60.1643 80.3184C60.4363 80.1038 60.7192 79.9035 61.0122 79.7184C61.2659 79.5606 61.5337 79.4267 61.8122 79.3184C62.0322 79.2244 62.2581 79.1504 62.4821 79.0674C62.6881 78.9914 62.9011 78.9354 63.1101 78.8674C63.3191 78.7994 63.5623 78.7744 63.7783 78.6904C63.9013 78.6424 64.0513 78.7164 64.1643 78.6094C64.4643 78.5874 64.7702 78.5474 65.0722 78.5474C70.9835 78.5441 76.8951 78.5441 82.8071 78.5474C82.9105 78.5447 83.0139 78.5582 83.1132 78.5874C83.1891 78.6251 83.2565 78.6778 83.3115 78.7422C83.3665 78.8067 83.4077 78.8816 83.4331 78.9624C83.5077 79.1958 83.5549 79.4371 83.5732 79.6815C83.6203 79.9823 83.6357 80.2873 83.6191 80.5914C83.6019 80.9414 83.5595 81.2896 83.4921 81.6334C83.4663 81.7299 83.423 81.8207 83.3642 81.9014C83.3056 81.9853 83.2414 82.0652 83.1721 82.1404Z" fill="#999999"/>
<path d="M142.723 78.563C142.918 78.7 143.055 78.9041 143.107 79.136C143.107 79.153 143.142 79.1671 143.144 79.1841C143.168 79.3901 143.202 79.5951 143.207 79.8021C143.217 80.1891 143.219 80.576 143.207 80.962C143.203 81.2174 143.159 81.4705 143.076 81.712C143.054 81.8193 143.005 81.919 142.933 82.0013C142.86 82.0835 142.768 82.1455 142.664 82.181C142.611 82.195 142.564 82.241 142.495 82.238C142.426 82.235 142.366 82.238 142.302 82.238C136.444 82.238 130.586 82.238 124.728 82.238C124.332 82.2525 123.942 82.3417 123.579 82.501C123.109 82.6804 122.687 82.967 122.347 83.3381C121.907 83.8022 121.605 84.3809 121.477 85.0081C121.35 85.1631 121.431 85.362 121.361 85.54C121.312 85.717 121.309 85.9037 121.353 86.082C121.402 86.4917 121.498 86.8943 121.638 87.282C121.823 87.7029 122.08 88.0881 122.398 88.42C122.668 88.7061 122.985 88.943 123.336 89.1201C123.575 89.2464 123.829 89.3392 124.093 89.3961C124.468 89.4768 124.851 89.5184 125.234 89.5201C130.963 89.5201 136.692 89.518 142.421 89.514C142.531 89.5062 142.64 89.5267 142.739 89.5737C142.838 89.6206 142.923 89.6924 142.986 89.782C143.054 89.9151 143.105 90.0558 143.138 90.201C143.194 90.3897 143.219 90.5864 143.211 90.7831C143.221 91.1591 143.222 91.5351 143.211 91.9111C143.204 92.1559 143.161 92.3984 143.084 92.631C143.056 92.747 143.012 92.8584 142.952 92.962C142.91 93.0338 142.849 93.093 142.776 93.1337C142.703 93.1745 142.621 93.1952 142.537 93.194C142.483 93.194 142.429 93.194 142.376 93.194C136.54 93.194 130.703 93.194 124.867 93.194C124.625 93.194 124.39 93.1491 124.152 93.1301C123.914 93.1111 123.713 93.0301 123.495 93.0071C123.047 92.9394 122.607 92.8268 122.181 92.6711C121.613 92.4832 121.067 92.233 120.554 91.925C120.065 91.6288 119.62 91.2641 119.234 90.842C118.868 90.4237 118.567 89.9516 118.344 89.4421C118.244 89.2171 118.178 88.9741 118.088 88.7421C117.998 88.5101 117.952 88.2841 117.875 88.0571C117.833 87.887 117.81 87.713 117.804 87.538C117.766 87.3993 117.742 87.2568 117.734 87.113C117.769 86.9688 117.75 86.8167 117.679 86.686C117.654 86.65 117.679 86.586 117.679 86.527C117.679 86.076 117.679 85.627 117.679 85.173C117.69 85.0301 117.711 84.8881 117.741 84.748C117.74 84.6031 117.757 84.4587 117.792 84.3181C117.831 84.1702 117.855 84.0187 117.864 83.866C117.924 83.4884 118.022 83.1178 118.156 82.7601C118.327 82.2903 118.554 81.8428 118.831 81.4271C118.941 81.2413 119.073 81.0691 119.223 80.9141C119.506 80.6591 119.751 80.3671 120.056 80.1301C120.396 79.8765 120.758 79.6533 121.137 79.4631C121.604 79.2161 122.119 79.0841 122.606 78.8851C122.855 78.8941 123.074 78.743 123.325 78.749C123.394 78.7375 123.461 78.7173 123.525 78.689C123.624 78.6611 123.724 78.6401 123.825 78.626C123.922 78.6315 124.018 78.6295 124.114 78.6201C124.467 78.5538 124.827 78.534 125.185 78.561C125.55 78.553 125.916 78.561 126.285 78.561L142.723 78.563Z" fill="#999999"/>
<path d="M112.932 78.5635C113.083 78.7007 113.207 78.8636 113.3 79.0445C113.354 79.1685 113.3 79.3194 113.414 79.4164C113.464 79.8023 113.481 80.1917 113.464 80.5804C113.459 80.9696 113.402 81.3564 113.294 81.7305C113.247 81.8733 113.157 81.9985 113.037 82.0894C112.917 82.1802 112.773 82.2325 112.622 82.2394C112.59 82.2394 112.558 82.2394 112.522 82.2394H88.7673C88.663 82.2389 88.5591 82.2296 88.4564 82.2115C88.3704 82.1989 88.2895 82.1631 88.2224 82.1079C88.1553 82.0528 88.1044 81.9803 88.0753 81.8984C88.0383 81.8064 87.9933 81.7175 87.9543 81.6305C87.9263 81.4895 87.8963 81.3504 87.8713 81.2104C87.8463 81.0704 87.9254 80.9104 87.8064 80.7864C87.7851 80.5126 87.8006 80.2372 87.8524 79.9675C87.8733 79.9082 87.8788 79.8445 87.8684 79.7825C87.853 79.5847 87.8784 79.3859 87.9433 79.1985C87.9683 79.0691 88.0196 78.9462 88.0941 78.8375C88.1686 78.7287 88.2647 78.6365 88.3763 78.5665L112.932 78.5635Z" fill="#999999"/>
<path d="M106.734 87.7195H94.9842C94.8577 87.7447 94.727 87.7397 94.6028 87.705C94.4785 87.6702 94.3643 87.6067 94.2693 87.5195C94.2323 87.4195 94.0872 87.3076 94.0532 87.1086C94.0021 86.9245 93.9643 86.737 93.9402 86.5475C93.9292 86.1075 93.9212 85.6655 93.9402 85.2265C93.9519 84.9231 94.0287 84.6257 94.1653 84.3545C94.2078 84.2554 94.28 84.172 94.3722 84.1159C94.4643 84.0598 94.5716 84.0338 94.6792 84.0415C97.1938 84.0415 99.7086 84.0415 102.223 84.0415C103.674 84.0415 105.123 84.0475 106.575 84.0415C106.699 84.0299 106.823 84.0597 106.927 84.1264C107.032 84.193 107.111 84.2926 107.153 84.4095C107.215 84.5684 107.263 84.7328 107.294 84.9005C107.363 85.4699 107.379 86.0443 107.342 86.6165C107.33 86.8287 107.288 87.0381 107.217 87.2386C107.111 87.4457 106.942 87.6139 106.734 87.7195Z" fill="#999999"/>
<path d="M97.7383 93.1993C97.57 93.1177 97.4274 92.9913 97.3263 92.8339C97.2252 92.6766 97.1696 92.4943 97.1653 92.3073C97.1278 92.0821 97.1057 91.8546 97.0993 91.6263C97.0883 91.3913 97.0933 91.1543 97.0993 90.9183C97.087 90.8251 97.1053 90.7304 97.1513 90.6483C97.2013 90.5743 97.1233 90.4163 97.1723 90.3403C97.2333 90.2463 97.1943 90.1503 97.2333 90.0733C97.3246 89.8569 97.472 89.6688 97.6603 89.5283H103.63C103.868 89.7052 104.037 89.9594 104.108 90.2473C104.116 90.2656 104.122 90.2847 104.126 90.3043C104.148 90.5633 104.178 90.8223 104.189 91.0823C104.212 91.3389 104.21 91.5972 104.182 91.8533C104.159 92.1066 104.119 92.3579 104.06 92.6053C104.005 92.8157 103.879 93.0008 103.704 93.1303C103.606 93.1863 103.493 93.2117 103.38 93.2033C101.98 93.1973 100.589 93.2033 99.1933 93.2033L97.7383 93.1993Z" fill="#999999"/>
<path d="M102.312 100.438C102.057 100.591 101.766 100.676 101.468 100.684C101.17 100.692 100.876 100.623 100.612 100.484C100.375 100.615 100.109 100.682 99.8379 100.679C99.5672 100.676 99.302 100.603 99.0682 100.466C98.8409 100.606 98.578 100.677 98.3112 100.672C98.0438 100.685 97.7787 100.619 97.5482 100.483C97.2753 100.611 96.9773 100.678 96.6757 100.678C96.374 100.678 96.0762 100.611 95.8032 100.483C95.7107 100.537 95.6119 100.579 95.5092 100.608C95.2947 100.648 95.0774 100.67 94.8593 100.674C92.8283 100.674 90.7972 100.674 88.7362 100.674L88.5833 100.45L88.6403 100.104H90.4482C90.4744 99.8428 90.4582 99.5791 90.4003 99.3231C90.3443 99.1771 90.4002 98.9991 90.3312 98.8361C90.2802 98.7172 90.2032 98.6113 90.1057 98.5263C90.0082 98.4413 89.8929 98.3794 89.7682 98.3451C89.5652 98.2973 89.3565 98.2785 89.1482 98.2891C89.0322 98.2831 88.9152 98.2891 88.7892 98.2891V97.9241L88.8722 97.8411C89.0722 97.8711 89.2672 97.7411 89.4902 97.7711C89.7584 97.8167 90.0225 97.8836 90.2802 97.9711C90.4148 98.034 90.5345 98.1252 90.631 98.2383C90.7274 98.3515 90.7984 98.4841 90.8392 98.6271C90.9264 98.8793 90.9717 99.1442 90.9733 99.4111C90.9663 99.6341 90.9733 99.8581 90.9733 100.09H94.1332C94.1426 100.042 94.1426 99.9929 94.1332 99.9451C94.0032 99.6551 93.8652 99.3681 93.7332 99.0801C93.6575 98.9081 93.5436 98.7556 93.4001 98.6343C93.2567 98.513 93.0873 98.4261 92.9052 98.3801C92.8454 98.3643 92.7839 98.3562 92.7222 98.3561C92.4322 98.3561 92.1423 98.3561 91.8333 98.3561C91.817 98.215 91.8109 98.073 91.8152 97.9311C92.1713 97.8119 92.5519 97.7851 92.9213 97.8531C93.1356 97.8725 93.3432 97.9373 93.5305 98.0434C93.7178 98.1494 93.8803 98.2942 94.0072 98.4681C94.327 98.9395 94.57 99.4585 94.7272 100.006C94.7362 100.033 94.7712 100.052 94.8052 100.086H95.3362L95.5452 99.9631V98.1741C95.7202 98.1541 95.8862 98.169 96.0732 98.162C96.0732 98.662 96.0732 99.162 96.0732 99.649C96.0814 99.7676 96.0974 99.8856 96.1212 100.002C96.4684 100.133 96.8498 100.143 97.2032 100.03C97.2807 99.9071 97.3141 99.7615 97.2982 99.6171C97.2932 99.2301 97.2982 98.8431 97.2982 98.4371C97.4365 98.42 97.576 98.414 97.7152 98.4191L97.8082 98.511V99.9991C98.0672 100.093 98.3441 100.128 98.6182 100.099L98.7802 99.9351V98.321L98.8802 98.2341H99.2922V99.9291L99.4502 100.087H100.175L100.331 99.936V98.0651L100.418 97.9781H100.759L100.848 98.0671V99.941C101.028 100.036 101.225 100.09 101.428 100.102C101.63 100.113 101.833 100.08 102.021 100.006C102.043 99.8829 102.059 99.7588 102.069 99.6341C102.078 99.4201 102.061 99.2041 102.069 98.9901C102.065 98.7646 102.13 98.5434 102.255 98.3558C102.38 98.1682 102.56 98.0232 102.769 97.9401C103.069 97.8311 103.395 97.8151 103.704 97.894C103.861 97.9314 104.011 97.9917 104.149 98.0731C104.318 98.1591 104.361 98.308 104.449 98.438C104.535 98.5645 104.58 98.7135 104.581 98.8661C104.581 99.1991 104.581 99.5321 104.581 99.8871L104.866 100.097H105.715L105.802 99.9911V96.1291L105.983 96.0091L105.962 95.9561L106.388 96.0301V96.3981C106.388 97.5154 106.388 98.6327 106.388 99.7501C106.419 100.021 106.385 100.295 106.288 100.55C105.97 100.637 105.643 100.682 105.313 100.684C104.979 100.696 104.646 100.625 104.345 100.478C104.153 100.559 104.034 100.726 103.83 100.766C103.763 100.785 103.694 100.799 103.624 100.807C103.484 100.807 103.344 100.807 103.205 100.807C103.037 100.829 102.866 100.807 102.709 100.742C102.552 100.678 102.416 100.573 102.312 100.438ZM103.046 100.293C103.168 100.293 103.339 100.293 103.51 100.293C103.57 100.289 103.629 100.275 103.685 100.252C103.793 100.206 103.885 100.131 103.951 100.035C104.016 99.9381 104.053 99.8248 104.056 99.7081C104.071 99.5057 104.073 99.3027 104.063 99.1C104.059 98.9382 104.015 98.7798 103.935 98.639C103.909 98.5859 103.872 98.5386 103.827 98.4999C103.782 98.4613 103.73 98.4321 103.673 98.4141C103.482 98.3698 103.286 98.3523 103.09 98.3621C102.985 98.4005 102.889 98.4628 102.812 98.5442C102.734 98.6255 102.677 98.7237 102.643 98.8311C102.57 99.0713 102.551 99.3244 102.585 99.5731C102.625 99.8571 102.653 100.17 103.046 100.292V100.293Z" fill="#999999"/>
<path d="M68.1704 100.678L68.0054 100.511C68.0384 100.381 67.9384 100.216 68.1144 100.094H69.8145C69.8145 99.7631 69.8235 99.4431 69.8145 99.1231C69.7957 98.9505 69.7286 98.7866 69.6211 98.6502C69.5136 98.5139 69.3699 98.4106 69.2064 98.3521C69.0797 98.3086 68.9463 98.2879 68.8124 98.291C68.6194 98.291 68.4264 98.291 68.2374 98.291C68.0434 98.143 68.1694 97.9911 68.2214 97.8651C68.3617 97.826 68.5048 97.7975 68.6494 97.7801C68.8049 97.7602 68.9628 97.7773 69.1104 97.8301C69.2344 97.8821 69.3893 97.8471 69.5323 97.8991C69.7102 97.9769 69.869 98.0928 69.9972 98.2387C70.1254 98.3845 70.22 98.5567 70.2744 98.7431C70.3242 99.0218 70.3433 99.3052 70.3314 99.5881C70.3314 99.7271 70.3314 99.8661 70.3314 99.9991L70.4174 100.085H73.5814C73.4484 99.7951 73.3114 99.5321 73.2074 99.2571C73.1211 99.0374 72.9877 98.8394 72.8164 98.6771C72.7154 98.5758 72.5954 98.4954 72.4633 98.4405C72.3311 98.3856 72.1895 98.3572 72.0464 98.3571C71.8204 98.3521 71.5944 98.3571 71.3694 98.3571C71.3033 98.3471 71.2387 98.3286 71.1774 98.3021V98.0021C71.2275 97.947 71.2898 97.9041 71.3591 97.8769C71.4285 97.8496 71.5031 97.8387 71.5774 97.8451C71.7704 97.8521 71.9643 97.8401 72.1573 97.8451C72.5138 97.8602 72.8556 97.9907 73.1313 98.2171C73.3634 98.4222 73.5539 98.67 73.6924 98.9471C73.8824 99.2781 73.9834 99.6471 74.1414 99.9861C74.1669 100.027 74.1963 100.066 74.2294 100.102C74.4234 100.078 74.6354 100.162 74.8734 99.9711C74.9294 99.9041 74.9154 99.7571 74.9154 99.6121C74.9234 99.4619 74.9234 99.3113 74.9154 99.1611C74.898 98.9139 74.9452 98.6665 75.0524 98.4431C75.1369 98.2628 75.2825 98.1183 75.4634 98.0351C75.804 97.8432 76.2068 97.7943 76.5834 97.8991C76.7287 97.9199 76.8674 97.9737 76.9888 98.0564C77.1101 98.139 77.2109 98.2484 77.2834 98.3761C77.386 98.552 77.4391 98.7524 77.4374 98.9561C77.4374 99.2561 77.4374 99.5561 77.4374 99.8631C77.4957 99.9485 77.5766 100.016 77.671 100.059C77.7654 100.101 77.8698 100.116 77.9724 100.103C78.1724 100.09 78.3723 100.103 78.6053 100.103C78.6305 100.039 78.6487 99.9715 78.6594 99.9031C78.6664 99.6881 78.6594 99.4731 78.6594 99.2591V96.0761C78.7222 96.0297 78.7952 95.9991 78.8723 95.9869C78.9494 95.9747 79.0284 95.9813 79.1024 96.0061L79.2394 96.1431C79.2394 97.4211 79.2394 98.6991 79.2394 99.9771C79.2369 100.131 79.2144 100.284 79.1724 100.432C79.1524 100.506 79.0724 100.564 79.0364 100.611C78.6969 100.661 78.3544 100.688 78.0114 100.693C77.7062 100.683 77.4085 100.597 77.1454 100.442C77.0354 100.637 76.8144 100.695 76.6104 100.818H76.0594C75.899 100.836 75.7368 100.815 75.5857 100.759C75.4346 100.702 75.2989 100.611 75.1895 100.492C75.0105 100.509 74.8614 100.627 74.6774 100.658C74.5764 100.676 74.4741 100.686 74.3715 100.687C72.3015 100.683 70.2344 100.68 68.1704 100.678ZM76.4004 98.3571C76.3194 98.3571 76.2125 98.3571 76.1005 98.3571C76.0128 98.3538 75.9253 98.3684 75.8434 98.3999C75.7615 98.4313 75.6868 98.479 75.6238 98.5401C75.5608 98.6012 75.5108 98.6745 75.4769 98.7554C75.443 98.8363 75.4258 98.9233 75.4264 99.0111C75.4107 99.2355 75.4107 99.4607 75.4264 99.6851C75.4245 99.767 75.4395 99.8485 75.4706 99.9244C75.5017 100 75.5482 100.069 75.6071 100.126C75.6659 100.183 75.7361 100.227 75.8129 100.256C75.8897 100.284 75.9716 100.297 76.0535 100.292C76.1605 100.292 76.2674 100.298 76.3744 100.292C76.4615 100.293 76.547 100.267 76.6195 100.219C76.6921 100.171 76.7484 100.102 76.7814 100.021C76.8526 99.8656 76.8952 99.6987 76.9073 99.5281C76.935 99.176 76.8631 98.8232 76.6995 98.5101L76.4004 98.3571Z" fill="#999999"/>
<path d="M114.962 99.9561L115.186 100.089H116.12V97.9411L116.209 97.8521H116.64L116.731 98.0951C116.961 97.9868 117.202 97.9063 117.45 97.8551C117.722 97.776 118.007 97.7539 118.287 97.7901C118.538 97.8711 118.815 97.8291 119.047 97.9901C119.228 98.1701 119.468 98.3141 119.557 98.5901C119.618 98.7286 119.657 98.8756 119.673 99.0261C119.673 99.1261 119.721 99.226 119.731 99.326C119.743 99.4331 119.743 99.5411 119.731 99.6481C119.714 99.7891 119.679 99.9271 119.648 100.085H120.742C120.866 99.7666 120.891 99.4181 120.814 99.0851C120.764 98.7991 120.797 98.5241 120.764 98.2651C120.915 98.0721 121.102 98.2171 121.239 98.1511L121.347 98.2591V99.196C121.347 99.518 121.347 99.84 121.347 100.162C121.339 100.279 121.323 100.395 121.3 100.51C121.184 100.565 121.061 100.602 120.934 100.621C120.516 100.682 120.092 100.7 119.67 100.675C119.251 100.684 118.832 100.675 118.413 100.675C117.361 100.675 116.313 100.68 115.256 100.675C115.108 100.689 114.958 100.666 114.821 100.607C114.684 100.547 114.564 100.455 114.472 100.337C114.382 100.081 114.352 99.8069 114.384 99.537C114.384 98.379 114.384 97.22 114.384 96.037L114.784 95.9561L114.965 96.1371L114.962 99.9561ZM119.098 100.093C119.125 99.9648 119.143 99.8349 119.151 99.7041C119.174 99.454 119.154 99.2019 119.094 98.9581C119.045 98.7833 118.94 98.6296 118.794 98.5211C118.648 98.4126 118.471 98.3553 118.289 98.3581C118.198 98.3531 118.101 98.3911 118.021 98.2981C118.003 98.2771 117.921 98.3071 117.875 98.3171C117.819 98.3379 117.76 98.3511 117.7 98.3561C117.455 98.3555 117.211 98.4013 116.982 98.4911C116.891 98.5246 116.802 98.5661 116.717 98.6151V100.094L119.098 100.093Z" fill="#999999"/>
<path d="M135.535 100.098C135.535 99.8103 135.535 99.5433 135.535 99.2763C135.522 99.1029 135.459 98.9368 135.355 98.7975C135.25 98.6582 135.109 98.5514 134.946 98.4893C134.82 98.4441 134.688 98.4194 134.554 98.4163C134.371 98.384 134.187 98.3643 134.001 98.3573C133.839 98.3823 133.676 98.4093 133.512 98.4203C133.348 98.4313 133.168 98.4203 132.983 98.4203L132.821 98.2123C132.831 98.1423 132.85 98.0213 132.864 97.8983C132.952 97.5189 133.099 97.1557 133.3 96.8223C133.408 96.5873 133.538 96.3613 133.667 96.1373C133.7 96.0916 133.742 96.0533 133.79 96.0249C133.839 95.9965 133.893 95.9786 133.948 95.9723C134.012 95.9656 134.077 95.9656 134.141 95.9723C134.23 96.0413 134.3 96.1113 134.212 96.2333C134.007 96.5637 133.824 96.9083 133.667 97.2643C133.575 97.4403 133.498 97.6233 133.411 97.8103L133.504 97.9103C133.604 97.8773 133.722 97.9633 133.818 97.8513L134.588 97.8423C134.743 97.9703 134.946 97.8773 135.117 97.9663C135.343 98.0551 135.553 98.1783 135.741 98.3313C135.871 98.5101 135.976 98.7059 136.052 98.9133C136.106 99.223 136.124 99.5375 136.108 99.8513C136.068 100.072 136.049 100.297 136.049 100.521L135.956 100.614C134.675 100.747 133.373 100.65 132.074 100.678C132.024 100.675 131.974 100.665 131.926 100.648C131.735 100.612 131.564 100.508 131.444 100.355C131.392 100.355 131.329 100.342 131.311 100.364C131.177 100.528 130.98 100.512 130.805 100.546C130.688 100.554 130.569 100.556 130.451 100.552C130.207 100.551 129.968 100.479 129.763 100.345C129.675 100.29 129.598 100.217 129.539 100.131C129.48 100.045 129.44 99.9479 129.42 99.8453C129.358 99.6687 129.331 99.4814 129.34 99.2943C129.341 99.0759 129.362 98.858 129.402 98.6433C129.459 98.4699 129.556 98.3123 129.685 98.1833C129.814 98.0542 129.972 97.9573 130.145 97.9003C130.524 97.7803 130.922 97.7371 131.317 97.7733C131.435 97.8339 131.568 97.8566 131.698 97.8383L131.798 97.9384C131.798 98.4954 131.798 99.0724 131.798 99.6494C131.806 99.7643 131.822 99.8786 131.845 99.9913C131.972 100.078 132.126 100.117 132.279 100.099C133.353 100.097 134.427 100.098 135.535 100.098ZM131.278 99.7443C131.278 99.3343 131.278 98.9263 131.278 98.5193C131.285 98.475 131.278 98.4298 131.259 98.3892C131.24 98.3487 131.21 98.3146 131.171 98.2913C130.874 98.2617 130.574 98.2878 130.286 98.3683L129.904 98.7293C129.875 98.9192 129.861 99.1112 129.863 99.3033C129.856 99.441 129.892 99.5774 129.965 99.6942C130.038 99.8109 130.145 99.9024 130.272 99.9563C130.401 100.023 130.547 100.05 130.691 100.035C130.81 100.008 130.93 99.9893 131.048 99.9673L131.278 99.7443Z" fill="#999999"/>
<path d="M137.728 100.679C137.728 100.915 137.728 101.119 137.728 101.323C137.698 101.49 137.636 101.65 137.546 101.795C137.458 101.911 137.335 101.996 137.195 102.036C136.961 102.089 136.72 102.109 136.48 102.095C136.423 102.081 136.367 102.06 136.316 102.03V101.593H136.906C137.005 101.547 137.088 101.471 137.143 101.376C137.198 101.281 137.222 101.172 137.213 101.063C137.213 100.107 137.213 99.1521 137.213 98.1811H137.722V100.081H138.745L138.893 99.908V98.5081C139.042 98.3391 139.223 98.4521 139.373 98.4131C139.453 98.5282 139.488 98.668 139.473 98.807C139.473 99.207 139.473 99.601 139.473 99.997C139.725 100.166 140.007 100.062 140.273 100.097L140.437 99.915C140.437 99.442 140.437 98.9491 140.437 98.4561C140.437 98.3691 140.43 98.283 140.537 98.227H140.944V99.9351L141.186 100.09H141.886C141.971 99.973 142.007 99.8273 141.986 99.684C141.981 99.512 141.986 99.34 141.986 99.169C141.986 98.998 141.996 98.803 141.986 98.622C141.974 98.459 141.936 98.2981 141.91 98.1341L142.103 97.9651C142.217 97.9921 142.378 97.8951 142.503 98.0651C142.503 98.7871 142.503 99.526 142.503 100.265C142.489 100.363 142.464 100.458 142.427 100.55C142.315 100.568 142.196 100.587 142.078 100.608C141.96 100.629 141.859 100.65 141.75 100.672C141.579 100.707 141.424 100.613 141.261 100.612C141.11 100.6 140.961 100.564 140.82 100.505C140.766 100.483 140.705 100.483 140.65 100.505C140.536 100.572 140.408 100.611 140.276 100.619C140.093 100.685 139.892 100.685 139.709 100.619C139.619 100.597 139.519 100.619 139.43 100.59C139.347 100.557 139.268 100.515 139.193 100.465C139.042 100.53 138.886 100.583 138.726 100.622C138.564 100.651 138.4 100.668 138.235 100.672C138.062 100.68 137.893 100.679 137.728 100.679Z" fill="#999999"/>
<path d="M65.0552 101.582C65.3662 101.582 65.6663 101.593 65.9653 101.582C66.0833 101.581 66.1996 101.555 66.3071 101.506C66.4146 101.458 66.5108 101.387 66.5893 101.299C66.6325 101.255 66.6663 101.203 66.6889 101.146C66.7116 101.089 66.7226 101.027 66.7212 100.966C66.7162 100.838 66.7212 100.709 66.7212 100.555C66.6981 100.57 66.6737 100.583 66.6482 100.593C66.3168 100.716 65.9532 100.722 65.6181 100.609C65.4052 100.558 65.2183 100.431 65.0923 100.252C65.0498 100.193 64.9981 100.141 64.9392 100.098C64.9022 99.976 64.8723 99.891 64.8513 99.798C64.8486 99.7161 64.8345 99.635 64.8093 99.557C64.7749 99.4456 64.7677 99.3277 64.7883 99.213C64.8034 98.9697 64.8535 98.7299 64.9372 98.501C65.0254 98.3088 65.1689 98.1472 65.3493 98.037C65.5177 97.9262 65.7085 97.8545 65.9082 97.827C66.1106 97.7779 66.32 97.7631 66.5273 97.783C66.771 97.7858 67.0118 97.8361 67.2363 97.931C67.2363 98.988 67.2363 100.041 67.2363 101.094C67.2334 101.289 67.1586 101.476 67.0263 101.619C66.7793 101.912 66.7204 101.907 66.2654 102.037C65.9215 102.091 65.5729 102.109 65.2253 102.09C65.1753 102.09 65.1252 102.04 65.0512 102.005L65.0552 101.582ZM66.7102 100.022V98.293H66.0923C65.9666 98.3236 65.8438 98.3651 65.7253 98.417C65.6065 98.4846 65.5095 98.5847 65.4455 98.7054C65.3816 98.8262 65.3534 98.9627 65.3642 99.099C65.3706 99.1845 65.3706 99.2704 65.3642 99.356C65.3474 99.4821 65.365 99.6104 65.415 99.7275C65.465 99.8445 65.5454 99.9459 65.6482 100.021C65.9922 100.137 66.3659 100.138 66.7102 100.022Z" fill="#999999"/>
<path d="M110.382 99.0355L110.482 98.9355H110.89C110.89 99.0145 110.901 99.0955 110.901 99.1765C110.901 99.4772 110.901 99.7771 110.901 100.076C110.891 100.298 110.957 100.517 111.089 100.696C111.221 100.875 111.411 101.002 111.626 101.057C111.751 101.107 111.884 101.132 112.018 101.128C112.262 101.113 112.508 101.128 112.754 101.128C112.782 100.857 112.82 100.6 112.833 100.342C112.846 100.084 112.833 99.8265 112.833 99.5685V96.0685C112.953 95.8975 113.117 95.9965 113.248 95.9685L113.348 96.0685V101.497L113.154 101.623C112.941 101.655 112.754 101.694 112.574 101.708C112.381 101.728 112.187 101.728 111.994 101.708C111.499 101.7 111.027 101.497 110.68 101.143C110.591 101.058 110.53 100.948 110.504 100.827C110.486 100.702 110.393 100.584 110.387 100.46C110.331 100.183 110.308 99.9002 110.317 99.6175C110.335 99.5175 110.367 99.4175 110.379 99.3175C110.386 99.2236 110.386 99.1295 110.382 99.0355Z" fill="#999999"/>
<path d="M83.3323 98.2892C83.4633 98.3222 83.6323 98.2222 83.7323 98.3772C83.7143 98.4242 83.6803 98.4682 83.6823 98.5122C83.674 98.7736 83.6918 99.0353 83.7353 99.2932C83.7695 99.4881 83.8669 99.6664 84.0126 99.8003C84.1584 99.9343 84.3442 100.016 84.5413 100.034C85.2173 100.108 85.898 100.13 86.5773 100.098C86.7593 100.105 86.9423 100.105 87.1253 100.098C87.1849 100.084 87.2416 100.06 87.2933 100.027V98.2592C87.4423 98.0882 87.6233 98.2022 87.7933 98.1592C87.828 98.2124 87.8531 98.2713 87.8673 98.3332C87.8673 98.9672 87.8733 99.6012 87.8673 100.233C87.8534 100.336 87.8277 100.437 87.7904 100.533C87.6764 100.62 87.5243 100.59 87.3903 100.623C87.0042 100.684 86.6126 100.703 86.2224 100.679C85.8252 100.699 85.4273 100.697 85.0303 100.673C84.5918 100.68 84.1589 100.573 83.7733 100.364C83.6295 100.279 83.5062 100.163 83.4119 100.024C83.3176 99.8863 83.2546 99.7292 83.2272 99.5642C83.2162 99.4542 83.1783 99.3462 83.1663 99.2362C83.1543 99.1262 83.1783 99.0192 83.1613 98.9142C83.1303 98.7302 83.2453 98.5722 83.2353 98.3932C83.2363 98.3582 83.2943 98.3272 83.3323 98.2892Z" fill="#999999"/>
<path d="M124.689 96.1402L124.874 95.9711C124.994 96.0001 125.156 95.9011 125.28 96.0711V97.2711C125.28 98.2371 125.28 99.2022 125.28 100.171C125.289 100.248 125.28 100.326 125.255 100.399C125.23 100.473 125.189 100.539 125.135 100.595C124.166 100.682 123.193 100.711 122.22 100.683L122.129 100.592V100.1C122.542 100.094 122.967 100.1 123.391 100.1H124.686L124.689 96.1402Z" fill="#999999"/>
<path d="M60.9164 97.906V100.353C60.9164 100.447 60.9353 100.553 60.8043 100.614C60.5123 100.573 60.2114 100.726 59.8944 100.679C59.7093 100.677 59.5251 100.653 59.3463 100.605C59.0299 100.509 58.7633 100.294 58.6024 100.005C58.5824 99.96 58.5643 99.914 58.5353 99.844C58.5513 99.644 58.4184 99.427 58.4654 99.194C58.4972 98.9641 58.5438 98.7367 58.6053 98.513C58.6997 98.3119 58.8486 98.1414 59.0353 98.021C59.1597 97.9395 59.2965 97.8787 59.4403 97.841C59.5348 97.806 59.634 97.7844 59.7345 97.7769C59.9055 97.7619 60.0774 97.7619 60.2484 97.7769C60.4674 97.8069 60.6824 97.861 60.9164 97.906ZM60.3893 100.098V98.293C60.1893 98.293 59.9893 98.278 59.8033 98.293C59.7012 98.2876 59.5991 98.304 59.5038 98.3411C59.4085 98.3782 59.3222 98.4352 59.2506 98.5082C59.179 98.5812 59.124 98.6686 59.0887 98.7646C59.0535 98.8606 59.0391 98.963 59.0465 99.065C59.0465 99.183 59.0545 99.302 59.0465 99.419C59.0426 99.5014 59.0567 99.5836 59.088 99.66C59.1193 99.7363 59.1668 99.8049 59.2274 99.861C59.2872 99.9315 59.3613 99.9886 59.4447 100.029C59.5281 100.069 59.6188 100.091 59.7113 100.093C59.9313 100.106 60.1553 100.099 60.3893 100.099V100.098Z" fill="#999999"/>
<path d="M63.9263 100.67H61.8403L61.6963 100.477V100.189C61.7503 100.089 61.8314 100.089 61.9214 100.089C62.4364 100.089 62.9514 100.089 63.4954 100.089C63.5105 99.7485 63.5074 99.4074 63.4863 99.0671C63.4731 98.9492 63.4351 98.8354 63.3748 98.7332C63.3144 98.631 63.2334 98.5427 63.1365 98.4741C62.9819 98.3582 62.7954 98.2923 62.6023 98.2851C62.3683 98.2791 62.1334 98.2851 61.8914 98.2851V97.8361C62.1174 97.8651 62.3263 97.7291 62.5603 97.7691C62.7413 97.8001 62.9233 97.8251 63.1023 97.8611C63.2759 97.909 63.4394 97.9884 63.5845 98.0951C63.6589 98.1503 63.7192 98.2222 63.7605 98.3051C63.9164 98.5908 64.0071 98.9073 64.0264 99.2321C64.0624 99.5691 64.0644 99.9031 64.0754 100.238C64.0817 100.396 64.0283 100.55 63.9263 100.67Z" fill="#999999"/>
<path d="M126.478 95.9663C126.612 96.0043 126.778 95.8923 126.892 96.0753V100.614L126.492 100.693C126.431 100.639 126.383 100.571 126.352 100.496C126.321 100.42 126.307 100.338 126.312 100.256C126.317 98.9683 126.317 97.6803 126.312 96.3923C126.309 96.3137 126.322 96.2352 126.351 96.1619C126.379 96.0886 126.423 96.022 126.478 95.9663Z" fill="#999999"/>
<path d="M107.92 100.593L107.843 100.67H107.503L107.42 100.587V96.0643C107.538 95.9003 107.7 95.9994 107.83 95.9644L107.919 96.0533L107.92 100.593Z" fill="#999999"/>
<path d="M80.7664 100.598C80.5924 100.668 80.4294 100.76 80.2664 100.592V96.0654C80.3844 95.9014 80.5474 96.0003 80.6764 95.9653L80.7654 96.0544L80.7664 100.598Z" fill="#999999"/>
<path d="M123.475 99.4843L123.381 99.5782H123.048L122.898 99.4013V96.5093L123.073 96.4033L123.041 96.3643H123.381C123.471 96.4173 123.481 96.4973 123.475 96.5873C123.475 97.0813 123.475 97.5743 123.475 98.0673V99.4843Z" fill="#999999"/>
<path d="M130.429 96.9822L130.262 97.1482L129.862 97.0672V96.5512L130.262 96.4722L130.428 96.6382L130.429 96.9822Z" fill="#999999"/>
<path d="M60.2234 96.4902H60.4324L60.5942 96.6522V96.9732L60.4272 97.1302H60.1682L60.0193 96.9522V96.6362L60.2234 96.4902Z" fill="#999999"/>
<path d="M59.1464 97.1382L59.0463 97.0331C59.0813 96.8611 58.9814 96.6621 59.1254 96.4941H59.4834C59.6454 96.6601 59.5144 96.8642 59.5734 97.0212C59.4474 97.2052 59.2824 97.1032 59.1464 97.1382Z" fill="#999999"/>
<path d="M131.322 96.4991L131.411 96.5881C131.375 96.7601 131.478 96.9601 131.311 97.1471L130.899 97.0751V96.5751L130.976 96.498L131.322 96.4991Z" fill="#999999"/>
<path d="M141.308 97.5222H140.985L140.885 97.4222C140.924 97.2762 140.809 97.0942 140.976 96.9512H141.376C141.457 97.0729 141.489 97.221 141.464 97.3652L141.308 97.5222Z" fill="#999999"/>
<path d="M85.2974 97.1702C85.2614 97.3392 85.3644 97.5392 85.2164 97.7072H84.8704C84.6874 97.5612 84.8203 97.3442 84.7753 97.1712C84.8469 97.1067 84.9399 97.071 85.0362 97.0708C85.1325 97.0706 85.2256 97.106 85.2974 97.1702Z" fill="#999999"/>
<path d="M86.3363 97.2432C86.2863 97.4092 86.4003 97.5862 86.2173 97.7152C86.0943 97.6862 85.9344 97.7832 85.8174 97.6212V97.1412L86.1503 97.0542L86.3363 97.2432Z" fill="#999999"/>
<path d="M139.975 96.9463H140.345C140.503 97.0543 140.408 97.2083 140.454 97.3623L140.26 97.4623L140.296 97.5073H140.01L139.857 97.3553C139.858 97.2183 139.833 97.0653 139.975 96.9463Z" fill="#999999"/>
<path d="M140.462 96.1689H140.846C140.97 96.2689 140.953 96.419 140.946 96.595L140.732 96.736H140.519L140.38 96.598C140.361 96.5249 140.358 96.4483 140.372 96.374C140.386 96.2997 140.417 96.2296 140.462 96.1689Z" fill="#999999"/>
<path d="M120.329 96.751H120.684C120.838 96.915 120.73 97.116 120.775 97.31H120.243C120.285 97.128 120.174 96.926 120.329 96.751Z" fill="#999999"/>
<path d="M95.4423 96.7363L95.5423 96.8363C95.5423 96.9933 95.5423 97.1503 95.5423 97.3163H95.0423C95.0143 97.1643 95.0423 96.9983 95.0293 96.8513C95.1503 96.6693 95.3193 96.7893 95.4423 96.7363Z" fill="#999999"/>
<path d="M96.1564 96.751H96.4844C96.6254 96.833 96.5763 96.9599 96.5843 97.0699C96.5843 97.1619 96.6204 97.2699 96.4424 97.3199H96.0903C96.0503 96.8979 96.0504 96.898 96.1564 96.751Z" fill="#999999"/>
<path d="M121.289 97.3443V96.8363L121.384 96.7363C121.512 96.7753 121.677 96.6633 121.792 96.8433V97.2303C121.648 97.4133 121.46 97.2803 121.289 97.3443Z" fill="#999999"/>
<path d="M85.3063 96.444L85.3862 96.364C85.6742 96.357 85.6742 96.3571 85.8052 96.4481V96.848C85.7347 96.9059 85.6464 96.9375 85.5552 96.9375C85.464 96.9375 85.3756 96.9059 85.3052 96.848L85.3063 96.444Z" fill="#999999"/>
</g>
<defs>
<clipPath id="clip0_1_1798">
<rect width="170" height="170" fill="white" transform="translate(0 0.560059)"/>
</clipPath>
</defs>
</svg>
