<svg width="17" height="17" viewBox="0 0 17 17" fill="none" xmlns="http://www.w3.org/2000/svg">
<path d="M8.02002 2.38149C6.71692 2.3814 5.44306 2.76774 4.35954 3.49166C3.27603 4.21558 2.43152 5.24455 1.93284 6.44845C1.43415 7.65235 1.30368 8.9771 1.55793 10.2552C1.81217 11.5332 2.43972 12.7072 3.3612 13.6285C4.59679 14.8641 6.27262 15.5583 8.02002 15.5583C9.76742 15.5583 11.4432 14.8641 12.6788 13.6285C13.9144 12.393 14.6086 10.7171 14.6086 8.96973C14.6086 7.22233 13.9144 5.5465 12.6788 4.3109C12.0685 3.69722 11.3424 3.2107 10.5427 2.87952C9.74301 2.54833 8.88557 2.37906 8.02002 2.38149ZM8.02002 0.969727C9.60227 0.969727 11.149 1.43892 12.4646 2.31797C13.7802 3.19702 14.8056 4.44645 15.4111 5.90826C16.0166 7.37007 16.175 8.9786 15.8663 10.5304C15.5576 12.0823 14.7957 13.5078 13.6769 14.6266C12.5581 15.7454 11.1326 16.5073 9.58074 16.816C8.02889 17.1247 6.42036 16.9663 4.95855 16.3608C3.49674 15.7553 2.24731 14.7299 1.36826 13.4143C0.489211 12.0987 0.0200195 10.552 0.0200195 8.96973C0.0200195 6.84799 0.862874 4.81316 2.36317 3.31287C3.86346 1.81258 5.89829 0.969727 8.02002 0.969727Z" fill="#9057CD"/>
<path d="M11.1141 9.91079H4.96118V8.49902H11.1137L11.1141 9.91079Z" fill="#9057CD"/>
<path d="M8.74331 6.12879V12.2817H7.33154V6.12927L8.74331 6.12879Z" fill="#9057CD"/>
</svg>
