<svg width="25" height="26" viewBox="0 0 25 26" fill="none" xmlns="http://www.w3.org/2000/svg">
<path d="M16.15 3.18506C15.725 3.18506 15.325 3.38506 15.1 3.61006L7.70005 11.1101C7.40005 11.4101 7.30005 11.8351 7.30005 12.2351C7.30005 12.6601 7.40005 13.0851 7.70005 13.3851L15.1 21.4101C15.425 21.7351 15.725 21.9351 16.15 21.9351C16.575 21.9351 16.975 21.8351 17.3 21.5101C17.6 21.2101 17.825 20.7851 17.825 20.3601C17.825 19.9601 17.7 19.5351 17.3 19.2351L10.95 12.2351L17.3 5.68506C17.5 5.48506 17.7 5.16006 17.7 4.73506C17.7 4.33506 17.6 3.91006 17.3 3.61006C16.875 3.28506 16.575 3.18506 16.15 3.18506Z" fill="#EEEEEE" fill-opacity="0.9"/>
</svg>
