<svg width="25" height="26" viewBox="0 0 25 26" fill="none" xmlns="http://www.w3.org/2000/svg">
<path d="M17.4 13.3851C17.7 13.0851 17.825 12.6601 17.825 12.2351C17.825 11.8351 17.7 11.4101 17.4 11.2101L9.99995 3.71006C9.69995 3.38506 9.37495 3.18506 8.84995 3.18506C8.44995 3.18506 8.12495 3.28506 7.82495 3.61006C7.49995 3.91006 7.29995 4.33506 7.29995 4.73506C7.29995 5.16006 7.39995 5.58506 7.69995 5.88506L14.075 12.3601L7.59995 19.3351C7.29995 19.6351 7.19995 20.0601 7.19995 20.4851C7.19995 20.8851 7.39995 21.3101 7.69995 21.6351C8.02495 21.8351 8.44995 21.9351 8.84995 21.9351C9.27495 21.9351 9.69995 21.7351 9.99995 21.4101L17.4 13.3851Z" fill="#EEEEEE" fill-opacity="0.9"/>
</svg>
