<svg width="15" height="14" viewBox="0 0 15 14" fill="none" xmlns="http://www.w3.org/2000/svg">
<g clip-path="url(#clip0_1_1372)">
<path d="M6.01636 0H8.20386C8.56753 0 8.86011 0.292578 8.86011 0.65625V5.25H11.2582C11.7449 5.25 11.9882 5.83789 11.6437 6.18242L7.48472 10.3441C7.27964 10.5492 6.94331 10.5492 6.73823 10.3441L2.57378 6.18242C2.22925 5.83789 2.47261 5.25 2.95933 5.25H5.36011V0.65625C5.36011 0.292578 5.65269 0 6.01636 0ZM14.1101 10.2812V13.3438C14.1101 13.7074 13.8175 14 13.4539 14H0.766357C0.402686 14 0.110107 13.7074 0.110107 13.3438V10.2812C0.110107 9.91758 0.402686 9.625 0.766357 9.625H4.77769L6.11753 10.9648C6.66714 11.5145 7.55308 11.5145 8.10268 10.9648L9.44253 9.625H13.4539C13.8175 9.625 14.1101 9.91758 14.1101 10.2812ZM10.7195 12.6875C10.7195 12.3867 10.4734 12.1406 10.1726 12.1406C9.87183 12.1406 9.62573 12.3867 9.62573 12.6875C9.62573 12.9883 9.87183 13.2344 10.1726 13.2344C10.4734 13.2344 10.7195 12.9883 10.7195 12.6875ZM12.4695 12.6875C12.4695 12.3867 12.2234 12.1406 11.9226 12.1406C11.6218 12.1406 11.3757 12.3867 11.3757 12.6875C11.3757 12.9883 11.6218 13.2344 11.9226 13.2344C12.2234 13.2344 12.4695 12.9883 12.4695 12.6875Z" fill="#9057CD"/>
</g>
<defs>
<clipPath id="clip0_1_1372">
<rect width="14" height="14" fill="white" transform="translate(0.110107)"/>
</clipPath>
</defs>
</svg>
