<svg width="19" height="19" viewBox="0 0 19 19" fill="none" xmlns="http://www.w3.org/2000/svg">
<g clip-path="url(#clip0_1_2015)">
<g clip-path="url(#clip1_1_2015)">
<path d="M9.94995 18.88C14.9205 18.88 18.95 14.8506 18.95 9.88C18.95 4.90944 14.9205 0.880005 9.94995 0.880005C4.97939 0.880005 0.949951 4.90944 0.949951 9.88C0.949951 14.8506 4.97939 18.88 9.94995 18.88Z" fill="#EEEEEE"/>
<path d="M2.81318 4.39914C2.09463 5.33117 1.56662 6.39555 1.25928 7.53156H5.94209L2.81318 4.40266V4.39914ZM18.6405 7.53156C18.3338 6.39705 17.807 5.33392 17.0901 4.40266L13.9612 7.53156H18.637H18.6405ZM1.25928 12.2284C1.56599 13.3629 2.09278 14.4261 2.80967 15.3573L5.93857 12.2284H1.26631H1.25928ZM15.4272 2.73977C14.4957 2.02413 13.4326 1.49854 12.2983 1.19289V5.87219L15.4272 2.74328V2.73977ZM4.47256 17.0202C5.40516 17.7363 6.4695 18.2619 7.60498 18.5671V13.8878L4.47607 17.0167L4.47256 17.0202ZM7.60146 1.18938C6.46695 1.49609 5.40382 2.02288 4.47256 2.73977L7.60146 5.87219V1.18938ZM12.2983 18.5706C13.4328 18.2639 14.496 17.7371 15.4272 17.0202L12.2983 13.8913V18.5671V18.5706ZM13.9577 12.2284L17.0866 15.3573C17.8048 14.4264 18.3328 13.3632 18.6405 12.2284H13.9577Z" fill="#0052B4"/>
<path d="M18.8726 8.70579H11.1242V0.957349C10.7348 0.906237 10.3426 0.880401 9.94995 0.880005C9.55269 0.880005 9.15894 0.904614 8.77573 0.957349V8.70579H1.02729C0.976183 9.09511 0.950348 9.48734 0.949951 9.88C0.949951 10.2773 0.974561 10.671 1.02729 11.0542H8.77573V18.8027C9.55525 18.9043 10.3447 18.9043 11.1242 18.8027V11.0542H18.8726C18.9237 10.6649 18.9496 10.2727 18.95 9.88C18.95 9.48274 18.9253 9.08899 18.8726 8.70579Z" fill="#D80027"/>
<path d="M12.2984 12.2284L16.3132 16.2433C16.4973 16.0588 16.6732 15.8664 16.8406 15.6667L13.4058 12.2284H12.2984ZM7.60151 12.2284L3.58667 16.2433C3.77115 16.4273 3.96352 16.6033 4.16323 16.7706L7.60151 13.3359V12.2284ZM7.60151 7.53157L3.58667 3.51672C3.40264 3.7012 3.2267 3.89357 3.05933 4.09329L6.49409 7.53157H7.60151ZM12.2984 7.53157L16.3132 3.51672C16.1288 3.33269 15.9364 3.15674 15.7367 2.98938L12.2984 6.42415V7.53157Z" fill="#D80027"/>
</g>
</g>
<defs>
<clipPath id="clip0_1_2015">
<rect width="18" height="18" fill="white" transform="translate(0.949951 0.880005)"/>
</clipPath>
<clipPath id="clip1_1_2015">
<rect width="18" height="18" fill="white" transform="translate(0.949951 0.880005)"/>
</clipPath>
</defs>
</svg>
