<svg width="18" height="13" viewBox="0 0 18 13" fill="none" xmlns="http://www.w3.org/2000/svg">
<path d="M1.74984 7.33334H16.7498C17.2098 7.33334 17.5832 6.96 17.5832 6.5C17.5832 6.04001 17.2098 5.66667 16.7498 5.66667H1.74984C1.28984 5.66667 0.916504 6.04001 0.916504 6.5C0.916504 6.96 1.28984 7.33334 1.74984 7.33334ZM1.74984 2.33334H16.7498C17.2098 2.33334 17.5832 1.96001 17.5832 1.50001C17.5832 1.04001 17.2098 0.666672 16.7498 0.666672H1.74984C1.28984 0.666672 0.916504 1.04001 0.916504 1.50001C0.916504 1.96001 1.28984 2.33334 1.74984 2.33334ZM1.74984 12.3333H16.7498C17.2098 12.3333 17.5832 11.96 17.5832 11.5C17.5832 11.04 17.2098 10.6667 16.7498 10.6667H1.74984C1.28984 10.6667 0.916504 11.04 0.916504 11.5C0.916504 11.96 1.28984 12.3333 1.74984 12.3333Z" fill="#351E15"/>
</svg>
