<svg width="28" height="27" viewBox="0 0 28 27" fill="none" xmlns="http://www.w3.org/2000/svg">
<path d="M6.69097 26.4203H1.24878V8.89492H6.69097V26.4203ZM3.96694 6.5043C2.22671 6.5043 0.815186 5.06289 0.815186 3.32266C0.815186 2.48676 1.14724 1.6851 1.73831 1.09403C2.32938 0.502958 3.13105 0.170898 3.96694 0.170898C4.80284 0.170898 5.6045 0.502958 6.19557 1.09403C6.78664 1.6851 7.1187 2.48676 7.1187 3.32266C7.1187 5.06289 5.70659 6.5043 3.96694 6.5043ZM27.0593 26.4203H21.6289V17.8891C21.6289 15.8559 21.5878 13.2484 18.7994 13.2484C15.9699 13.2484 15.5363 15.4574 15.5363 17.7426V26.4203H10.1V8.89492H15.3195V11.2855H15.3957C16.1222 9.90859 17.897 8.45547 20.5449 8.45547C26.0527 8.45547 27.0652 12.0824 27.0652 16.7934V26.4203H27.0593Z" fill="black"/>
</svg>
