<svg width="30" height="31" viewBox="0 0 30 31" fill="none" xmlns="http://www.w3.org/2000/svg">
<path d="M15.0061 8.43213C11.2795 8.43213 8.27368 11.438 8.27368 15.1646C8.27368 18.8911 11.2795 21.897 15.0061 21.897C18.7327 21.897 21.7385 18.8911 21.7385 15.1646C21.7385 11.438 18.7327 8.43213 15.0061 8.43213ZM15.0061 19.5415C12.5979 19.5415 10.6291 17.5786 10.6291 15.1646C10.6291 12.7505 12.592 10.7876 15.0061 10.7876C17.4202 10.7876 19.3831 12.7505 19.3831 15.1646C19.3831 17.5786 17.4143 19.5415 15.0061 19.5415ZM23.5842 8.15674C23.5842 9.02979 22.8811 9.72705 22.0139 9.72705C21.1409 9.72705 20.4436 9.02393 20.4436 8.15674C20.4436 7.28955 21.1467 6.58643 22.0139 6.58643C22.8811 6.58643 23.5842 7.28955 23.5842 8.15674ZM28.0432 9.75049C27.9436 7.64697 27.4631 5.78369 25.9221 4.24853C24.387 2.71338 22.5237 2.23291 20.4202 2.12744C18.2522 2.00439 11.7542 2.00439 9.58618 2.12744C7.48853 2.22705 5.62524 2.70752 4.08423 4.24268C2.54321 5.77783 2.0686 7.64111 1.96313 9.74463C1.84009 11.9126 1.84009 18.4106 1.96313 20.5786C2.06274 22.6821 2.54321 24.5454 4.08423 26.0806C5.62524 27.6157 7.48267 28.0962 9.58618 28.2017C11.7542 28.3247 18.2522 28.3247 20.4202 28.2017C22.5237 28.102 24.387 27.6216 25.9221 26.0806C27.4573 24.5454 27.9377 22.6821 28.0432 20.5786C28.1663 18.4106 28.1663 11.9185 28.0432 9.75049ZM25.2424 22.9048C24.7854 24.0532 23.9006 24.938 22.7463 25.4009C21.0178 26.0864 16.9163 25.9282 15.0061 25.9282C13.0959 25.9282 8.98853 26.0806 7.26587 25.4009C6.11743 24.9438 5.23267 24.0591 4.76978 22.9048C4.08423 21.1763 4.24243 17.0747 4.24243 15.1646C4.24243 13.2544 4.09009 9.14697 4.76978 7.42432C5.22681 6.27588 6.11157 5.39111 7.26587 4.92822C8.99438 4.24268 13.0959 4.40088 15.0061 4.40088C16.9163 4.40088 21.0237 4.24853 22.7463 4.92822C23.8948 5.38525 24.7795 6.27002 25.2424 7.42432C25.928 9.15283 25.7698 13.2544 25.7698 15.1646C25.7698 17.0747 25.928 21.1821 25.2424 22.9048Z" fill="black"/>
</svg>
