<svg width="31" height="31" viewBox="0 0 31 31" fill="none" xmlns="http://www.w3.org/2000/svg">
<g clip-path="url(#clip0_1_1919)">
<path d="M30.4414 15.1704C30.4414 7.14307 23.9375 0.63916 15.9102 0.63916C7.88281 0.63916 1.37891 7.14307 1.37891 15.1704C1.37891 22.4231 6.69277 28.4349 13.6396 29.5259V19.371H9.94824V15.1704H13.6396V11.9688C13.6396 8.32725 15.8076 6.31572 19.1281 6.31572C20.7184 6.31572 22.3813 6.59932 22.3813 6.59932V10.1735H20.5484C18.7437 10.1735 18.1807 11.2938 18.1807 12.4429V15.1704H22.2107L21.5662 19.371H18.1807V29.5259C25.1275 28.4349 30.4414 22.4231 30.4414 15.1704Z" fill="black"/>
</g>
<defs>
<clipPath id="clip0_1_1919">
<rect width="30" height="30" fill="white" transform="translate(0.910156 0.17041)"/>
</clipPath>
</defs>
</svg>
